<?xml version="1.0" encoding="utf-8"?>
<!-- Generator: Adobe Illustrator 22.0.0, SVG Export Plug-In . SVG Version: 6.00 Build 0)  -->
<svg version="1.1" id="Слой_1" xmlns="http://www.w3.org/2000/svg" xmlns:xlink="http://www.w3.org/1999/xlink" x="0px" y="0px"
	 viewBox="0 0 609.9 609.9" style="enable-background:new 0 0 609.9 609.9;" xml:space="preserve">
<style type="text/css">
	.st0{fill:#FFFFFF;}
</style>
<g>
	<g>
		<path class="st0" d="M259.3,359.2c-1.9,0-3.7-1.1-4.6-3c-1.1-2.5,0-5.5,2.5-6.6c20.4-9.1,43.2-22.9,64.4-38.8c2.2-1.7,5.3-1.2,7,1
			c1.7,2.2,1.2,5.3-1,7c-21.7,16.3-45.2,30.5-66.3,39.9C260.7,359,260,359.2,259.3,359.2z"/>
		<path class="st0" d="M363.8,283c-1.1,0-2.1-0.3-3.1-1c-2.2-1.7-2.6-4.8-0.9-7c10.9-14.1,25.1-37.9,28.9-58.3
			c2.4-12.7,2.9-31.4-7.9-48c-8.1-12.4-21-21.8-35.4-25.8c-15.2-4.2-32.4-2.3-47.3,5.3c-13.2,6.7-24.4,18.4-34.5,36
			c-1.4,2.4-4.4,3.2-6.8,1.9c-2.4-1.4-3.2-4.4-1.9-6.8c11-19.3,23.7-32.4,38.6-39.9c17.1-8.6,36.9-10.8,54.5-6
			c16.7,4.6,31.7,15.5,41.1,29.9c12.6,19.3,12,40.7,9.3,55.3c-4.1,22.2-18.6,46.9-30.8,62.6C366.8,282.3,365.3,283,363.8,283z"/>
		<path class="st0" d="M259.5,359.2c-0.7,0-1.4-0.1-2-0.4c-1.4-0.6-34.9-15.5-69-42.4c-20.1-15.9-36.2-32.6-47.7-49.7
			c-14.6-21.7-22.1-44.2-22.1-66.7c0-41.3,35.9-69.1,69.5-69.1c43,0,63.7,27.6,75.6,48.3c1.4,2.4,0.5,5.5-1.9,6.8
			c-2.4,1.4-5.5,0.5-6.8-1.9c-11.5-20.2-29.6-43.3-66.9-43.3c-28.7,0-59.5,23.7-59.5,59.1c0,90.1,131.5,149.1,132.8,149.7
			c2.5,1.1,3.7,4.1,2.6,6.6C263.3,358,261.4,359.2,259.5,359.2z"/>
	</g>
	<path class="st0" d="M352.6,205.7c-2.2,0-4.2-1.5-4.8-3.7c-6.2-22.6-23.3-23.6-24-23.7c-2.7-0.1-4.9-2.4-4.8-5.2
		c0.1-2.7,2.3-4.9,5.1-4.8c1,0,25.1,1.1,33.3,31c0.7,2.7-0.8,5.4-3.5,6.1C353.5,205.6,353,205.7,352.6,205.7z"/>
	<path class="st0" d="M363.8,466.4c-2.7,0-4.9-2.1-5-4.8c0,0-0.2-3.7-1.7-9.6c-2.3-8.8-11.7-19.6-21.5-31
		c-9.6-11.1-19.5-22.6-26.1-35.3c-7.4-14.4-5.9-29.5-5.9-30.2c0.3-2.7,2.7-4.7,5.5-4.4c2.7,0.3,4.7,2.8,4.4,5.5
		c0,0.2-1.2,12.9,4.8,24.5c6,11.6,15.5,22.7,24.8,33.3c10.6,12.3,20.7,23.9,23.6,35c1.9,7,2,11.6,2,11.8c0.1,2.8-2.1,5.1-4.8,5.2
		C363.9,466.4,363.8,466.4,363.8,466.4z"/>
	<path class="st0" d="M463.7,463c-2.1,0-4.1-1.4-4.8-3.5c-3.7-11.9-5.4-30.9-5.4-43.5c0-4,0.4-7.4,0.9-12.1
		c1.1-10.1,3.1-27,3.1-69.2c0-23.6-10-41.7-29.6-53.7c-14.9-9.2-29.9-11.3-30.1-11.3c-2.7-0.4-4.7-2.9-4.3-5.6
		c0.4-2.7,2.9-4.7,5.6-4.3c0.7,0.1,17.2,2.4,33.9,12.7c15.7,9.6,34.4,28.3,34.4,62.3c0,42.8-2,60-3.1,70.3c-0.5,4.4-0.9,7.6-0.9,11
		c0,12.3,1.7,30.1,4.9,40.5c0.8,2.6-0.6,5.4-3.3,6.3C464.7,463,464.2,463,463.7,463z"/>
	<path class="st0" d="M381.9,421.4c-0.8,0-1.5-0.2-2.3-0.5c-33.3-16.9-41.5-33.9-47-49.8c-3.3-9.6-3.6-17-3.8-24.2
		c-0.1-4.3-0.3-8.4-1.1-12.8c-2.1-11.3-11.2-28.6-11.3-28.8c-0.1-0.1-0.1-0.2-0.2-0.4l-24.1-56.1c-4.7-10.9-0.3-23.4,10.1-29
		c9.9-5.4,22.4-2.6,29.1,6.4c7.2,9.5,18,24.2,29.2,39.7c19,26.4,52.7,53.4,53.1,53.7c2.2,1.7,2.5,4.9,0.8,7s-4.9,2.5-7,0.8
		c-1.4-1.1-35.1-28.1-54.9-55.7c-11.1-15.5-22-30-29.1-39.5c-3.8-5-10.8-6.6-16.3-3.6c-5.9,3.2-8.3,10.2-5.7,16.3l24,55.9
		c1.1,2.1,9.9,19.2,12.2,31.5c0.9,5.1,1.1,9.7,1.3,14.2c0.2,6.8,0.5,13.1,3.3,21.3c4,11.7,9.6,27.7,42.1,44.2
		c2.5,1.3,3.4,4.3,2.2,6.7C385.5,420.4,383.7,421.4,381.9,421.4z"/>
</g>
</svg>
