<?xml version="1.0" encoding="utf-8"?>
<!-- Generator: Adobe Illustrator 24.1.2, SVG Export Plug-In . SVG Version: 6.00 Build 0)  -->
<svg version="1.1" id="Capa_1" xmlns="http://www.w3.org/2000/svg" xmlns:xlink="http://www.w3.org/1999/xlink" x="0px" y="0px"
	 viewBox="0 0 112.7 112.7" style="enable-background:new 0 0 112.7 112.7;" xml:space="preserve">
<style type="text/css">
	.st0{fill:#A3A3A3;}
</style>
<path class="st0" d="M111.6,106.7L61.3,56.4l50.2-50.3c1.4-1.4,1.4-3.6,0-5c-1.3-1.4-3.5-1.4-4.9,0L56.3,51.4L6.1,1.1
	c-1.4-1.4-3.6-1.4-5,0s-1.4,3.6,0,5l50.3,50.3L1.1,106.8c-1.4,1.3-1.4,3.5,0,4.9c0.7,0.7,1.6,1,2.5,1s1.8-0.3,2.5-1l50.3-50.3
	l50.3,50.3c0.7,0.7,1.6,1,2.5,1s1.8-0.3,2.5-1.1C113.1,110.3,113.1,108.1,111.6,106.7z"/>
</svg>
