<?xml version="1.0" encoding="utf-8"?>
<!-- Generator: Adobe Illustrator 24.1.2, SVG Export Plug-In . SVG Version: 6.00 Build 0)  -->
<svg version="1.1" id="Слой_1" xmlns="http://www.w3.org/2000/svg" xmlns:xlink="http://www.w3.org/1999/xlink" x="0px" y="0px"
	 viewBox="0 0 168.5 134" style="enable-background:new 0 0 168.5 134;" xml:space="preserve">
<style type="text/css">
	.st0{fill:#A3A3A3;}
</style>
<g>
	<path class="st0" d="M26.3,7h115.9c1.9,0,3.5-1.6,3.5-3.5S144.1,0,142.2,0H26.3c-1.9,0-3.5,1.6-3.5,3.5S24.4,7,26.3,7z"/>
	<path class="st0" d="M160.3,24.6C160.2,24.6,160.2,24.5,160.3,24.6c-0.3-0.4-0.7-0.7-1-0.9c-4.5-3.8-10.4-6.2-16.8-6.2H26.1
		c-6.3,0-12.2,2.3-16.7,6c-0.5,0.2-0.9,0.5-1.2,1c-0.1,0.1-0.1,0.2-0.2,0.3c-4.9,4.7-8,11.4-8,18.8v64.3C0,122.3,11.7,134,26.1,134
		h116.3c14.4,0,26.2-11.8,26.1-26.2V43.6C168.5,36.1,165.3,29.3,160.3,24.6z M161.5,107.8c0,3.9-1.2,7.5-3.2,10.5L102.8,74
		l54.2-42.7c2.8,3.3,4.4,7.6,4.4,12.2V107.8z M142.4,24.5c3.3,0,6.4,0.8,9.2,2.3L87.9,76.9c-2.2,1.7-5.2,1.7-7.4,0L16.8,26.8
		c2.7-1.5,5.9-2.4,9.3-2.4v0.1H142.4z M7,43.5c0-4.6,1.6-8.8,4.3-12.1l54.5,42.8l-55.6,44.2c-2-3-3.2-6.7-3.2-10.6V43.5z
		 M26.1,126.9c-4.1,0-7.9-1.3-11-3.5l56.3-44.8l4.8,3.8c2.3,1.9,5.2,2.8,8,2.8c2.9,0,5.7-0.9,8-2.8l5-3.9l56.2,44.9
		c-3.1,2.2-6.9,3.5-11,3.5H26.1z"/>
</g>
</svg>
