<?xml version="1.0" encoding="utf-8"?>
<!-- Generator: Adobe Illustrator 24.1.2, SVG Export Plug-In . SVG Version: 6.00 Build 0)  -->
<svg version="1.1" id="Capa_1" xmlns="http://www.w3.org/2000/svg" xmlns:xlink="http://www.w3.org/1999/xlink" x="0px" y="0px"
	 viewBox="0 0 188.2 188.2" style="enable-background:new 0 0 188.2 188.2;" xml:space="preserve">
<style type="text/css">
	.st0{fill:#0C8290;}
</style>
<g>
	<path class="st0" d="M93.3,150.3c-31.5,0-55-14.8-69.3-27.2C9.1,110,1.2,97.1,0.5,95.9c-0.1-0.1-0.2-0.3-0.2-0.4
		C0.1,95,0,94.5,0,94.1c0-0.5,0.1-1,0.3-1.5c0.1-0.1,0.1-0.3,0.2-0.4C1.2,91,9.1,78.1,24,65.1c14.2-12.4,37.8-27.2,69.3-27.2
		c31.4,0,55.4,14.8,70,27.2c15.7,13.4,24,26.6,24.3,27.2c0.4,0.6,0.5,1.3,0.5,1.9c0,0.5-0.1,0.9-0.3,1.3c-0.1,0.2-0.2,0.3-0.3,0.5
		c-0.8,1.2-9,14.1-24.3,27.1C148.8,135.5,124.8,150.3,93.3,150.3z M7.7,94.1c6,9,35.7,49.2,85.7,49.2c49.9,0,80.8-40,87.2-49.2
		c-6.4-9.1-37.2-49.2-87.2-49.2C43.2,44.9,13.7,85.1,7.7,94.1z"/>
	<path class="st0" d="M94,127.2c-17.9,0-32.4-14.5-32.4-32.4S76.2,62.4,94,62.4s32.4,14.5,32.4,32.4S111.9,127.2,94,127.2z M94,69.4
		c-14,0-25.4,11.4-25.4,25.4S80,120.2,94,120.2s25.4-11.4,25.4-25.4S108,69.4,94,69.4z"/>
</g>
</svg>
