<?xml version="1.0" encoding="utf-8"?>
<!-- Generator: Adobe Illustrator 24.1.2, SVG Export Plug-In . SVG Version: 6.00 Build 0)  -->
<svg version="1.1" id="Слой_1" xmlns="http://www.w3.org/2000/svg" xmlns:xlink="http://www.w3.org/1999/xlink" x="0px" y="0px"
	 viewBox="0 0 64.9 84.2" style="enable-background:new 0 0 64.9 84.2;" xml:space="preserve">
<style type="text/css">
	.st0{fill:#F18665;}
	.st1{fill:#0C8290;}
	.st2{fill:#E1AB11;}
</style>
<g>
	<path class="st0" d="M26.8,42.6c-4.8,3.5-9.3,7.6-13.2,12.2c0,0,0,0,0,0c-0.2,0.4-0.3,0.9-0.4,1.3c0.3-0.3,0.5-0.7,0.8-1
		c3.8-4.6,8.3-8.6,13-12.2c9.6-7.1,20.4-12.3,31.3-16.9c2.2-0.9,4.4-1.8,6.6-2.6v-0.5c-2.3,0.9-4.5,1.8-6.7,2.7
		C47.2,30.3,36.4,35.5,26.8,42.6z"/>
	<path class="st0" d="M11.6,58.1c0.1-0.5,0.3-0.9,0.4-1.4c-3.1,4.1-5.8,8.6-7.8,13.4C2.3,74.6,1,79.4,0,84.2h0.6
		c0.9-4.7,2.3-9.4,4.1-13.8C6.6,66,8.9,61.9,11.6,58.1z"/>
	<path class="st1" d="M39.2,61.4c-4.2,4-7.7,8.7-10.2,14c-1.3,2.8-2.3,5.8-3.1,8.8h0.7c0.8-2.9,1.8-5.8,3.1-8.5
		c2.4-5.2,6-9.8,10.1-13.7c4.2-3.9,8.9-7.1,13.9-10c3.7-2.1,7.5-4,11.3-5.7v-1c-4,1.8-7.9,3.8-11.8,6C48.2,54.1,43.4,57.4,39.2,61.4
		z"/>
	<path class="st2" d="M18.1,42.3c-2.4,4.6-4.4,9.5-6,14.4c-0.1,0.5-0.3,0.9-0.4,1.4c-1.9,6.3-3.1,12.7-3.6,19.3
		c-0.2,2.3-0.3,4.6-0.2,6.8h0.7c0-2.3,0.1-4.5,0.3-6.8c0.6-7.2,2.1-14.4,4.4-21.3c0.1-0.4,0.3-0.9,0.4-1.3c1.5-4.2,3.2-8.2,5.3-12.1
		c5.6-10.7,13.4-20.3,22.8-28C48.7,9,56.5,4.4,64.9,1V0c-8.6,3.4-16.6,8.1-23.8,14C31.6,21.7,23.8,31.4,18.1,42.3z"/>
</g>
</svg>
