<?xml version="1.0" encoding="utf-8"?>
<!-- Generator: Adobe Illustrator 24.1.2, SVG Export Plug-In . SVG Version: 6.00 Build 0)  -->
<svg version="1.1" id="Слой_1" xmlns="http://www.w3.org/2000/svg" xmlns:xlink="http://www.w3.org/1999/xlink" x="0px" y="0px"
	 viewBox="0 0 206.8 204.1" style="enable-background:new 0 0 206.8 204.1;" xml:space="preserve">
<style type="text/css">
	.st0{fill:#F18665;}
	.st1{fill:#0C8290;}
	.st2{fill:#E1AB11;}
</style>
<g>
	<path class="st0" d="M106.9,18.3c-4.4,0-8.8,0.6-13.1,1.7c-2.9,0.8-5.7,1.8-8.5,2.7c-2.8,1-5.6,1.9-8.4,2.9
		c-5.6,2-11.2,4.1-16.7,6.4C49.2,36.7,38.4,42,28.8,49c-4.8,3.5-9.3,7.6-13.2,12.2c-3.8,4.6-7,9.8-9.4,15.3
		C1.6,87.7,0.1,99.9,0,111.9c-0.1,12.1,2.1,24.2,6.6,35.4c4.5,11.2,11.3,21.4,19.7,29.9c8.4,8.5,18.5,15.4,29.5,20
		c10.8,4.5,22.5,6.9,34.2,6.9h0.5h0.6c11.7,0,23.4-2.4,34.2-6.9c11-4.6,21.1-11.4,29.5-20c8.4-8.5,15.2-18.8,19.7-29.9
		c4.6-11.2,6.8-23.3,6.7-35.4c-0.1-12.1-2.6-24.1-6.8-35.4c-4.2-11.3-10.2-21.9-17.8-31.2c-7.6-9.3-17-17.2-28-22.1
		c-5.5-2.4-11.3-4-17.3-4.6C110,18.4,108.4,18.3,106.9,18.3 M90.6,204c-11.9,0-23.7-2.5-34.7-7.1c-10.9-4.6-20.9-11.5-29.2-20.1
		c-8.3-8.5-14.9-18.7-19.3-29.8c-4.4-11.1-6.7-23.1-6.7-35c0-12,1.4-24.1,6-35.2c2.3-5.5,5.4-10.7,9.2-15.3c3.8-4.6,8.3-8.6,13-12.2
		c9.6-7.1,20.4-12.3,31.3-16.9c5.5-2.3,11.1-4.4,16.7-6.3c2.8-1,5.6-1.9,8.4-2.9c2.8-0.9,5.6-1.9,8.5-2.6c4.1-1.1,8.4-1.6,12.6-1.6
		c1.6,0,3.3,0.1,4.9,0.2c5.9,0.6,11.6,2.2,17,4.6c10.8,4.9,20.1,12.8,27.6,22c7.5,9.2,13.5,19.8,17.6,31c4.1,11.2,6.6,23.1,6.7,35.1
		c0.1,12-2.2,23.9-6.6,35c-4.4,11.1-11,21.3-19.3,29.8c-8.3,8.6-18.3,15.4-29.2,20.1C114.4,201.5,102.5,203.9,90.6,204"/>
	<path class="st1" d="M206.8,106.6c0,11.6-2.1,23.2-6.3,33.9c-4.2,10.8-10.5,20.7-18.3,29.2c-7.9,8.4-17.3,15.4-27.7,20.3
		c-10.4,4.9-21.8,7.7-33.2,8.3c-11.5,0.5-23-1.1-33.9-4.9c-10.8-3.8-20.9-9.7-29.6-17.2c-8.7-7.6-15.9-16.8-21.2-27.1
		c-5.3-10.2-8.7-21.5-9.9-33.1c-0.6-5.8-0.7-11.6-0.1-17.4c0.6-5.8,2-11.5,4.5-16.8c2.5-5.3,6-10,10.2-14c4.2-4,9-7.3,14-10.1
		c10-5.7,20.7-9.9,31.3-14.2c10.6-4.3,21.1-8.9,31.2-14.3c5.2-2.6,10.8-4.2,16.6-4.6c5.8-0.5,11.6,0.2,17.1,1.8
		c11.1,3.2,21,9.8,29.1,18c8.1,8.2,14.7,18,19.2,28.6C204.3,83.5,206.8,95,206.8,106.6 M206.7,106.6C206.7,95,204,83.6,199.4,73
		c-4.6-10.5-11.2-20.3-19.3-28.3c-8.1-8-18-14.5-29-17.5c-5.5-1.5-11.2-2.2-16.8-1.7c-5.6,0.4-11.2,2-16.3,4.5
		C108,35.4,97.4,40,86.8,44.3c-10.6,4.4-21.3,8.5-31.2,14.2c-4.9,2.8-9.7,6.1-13.9,10c-4.2,3.9-7.7,8.5-10.1,13.7
		c-2.5,5.2-3.9,10.8-4.6,16.5c-0.6,5.7-0.5,11.5,0,17.3c1.1,11.5,4.4,22.7,9.7,33c5.3,10.3,12.5,19.4,21.2,26.9
		c8.7,7.5,18.7,13.3,29.5,17c10.8,3.7,22.3,5.3,33.6,4.7c11.4-0.6,22.6-3.5,32.9-8.2c10.4-4.8,19.8-11.6,27.7-19.9
		c7.9-8.3,14.2-18.2,18.4-28.9C204.5,129.7,206.7,118.2,206.7,106.6"/>
	<path class="st2" d="M188.2,70.4c2.8,11.9,5.1,23.8,6.5,36c0.7,6.1,1.1,12.2,1,18.3c-0.1,6.1-0.6,12.2-2.1,18.2
		c-1.5,5.9-4.1,11.7-8.3,16.2c-4.1,4.6-9.6,7.8-15.3,9.9c-11.6,4.2-23.8,5.3-35.8,7.4c-3,0.5-6,1-9,1.6c-1.5,0.3-3,0.6-4.5,1
		l-4.5,0.9c-6,1.1-12.2,1.5-18.3,1.4c-12.2-0.3-24.4-3.2-35.4-8.4c-11.1-5.1-21.1-12.6-29.3-21.6c-8.2-9-14.6-19.8-18.5-31.3
		c-3.9-11.6-5.6-23.9-4.7-36.1c0.9-12.2,4.3-24.2,10-35.1c5.7-10.8,13.6-20.5,23-28.3c9.5-7.8,20.6-13.5,32.4-16.9
		c11.8-3.3,24.2-4.4,36.4-2.8c12.1,1.6,23.9,5.7,34.4,12c10.5,6.3,19.7,14.6,26.9,24.5C180.4,47.1,185.5,58.5,188.2,70.4
		 M188.1,70.4c-2.8-11.9-8-23.2-15.2-32.9c-7.2-9.8-16.5-18.1-27-24.2c-10.5-6.1-22.2-10.1-34.2-11.6c-12-1.5-24.4-0.6-36,2.7
		c-11.7,3.3-22.6,9-32,16.7c-9.4,7.7-17.2,17.3-22.8,28c-5.6,10.7-9.1,22.6-10.1,34.7c-1,12.1,0.6,24.4,4.5,35.9
		c3.9,11.5,10.1,22.2,18.3,31.3c8.1,9.1,18.2,16.3,29.2,21.4c11,5.1,23.1,7.9,35.3,8.1c6.1,0.1,12.2-0.4,18.1-1.4l4.5-0.9
		c1.5-0.3,3-0.7,4.5-1c3-0.6,6-1.2,9-1.7c6-1,12-1.9,18-2.9c6-1,12-2.3,17.7-4.4c5.7-2.1,11.1-5.1,15.1-9.6
		c4.1-4.4,6.7-10.1,8.3-15.9c1.5-5.9,2.1-12,2.2-18c0.1-6.1-0.3-12.2-0.9-18.2C193.1,94.3,190.8,82.3,188.1,70.4"/>
</g>
</svg>
