<?xml version="1.0" encoding="utf-8"?>
<!-- Generator: Adobe Illustrator 24.1.2, SVG Export Plug-In . SVG Version: 6.00 Build 0)  -->
<svg version="1.1" id="Слой_1" xmlns="http://www.w3.org/2000/svg" xmlns:xlink="http://www.w3.org/1999/xlink" x="0px" y="0px"
	 viewBox="0 0 60.1 191.3" style="enable-background:new 0 0 60.1 191.3;" xml:space="preserve">
<style type="text/css">
	.st0{fill:#F18665;}
	.st1{fill:#0C8290;}
	.st2{fill:#E1AB11;}
</style>
<g>
	<path class="st0" d="M21.9,49.6c-4.4,4.1-8.3,8.6-11.6,13.7c0,0,0,0,0,0c-0.1,0.4-0.2,0.9-0.3,1.3c0.2-0.4,0.5-0.8,0.7-1.1
		c3.2-5,7.2-9.5,11.5-13.6c8.6-8.2,18.8-14.7,29.1-20.5c2.9-1.6,5.9-3.2,8.9-4.8v-0.5C57,25.7,54,27.3,51,29
		C40.7,34.9,30.6,41.4,21.9,49.6z"/>
	<path class="st0" d="M12.4,149.4c-5.7-10.5-9.5-22.1-10.8-34c-1.4-11.9-1.5-24.1,1.7-35.7c1.3-4.5,3.1-8.9,5.4-13
		c0.1-0.5,0.2-0.9,0.3-1.4c-2.6,4.5-4.7,9.3-6.2,14.2c-3.3,11.6-3.3,24-1.9,35.9c1.4,12,5,23.8,10.8,34.3
		c5.8,10.5,13.8,19.9,23.2,27.4c7.6,6,16.1,10.8,25.2,14.2v-0.4c-9-3.4-17.4-8.2-24.9-14.2C25.9,169.2,18.1,159.9,12.4,149.4z"/>
	<path class="st1" d="M36.4,66.8c-3.7,4.5-6.6,9.6-8.4,15.1c-1.8,5.5-2.5,11.4-2.5,17.2c0.1,5.8,0.9,11.6,2.2,17.2
		c2.6,11.3,7.3,22.1,13.8,31.7c2.5,3.7,5.3,7.2,8.3,10.4c0.3,0.2,0.7,0.4,1,0.6c-3.3-3.5-6.3-7.2-9-11.2
		c-6.5-9.5-11.1-20.3-13.6-31.6c-1.2-5.6-2-11.4-2.1-17.1c0-5.7,0.7-11.5,2.5-17c1.8-5.4,4.7-10.5,8.4-14.8c3.7-4.4,8-8.2,12.6-11.6
		c3.4-2.5,6.9-4.8,10.5-7v-1.1c-3.7,2.3-7.4,4.7-11,7.3C44.5,58.4,40.1,62.3,36.4,66.8z"/>
	<path class="st1" d="M51.7,159.8c-0.3-0.2-0.7-0.4-1-0.6c2.9,3.1,6.1,6,9.4,8.7v-0.5C57.1,165.1,54.3,162.6,51.7,159.8z"/>
	<path class="st2" d="M13.2,50.3c-1.9,4.9-3.3,9.9-4.2,15.1c-0.1,0.5-0.2,0.9-0.3,1.4c-1.1,6.4-1.5,13-1.2,19.6
		c0.6,12.2,3.7,24.3,9,35.3c5.3,11,12.9,20.9,22.1,28.9c3.8,3.2,7.8,6.2,12,8.8c0.3,0.2,0.7,0.4,1,0.6c2.7,1.6,5.5,3.1,8.4,4.5v-0.4
		c-3.2-1.5-6.3-3.1-9.2-4.9c-0.3-0.2-0.7-0.4-1-0.6c-3.9-2.4-7.6-5.2-11-8.2c-9.2-8-16.7-17.9-21.9-28.8c-5.2-11-8.3-23-8.8-35.1
		C7.9,79,8.5,71.7,9.9,64.6c0.1-0.4,0.2-0.9,0.3-1.3c1-4.3,2.2-8.6,3.8-12.7c4.3-11.3,10.9-21.8,19.3-30.5C41,12.1,50.1,5.7,60.1,1
		V0C49.8,4.7,40.5,11.3,32.7,19.4C24.2,28.3,17.5,38.8,13.2,50.3z"/>
</g>
</svg>
