<?xml version="1.0" encoding="utf-8"?>
<!-- Generator: Adobe Illustrator 24.1.2, SVG Export Plug-In . SVG Version: 6.00 Build 0)  -->
<svg version="1.1" id="Слой_1" xmlns="http://www.w3.org/2000/svg" xmlns:xlink="http://www.w3.org/1999/xlink" x="0px" y="0px"
	 viewBox="0 0 84.8 154.5" style="enable-background:new 0 0 84.8 154.5;" xml:space="preserve">
<style type="text/css">
	.st0{fill:#F18665;}
	.st1{fill:#0C8290;}
	.st2{fill:#E1AB11;}
</style>
<g>
	<path class="st0" d="M35.2,134.7c-9.3-7.5-17.1-16.8-22.8-27.3C6.7,96.9,3,85.3,1.6,73.4C0.2,61.5,0.1,49.3,3.3,37.7
		c1.3-4.5,3.1-8.9,5.4-13c0.1-0.5,0.2-0.9,0.3-1.4c-2.6,4.5-4.7,9.3-6.2,14.2c-3.3,11.6-3.3,24-1.9,35.9c1.4,12,5,23.8,10.8,34.3
		c5.8,10.5,13.8,19.9,23.2,27.4c9.4,7.5,20.2,13,31.7,16.3c6,1.7,12.1,2.7,18.2,3.1v-0.2c-6.1-0.5-12.2-1.5-18.1-3.3
		C55.2,147.8,44.5,142.2,35.2,134.7z"/>
	<path class="st0" d="M10.3,21.2C10.2,21.2,10.2,21.2,10.3,21.2c-0.1,0.5-0.2,0.9-0.3,1.4c0.2-0.4,0.5-0.8,0.7-1.1
		c3.2-5,7.2-9.5,11.5-13.6C25.1,5,28.2,2.4,31.4,0h-0.5c-3.1,2.4-6.2,4.9-9,7.6C17.5,11.6,13.6,16.2,10.3,21.2z"/>
	<path class="st1" d="M51.7,117.8c-0.3-0.2-0.7-0.4-1-0.6c4.6,4.9,9.7,9.3,15.2,13c5.9,4,12.3,7.3,18.9,9.8v-0.6
		c-6.6-2.5-12.9-5.7-18.7-9.6C60.9,126.4,56,122.3,51.7,117.8z"/>
	<path class="st1" d="M36.4,24.7c-3.7,4.5-6.6,9.6-8.4,15.1c-1.8,5.5-2.5,11.4-2.5,17.2c0.1,5.8,0.9,11.6,2.2,17.2
		c2.6,11.3,7.3,22.1,13.8,31.7c2.5,3.7,5.3,7.2,8.3,10.4c0.3,0.2,0.7,0.4,1,0.6c-3.3-3.5-6.3-7.2-9-11.2
		c-6.5-9.5-11.1-20.3-13.6-31.6c-1.2-5.6-2-11.4-2.1-17.1c0-5.7,0.7-11.5,2.5-17c1.8-5.4,4.7-10.5,8.4-14.8c3.7-4.4,8-8.2,12.6-11.6
		c7-5.1,14.4-9.5,22-13.7h-1.8c-7.1,4-14.1,8.1-20.6,13C44.5,16.4,40.1,20.3,36.4,24.7z"/>
	<path class="st2" d="M9,23.3c-0.1,0.5-0.2,0.9-0.3,1.4c-1.1,6.4-1.5,13-1.2,19.6c0.6,12.2,3.7,24.3,9,35.3
		c5.3,11,12.9,20.9,22.1,28.9c3.8,3.2,7.8,6.2,12,8.8c0.3,0.2,0.7,0.4,1,0.6c5.9,3.5,12.1,6.4,18.6,8.5c4.7,1.5,9.6,2.7,14.5,3.4
		v-0.5c-4.9-0.7-9.7-1.8-14.4-3.3c-6.9-2.2-13.4-5.2-19.6-9c-0.3-0.2-0.7-0.4-1-0.6c-3.9-2.4-7.6-5.2-11-8.2
		c-9.2-8-16.7-17.9-21.9-28.8c-5.2-11-8.3-23-8.8-35.1C7.9,37,8.5,29.7,9.9,22.6c0.1-0.4,0.2-0.9,0.3-1.3c1-4.3,2.2-8.6,3.8-12.7
		c1.1-2.9,2.4-5.8,3.8-8.6h-1c-1.3,2.7-2.5,5.5-3.6,8.3C11.3,13.1,9.9,18.2,9,23.3z"/>
</g>
</svg>
