<?xml version="1.0" encoding="utf-8"?>
<!-- Generator: Adobe Illustrator 24.1.2, SVG Export Plug-In . SVG Version: 6.00 Build 0)  -->
<svg version="1.1" id="Слой_1" xmlns="http://www.w3.org/2000/svg" xmlns:xlink="http://www.w3.org/1999/xlink" x="0px" y="0px"
	 viewBox="0 0 28.6 28" style="enable-background:new 0 0 28.6 28;" xml:space="preserve">
<style type="text/css">
	.st0{fill-rule:evenodd;clip-rule:evenodd;fill:#3B5998;}
	.st1{fill:#FFFFFF;}
</style>
<g>
	<path class="st0" d="M3,0h22.6c1.7,0,3,1.3,3,3v22c0,1.7-1.3,3-3,3H3c-1.7,0-3-1.3-3-3V3C0,1.3,1.3,0,3,0z"/>
</g>
<path id="XMLID_1946_" class="st1" d="M12.1,23h3.6v-9.1h2.5l0.2-3h-2.7c0,0,0-1.1,0-1.8c0-0.7,0.1-1,0.8-1c0.6,0,1.9,0,1.9,0V5
	c0,0-2,0-2.5,0c-2.7,0-3.9,1.2-3.9,3.4c0,2,0,2.5,0,2.5h-1.9V14h1.9V23z"/>
</svg>
