<?xml version="1.0" encoding="utf-8"?>
<!-- Generator: Adobe Illustrator 24.1.2, SVG Export Plug-In . SVG Version: 6.00 Build 0)  -->
<svg version="1.1" id="Слой_1" xmlns="http://www.w3.org/2000/svg" xmlns:xlink="http://www.w3.org/1999/xlink" x="0px" y="0px"
	 viewBox="0 0 28.6 28" style="enable-background:new 0 0 28.6 28;" xml:space="preserve">
<style type="text/css">
	.st0{fill-rule:evenodd;clip-rule:evenodd;fill:#48729E;}
	.st1{fill:#FFFFFF;}
</style>
<g>
	<path class="st0" d="M3,0h22.6c1.7,0,3,1.3,3,3v22c0,1.7-1.3,3-3,3H3c-1.7,0-3-1.3-3-3V3C0,1.3,1.3,0,3,0z"/>
</g>
<path class="st1" d="M12.1,9.2c1,0,2,0,3,0h0c0.3,0,0.5,0.2,0.5,0.6c0,0.1,0,0.2,0,0.2c0,1,0,2,0,3c0,0.2,0,0.5,0.2,0.7
	c0.2,0.2,0.4,0.2,0.6,0.1c0,0,0.1-0.1,0.2-0.1c0.3-0.3,0.6-0.6,0.8-1c0.6-0.8,1-1.7,1.4-2.7c0.1-0.3,0.3-0.4,0.7-0.4
	c0.8,0,1.7,0,2.5,0c0.1,0,0.3,0,0.4,0c0.2,0,0.4,0.1,0.5,0.4c0,0,0,0.1,0,0.1c0,0.1,0,0.1,0,0.2c-0.1,0.4-0.4,0.9-0.6,1.3
	c-0.5,0.7-1.1,1.4-1.6,2.1c-0.2,0.2-0.3,0.4-0.4,0.6c-0.2,0.3-0.1,0.5,0.1,0.8c0.1,0.1,0.2,0.2,0.4,0.4c0.4,0.4,0.8,0.7,1.1,1.1
	c0.4,0.4,0.8,0.8,1,1.3c0,0.1,0.1,0.2,0.1,0.3c0.1,0.4-0.2,0.7-0.6,0.7c-0.8,0-1.5,0-2.3,0c-0.2,0-0.3,0-0.5,0
	c-0.4-0.1-0.8-0.3-1.2-0.6c-0.4-0.4-0.7-0.8-1.1-1.1c-0.2-0.2-0.3-0.3-0.5-0.4c-0.3-0.2-0.5-0.1-0.7,0.2c-0.1,0.2-0.2,0.3-0.2,0.5
	c0,0.3-0.1,0.6-0.1,0.9c0,0.4-0.2,0.6-0.6,0.6c-0.4,0-0.9,0-1.4,0c-1.1-0.1-2.1-0.4-3-1.1c-0.8-0.4-1.4-1.1-1.9-1.8
	c-1.3-1.8-2.4-3.8-3.3-5.9c0,0,0-0.1,0-0.2c0-0.2,0.2-0.2,0.4-0.3c0,0,0.1,0,0.2,0c0.8,0,1.6,0,2.4,0c0.1,0,0.2,0,0.2,0
	C9.1,9.6,9.3,9.8,9.4,10c0.4,1.1,1,2.1,1.7,3.1c0.1,0.2,0.3,0.4,0.4,0.5c0.1,0.1,0.2,0.2,0.3,0.2c0.2,0.1,0.3,0,0.4-0.1
	c0-0.1,0.1-0.2,0.1-0.3c0.1-0.3,0.1-0.5,0.1-0.8c0-0.7,0-1.3-0.1-2c0-0.4-0.2-0.6-0.6-0.8c-0.1,0-0.2,0-0.3-0.1
	c-0.2,0-0.2-0.1-0.1-0.2C11.6,9.4,11.8,9.2,12.1,9.2z"/>
</svg>
