<?xml version="1.0" encoding="utf-8"?>
<!-- Generator: Adobe Illustrator 24.1.2, SVG Export Plug-In . SVG Version: 6.00 Build 0)  -->
<svg version="1.1" id="Слой_1" xmlns="http://www.w3.org/2000/svg" xmlns:xlink="http://www.w3.org/1999/xlink" x="0px" y="0px"
	 viewBox="0 0 28.6 28" style="enable-background:new 0 0 28.6 28;" xml:space="preserve">
<style type="text/css">
	.st0{fill-rule:evenodd;clip-rule:evenodd;fill:#00ACED;}
	.st1{fill:#FFFFFF;}
</style>
<g>
	<path class="st0" d="M3,0h22.6c1.7,0,3,1.3,3,3v22c0,1.7-1.3,3-3,3H3c-1.7,0-3-1.3-3-3V3C0,1.3,1.3,0,3,0z"/>
</g>
<g>
	<path class="st1" d="M17.6,7.9c0,0,0.1,0,0.2,0h0c0.1,0,0.3,0,0.5,0c0.4,0.1,0.8,0.2,1.1,0.5c0.2,0.1,0.3,0.2,0.5,0.4
		c0,0,0,0,0.1,0c0.4-0.1,0.8-0.2,1.2-0.4c0.2-0.1,0.4-0.2,0.6-0.3c0,0,0,0,0,0c0,0.1,0,0.2-0.1,0.3c0,0.1-0.1,0.2-0.1,0.2
		c-0.1,0-0.1,0.1-0.2,0.2c0,0.1-0.1,0.1-0.2,0.2c0,0.1-0.1,0.1-0.2,0.2c0,0-0.1,0.1-0.2,0.2c0,0-0.1,0.1-0.2,0.2s-0.1,0.1-0.2,0.1
		c0,0,0,0,0,0c0,0,0.1,0,0.1,0c0.4,0,0.7-0.1,1.1-0.3c0.1,0,0.3-0.1,0.4-0.2c0,0,0,0,0,0c0,0,0,0,0,0c0,0.1-0.1,0.1-0.2,0.2
		c-0.3,0.4-0.7,0.8-1.1,1.1c0,0-0.1,0.1-0.1,0.1c0,0,0,0,0,0.1v0c0,0.3,0,0.6,0,0.9c0,0.2,0,0.5-0.1,0.6c0,0.3-0.1,0.6-0.2,1
		c-0.2,0.6-0.4,1.3-0.7,1.9c-0.3,0.6-0.7,1.2-1.2,1.7c-0.4,0.4-0.7,0.8-1.1,1.1c-0.4,0.3-0.7,0.5-1.1,0.8c-0.5,0.3-1.1,0.5-1.6,0.7
		c-0.5,0.1-1,0.2-1.5,0.3c-0.2,0-0.4,0-0.5,0c-0.2,0-0.4,0-0.5,0s-0.3,0-0.5,0s-0.4,0-0.5,0c-0.2,0-0.5,0-0.7-0.1
		c-0.6-0.1-1.1-0.3-1.7-0.5c-0.4-0.2-0.8-0.4-1.2-0.6c0,0,0,0,0,0l0,0h0c0.1,0,0.2,0,0.4,0c0.1,0,0.3,0,0.5,0c0.2,0,0.4,0,0.5,0
		c0.2,0,0.5-0.1,0.7-0.1c0.4-0.1,0.8-0.2,1.2-0.4c0.5-0.1,0.9-0.4,1.2-0.6c0,0,0,0,0,0h0c-0.1,0-0.3,0-0.4,0c-0.3,0-0.7-0.2-1-0.3
		c-0.5-0.2-0.8-0.6-1.1-1c-0.1-0.2-0.3-0.5-0.4-0.7c0,0,0,0,0,0c0,0,0,0,0,0c0.1,0,0.1,0,0.2,0c0.1,0,0.2,0,0.4,0c0.1,0,0.2,0,0.3,0
		c0.1,0,0.2,0,0.4,0c0,0,0,0,0,0l0,0h0c-0.3,0-0.6-0.2-0.9-0.3c-0.3-0.2-0.6-0.4-0.8-0.7C8.3,13.8,8.2,13.4,8,13
		c0-0.2-0.1-0.5-0.1-0.7c0,0,0,0,0,0l0,0c0.1,0.1,0.3,0.1,0.5,0.2c0.2,0,0.4,0.1,0.6,0.1c0.1,0,0.1,0,0.2,0c0,0,0,0,0,0c0,0,0,0,0,0
		c-0.4-0.2-0.6-0.5-0.9-0.9C8,11,7.9,10.3,7.9,9.6c0-0.4,0.2-0.8,0.4-1.1c0,0,0,0,0,0c0.3,0.4,0.6,0.7,1,1c0.3,0.3,0.7,0.5,1.1,0.8
		c0.4,0.3,0.9,0.5,1.3,0.7c0.5,0.2,1.1,0.4,1.6,0.5c0.2,0.1,0.5,0.1,0.7,0.2c0.1,0,0.2,0,0.4,0c0.1,0,0.2,0,0.3,0c0,0,0,0,0,0l0,0
		c0-0.3-0.1-0.5,0-0.8c0-0.1,0-0.3,0-0.5c0.2-0.8,0.5-1.4,1.2-1.9C16.4,8.2,17,8,17.6,7.9C17.6,7.9,17.6,7.9,17.6,7.9z"/>
</g>
</svg>
