<?xml version="1.0" encoding="utf-8"?>
<!-- Generator: Adobe Illustrator 24.1.2, SVG Export Plug-In . SVG Version: 6.00 Build 0)  -->
<svg version="1.1" id="Слой_1" xmlns="http://www.w3.org/2000/svg" xmlns:xlink="http://www.w3.org/1999/xlink" x="0px" y="0px"
	 viewBox="0 0 28.6 28" style="enable-background:new 0 0 28.6 28;" xml:space="preserve">
<style type="text/css">
	.st0{fill-rule:evenodd;clip-rule:evenodd;fill:#EB722E;}
	.st1{fill:#FFFFFF;}
</style>
<g>
	<path class="st0" d="M3,0h22.6c1.7,0,3,1.3,3,3v22c0,1.7-1.3,3-3,3H3c-1.7,0-3-1.3-3-3V3C0,1.3,1.3,0,3,0z"/>
</g>
<g>
	<path class="st1" d="M15.9,17.5C15.9,17.5,15.9,17.5,15.9,17.5c0.7,0.7,1.4,1.5,2.2,2.2c0.2,0.2,0.3,0.4,0.4,0.6
		c0.1,0.5-0.3,1.2-0.8,1.4c-0.5,0.1-0.8,0-1.1-0.3l-0.1-0.1c-0.6-0.6-1.4-1.4-2-2.1l-0.1-0.1c0,0-0.1,0-0.1,0.1
		c-0.7,0.7-1.4,1.4-2.1,2.1c-0.2,0.2-0.4,0.3-0.6,0.4c-0.6,0.2-1.3-0.3-1.4-0.9c-0.1-0.5,0-0.7,0.4-1.1c0.7-0.7,1.4-1.4,2.1-2.1
		c0,0,0,0,0.1-0.1l0,0c-0.7-0.2-1.4-0.5-2.2-1c-0.4-0.3-0.6-0.5-0.7-0.8c-0.2-0.7,0.3-1.4,0.9-1.4c0.4,0,0.6,0,0.9,0.2
		c0.4,0.3,0.8,0.5,1.3,0.6c0.5,0.2,1,0.2,1.5,0.2c0.9,0,1.7-0.3,2.5-0.7c0.2-0.1,0.4-0.2,0.6-0.2c0.5,0,0.8,0.3,1.1,0.7
		c0.3,0.5,0,1.2-0.5,1.4c-0.5,0.3-0.9,0.5-1.5,0.7C16.5,17.4,16.2,17.4,15.9,17.5L15.9,17.5z"/>
	<path class="st1" d="M10.4,10.1c0-2.1,1.9-3.9,4.1-3.9c2.2,0,3.9,1.9,3.9,4.1s-1.9,3.9-4.1,3.9S10.3,12.3,10.4,10.1z M14.4,11.8
		c0.9,0,1.7-0.7,1.7-1.6c0-0.9-0.7-1.7-1.6-1.7c-0.8,0.1-1.7,0.7-1.7,1.6C12.8,11.2,13.6,11.8,14.4,11.8z"/>
</g>
</svg>
