<?xml version="1.0" encoding="utf-8"?>
<!-- Generator: Adobe Illustrator 22.0.0, SVG Export Plug-In . SVG Version: 6.00 Build 0)  -->
<svg version="1.1" id="Layer_1" xmlns="http://www.w3.org/2000/svg" xmlns:xlink="http://www.w3.org/1999/xlink" x="0px" y="0px"
	 viewBox="0 0 496.2 496.2" style="enable-background:new 0 0 496.2 496.2;" xml:space="preserve">
<style type="text/css">
	.st0{fill:#A3A3A3;}
</style>
<path class="st0" d="M248.1,28c29.7,0,58.5,5.8,85.7,17.3c26.2,11.1,49.7,27,70,47.2c20.2,20.2,36.1,43.8,47.2,70
	c11.5,27.1,17.3,55.9,17.3,85.7c0,29.7-5.8,58.5-17.3,85.7c-11.1,26.2-27,49.7-47.2,70c-20.2,20.2-43.8,36.1-70,47.2
	c-27.1,11.5-55.9,17.3-85.7,17.3c-29.7,0-58.5-5.8-85.7-17.3c-26.2-11.1-49.7-27-70-47.2c-20.2-20.2-36.1-43.8-47.2-70
	C33.8,306.6,28,277.8,28,248.1s5.8-58.5,17.3-85.7c11.1-26.2,27-49.7,47.2-70c20.2-20.2,43.8-36.1,70-47.2
	C189.5,33.8,218.4,28,248.1,28 M248.1,0C111.1,0,0,111.1,0,248.1s111.1,248.1,248.1,248.1s248.1-111.1,248.1-248.1S385.1,0,248.1,0
	L248.1,0z M310,350.9c-1.3-1.9-3.7-2.5-5.8-1.6c-22.7,10.7-48.4,22.1-53.4,23.1c-0.1-0.1-0.3-0.3-0.6-0.7c-0.7-0.9-1-2.1-1-3.7
	c0-12.8,9.7-51.8,28.8-115.9c16.1-53.9,18-65,18-68.7c0-5.7-2.2-10.5-6.3-14c-3.9-3.2-9.4-4.9-16.3-4.9c-11.5,0-24.8,4.4-40.7,13.3
	c-15.4,8.7-32.6,23.4-51.1,43.8c-1.4,1.6-1.6,4-0.4,5.7c1.2,1.8,3.5,2.4,5.5,1.6c6.5-2.6,39.1-16,43.9-19c3.9-2.4,7.3-3.7,10-3.7
	c0.1,0,0.2,0,0.3,0c0,0.2,0.1,0.5,0.1,0.9c0,2.8-0.6,6.1-1.7,9.9C211.5,307,198,362.2,198,385.8c0,8.3,2.3,15,6.9,19.9
	c4.6,5,10.9,7.5,18.6,7.5c8.2,0,18.2-3.4,30.5-10.5c11.9-6.8,30.1-21.8,55.7-45.8C311,355.3,311.3,352.8,310,350.9z M309.1,90
	c-4.5-4.6-10.4-7-17.3-7c-8.6,0-16.1,3.4-22.3,10.1c-6.1,6.6-9.2,14.7-9.2,24.1c0,7.4,2.3,13.5,6.8,18.2c4.5,4.8,10.3,7.2,17,7.2
	c8.3,0,15.7-3.6,22.2-10.7c6.3-7,9.6-15.2,9.6-24.3C315.9,100.5,313.6,94.6,309.1,90z"/>
</svg>
