<?xml version="1.0" encoding="utf-8"?>
<!-- Generator: Adobe Illustrator 22.0.0, SVG Export Plug-In . SVG Version: 6.00 Build 0)  -->
<svg version="1.1" id="inst" xmlns="http://www.w3.org/2000/svg" xmlns:xlink="http://www.w3.org/1999/xlink" x="0px" y="0px"
	 viewBox="0 0 24.5 24.5" style="enable-background:new 0 0 24.5 24.5;" xml:space="preserve">
<style type="text/css">
	.st0{fill:#A3A3A3;}
</style>
<g>
	<circle class="st0" cx="12.3" cy="12.3" r="4.9"/>
	<path class="st0" d="M22.8,22.8c0.6-0.6,0.9-1,1.1-1.7c0.1-0.5,0.3-1.3,0.5-2.7c0.1-1.6,0.1-2.1,0.1-6.1s0-4.5-0.1-6.1
		c0-1.5-0.2-2.2-0.5-2.7c-0.3-0.7-0.6-1.1-1.1-1.7c-0.6-0.6-1-0.9-1.7-1.1c-0.5-0.1-1.3-0.3-2.7-0.5C16.7,0,16.3,0,12.3,0
		c-4,0-4.5,0.1-6.1,0.1C4.7,0.1,4,0.3,3.4,0.6C2.7,0.9,2.3,1.1,1.7,1.7c-0.6,0.6-0.9,1-1.1,1.7C0.5,3.9,0.2,4.7,0.1,6.2
		C0,7.8,0,8.2,0,12.3s0,4.5,0.1,6.1c0,1.5,0.2,2.2,0.5,2.7c0.3,0.7,0.6,1.1,1.1,1.7c0.6,0.6,1,0.9,1.7,1.1c0.5,0.1,1.3,0.3,2.7,0.5
		c1.6,0.1,2.1,0.1,6.1,0.1c4,0,4.5,0,6.1-0.1c1.5,0,2.2-0.2,2.7-0.5C21.8,23.6,22.2,23.4,22.8,22.8z M12.3,19.9
		c-4.2,0-7.7-3.4-7.7-7.7S8,4.6,12.3,4.6c4.2,0,7.7,3.4,7.7,7.7S16.5,19.9,12.3,19.9z M18.3,4.4c0-1,0.8-1.8,1.8-1.8S22,3.3,22,4.4
		c0,1-0.8,1.8-1.8,1.8S18.3,5.4,18.3,4.4z"/>
</g>
</svg>
