<?xml version="1.0" encoding="utf-8"?>
<!-- Generator: Adobe Illustrator 24.1.2, SVG Export Plug-In . SVG Version: 6.00 Build 0)  -->
<svg version="1.1" id="inst" xmlns="http://www.w3.org/2000/svg" xmlns:xlink="http://www.w3.org/1999/xlink" x="0px" y="0px"
	 viewBox="0 0 26 26" style="enable-background:new 0 0 26 26;" xml:space="preserve">
<style type="text/css">
	.st0{fill:#0C8290;}
</style>
<g id="XMLID_2392_">
	<g id="XMLID_2393_">
		<path id="XMLID_2398_" class="st0" d="M13,2.3c3.5,0,3.9,0,5.3,0.1c1.3,0.1,2,0.3,2.4,0.4c0.6,0.2,1,0.5,1.5,1s0.7,0.9,1,1.5
			c0.2,0.5,0.4,1.1,0.4,2.4c0.1,1.4,0.1,1.8,0.1,5.3s0,3.9-0.1,5.3c-0.1,1.3-0.3,2-0.4,2.4c-0.2,0.6-0.5,1-1,1.5s-0.9,0.7-1.5,1
			c-0.5,0.2-1.1,0.4-2.4,0.4c-1.4,0.1-1.8,0.1-5.3,0.1s-3.9,0-5.3-0.1c-1.3-0.1-2-0.3-2.4-0.4c-0.6-0.2-1-0.5-1.5-1s-0.7-0.9-1-1.5
			c-0.2-0.5-0.4-1.1-0.4-2.4c-0.1-1.4-0.1-1.8-0.1-5.3s0-3.9,0.1-5.3c0.1-1.3,0.3-2,0.4-2.4c0.2-0.6,0.5-1,1-1.5s0.9-0.7,1.5-1
			c0.5-0.2,1.1-0.4,2.4-0.4C9.1,2.4,9.5,2.3,13,2.3 M13,0C9.5,0,9,0,7.6,0.1c-1.3,0-2.3,0.3-3.1,0.6C3.6,1,2.9,1.5,2.2,2.2
			S1,3.6,0.7,4.5C0.4,5.3,0.1,6.3,0.1,7.6C0,9,0,9.5,0,13s0,4,0.1,5.4s0.3,2.3,0.6,3.2c0.3,0.9,0.8,1.6,1.5,2.3
			c0.7,0.7,1.4,1.2,2.3,1.5c0.8,0.3,1.8,0.5,3.2,0.6c1.3,0,1.8,0,5.3,0s4,0,5.4-0.1s2.3-0.3,3.2-0.6c0.9-0.3,1.6-0.8,2.3-1.5
			c0.7-0.7,1.2-1.4,1.5-2.3c0.3-0.8,0.5-1.8,0.6-3.2c0-1.3,0-1.8,0-5.3s0-4-0.1-5.4s-0.3-2.3-0.6-3.2s-0.8-1.6-1.5-2.3
			s-1.4-1.2-2.3-1.5c-0.8-0.3-1.8-0.5-3.2-0.6C17,0,16.5,0,13,0"/>
		<path id="XMLID_2395_" class="st0" d="M13,6.3c-3.7,0-6.7,3-6.7,6.7s3,6.7,6.7,6.7s6.7-3,6.7-6.7S16.7,6.3,13,6.3 M13,17.3
			c-2.4,0-4.3-1.9-4.3-4.3s1.9-4.3,4.3-4.3s4.3,1.9,4.3,4.3S15.4,17.3,13,17.3"/>
		<path id="XMLID_2394_" class="st0" d="M21.5,6.1c0,0.9-0.7,1.6-1.6,1.6S18.3,7,18.3,6.1s0.7-1.6,1.6-1.6S21.5,5.2,21.5,6.1"/>
	</g>
</g>
</svg>
