<?xml version="1.0" encoding="utf-8"?>
<!-- Generator: Adobe Illustrator 24.1.2, SVG Export Plug-In . SVG Version: 6.00 Build 0)  -->
<svg version="1.1" id="Слой_1" xmlns="http://www.w3.org/2000/svg" xmlns:xlink="http://www.w3.org/1999/xlink" x="0px" y="0px"
	 viewBox="0 0 395.4 364" style="enable-background:new 0 0 395.4 364;" xml:space="preserve">
<style type="text/css">
	.st0{fill:#0C8290;}
</style>
<g>
	<g>
		<path class="st0" d="M197.6,312.6h-0.1c-0.6,0-1.3-0.2-1.9-0.4c-0.6-0.3-1.1-0.6-1.6-1.1c-0.1-0.1-0.2-0.3-0.4-0.4
			c-1.4-1.8-24.7-31-47.6-70.4C114.2,185.6,98.1,138.4,98.1,100c0-45.3,23.3-69.6,42.8-82.1C163.1,3.7,187.7,0,197.6,0
			c15.7,0,39.6,4.7,59.5,18c26.2,17.4,40,45.8,40,82c0,38.4-16.1,85.6-47.9,140.3c-22.9,39.3-46.1,68.5-47.6,70.4
			c-0.1,0.2-0.3,0.3-0.4,0.5c-0.4,0.4-0.9,0.7-1.4,1C199.1,312.5,198.3,312.6,197.6,312.6z M197.6,10c-7.2,0-30.3,2.9-51.3,16.3
			C121,42.4,108.1,67.2,108.1,100c0,77.3,71.8,176.3,89.5,199.5c17.7-23.2,89.5-122.3,89.5-199.5C287.1,11,201.2,10,197.6,10z"/>
		<path class="st0" d="M181.4,157.3h-0.1c-1.5,0-3-0.8-3.9-2L142.1,108c-1.7-2.2-1.2-5.3,1-7c2.2-1.7,5.3-1.2,7,1l31.5,42.3
			l63.9-76.5c1.8-2.1,4.9-2.4,7-0.6c2.1,1.8,2.4,4.9,0.6,7l-68,81.3C184.3,156.6,182.9,157.3,181.4,157.3z"/>
	</g>
	<path class="st0" d="M197.6,363.9L197.6,363.9c-0.1,0-0.1,0-0.1,0c-1.6,0-49.5-1.2-96.9-8C32.9,346.2,0,330.4,0,307.5
		c0-14.2,18.6-26.7,55.2-37.1c27.4-7.8,58.4-12.5,72.5-12.5c2.8,0,5,2.2,5,5s-2.2,5-5,5c-13.1,0-43.5,4.6-69.7,12.1
		c-35.3,10.1-47.9,20.8-47.9,27.5c0,16,33.5,30.1,92,38.5c46.2,6.6,93.1,7.8,95.6,7.9c2.5-0.1,49.4-1.2,95.7-7.9
		c58.4-8.4,91.9-22.4,91.9-38.4c0-6.7-12.6-17.4-47.9-27.5c-26.2-7.5-56.6-12.1-69.7-12.1c-2.8,0-5-2.2-5-5s2.2-5,5-5
		c14.1,0,45.1,4.7,72.5,12.5c36.6,10.5,55.2,23,55.2,37.1c0,22.8-32.9,38.6-100.6,48.4c-47.3,6.8-95.3,7.9-96.9,8
		C197.7,363.9,197.6,363.9,197.6,363.9z"/>
</g>
</svg>
