<?xml version="1.0" encoding="utf-8"?>
<!-- Generator: Adobe Illustrator 24.1.2, SVG Export Plug-In . SVG Version: 6.00 Build 0)  -->
<svg version="1.1" id="Capa_1" xmlns="http://www.w3.org/2000/svg" xmlns:xlink="http://www.w3.org/1999/xlink" x="0px" y="0px"
	 viewBox="0 0 188.2 188.2" style="enable-background:new 0 0 188.2 188.2;" xml:space="preserve">
<style type="text/css">
	.st0{fill:#0C8290;}
</style>
<g>
	<path class="st0" d="M168.8,48H19.4c-1.9,0-3.5-1.6-3.5-3.5s1.6-3.5,3.5-3.5h149.4c1.9,0,3.5,1.6,3.5,3.5S170.7,48,168.8,48z"/>
	<path class="st0" d="M168.8,81.2H19.4c-1.9,0-3.5-1.6-3.5-3.5s1.6-3.5,3.5-3.5h149.4c1.9,0,3.5,1.6,3.5,3.5S170.7,81.2,168.8,81.2z
		"/>
	<path class="st0" d="M168.8,114.5H19.4c-1.9,0-3.5-1.6-3.5-3.5s1.6-3.5,3.5-3.5h149.4c1.9,0,3.5,1.6,3.5,3.5
		S170.7,114.5,168.8,114.5z"/>
	<path class="st0" d="M168.8,147.7H19.4c-1.9,0-3.5-1.6-3.5-3.5s1.6-3.5,3.5-3.5h149.4c1.9,0,3.5,1.6,3.5,3.5
		S170.7,147.7,168.8,147.7z"/>
</g>
</svg>
