<?xml version="1.0" encoding="utf-8"?>
<!-- Generator: Adobe Illustrator 22.0.0, SVG Export Plug-In . SVG Version: 6.00 Build 0)  -->
<svg version="1.1" id="Слой_1" xmlns="http://www.w3.org/2000/svg" xmlns:xlink="http://www.w3.org/1999/xlink" x="0px" y="0px"
	 viewBox="0 0 609.9 609.9" style="enable-background:new 0 0 609.9 609.9;" xml:space="preserve">
<style type="text/css">
	.st0{fill:#FFFFFF;}
</style>
<g>
	<path class="st0" d="M274,238.8h-35.3c-20.5,0-32.4-15.1-42.9-28.5c-9.8-12.5-18.3-23.2-32.1-23.2H130c-2.8,0-5-2.2-5-5s2.2-5,5-5
		h33.7c18.6,0,29.4,13.7,39.9,27c10,12.7,19.4,24.7,35.1,24.7H274c2.8,0,5,2.2,5,5S276.8,238.8,274,238.8z"/>
	<path class="st0" d="M150,443.8h-20c-2.8,0-5-2.2-5-5s2.2-5,5-5h20c13.8,0,25.9-15,38.7-31c14.5-18,29.4-36.6,49.9-36.6H274
		c2.8,0,5,2.2,5,5s-2.2,5-5,5h-35.3c-15.7,0-29.1,16.7-42.1,32.9C182.8,426.2,168.6,443.8,150,443.8z"/>
	<path class="st0" d="M212.4,271.3h-11.9c-10.2,0-17.4-9.5-24.2-18.7c-7.1-9.5-14.5-19.3-24.6-19.3H130c-2.8,0-5-2.2-5-5s2.2-5,5-5
		h21.7c15.1,0,24.4,12.4,32.6,23.3c5.7,7.6,11,14.7,16.2,14.7h11.9c2.8,0,5,2.2,5,5S215.2,271.3,212.4,271.3z"/>
	<path class="st0" d="M256,203.3c-1.3,0-2.5-0.5-3.5-1.4c-2-1.9-2-5.1-0.1-7.1c1.4-1.4,34.1-34.2,95.2-34.2
		c14.4,0,25.9,4.1,26.4,4.3c2.6,0.9,3.9,3.8,3,6.4c-0.9,2.6-3.8,3.9-6.4,3c-0.1,0-10.4-3.7-23-3.7c-56.7,0-87.8,30.9-88.1,31.2
		C258.6,202.8,257.3,203.3,256,203.3z"/>
	<path class="st0" d="M340.2,476.4c-0.1,0-0.1,0-0.2,0c-0.6,0-14.6-0.5-27.1-2.6c-55.6-9-78.3-42.4-79.3-43.8
		c-1.5-2.3-0.9-5.4,1.4-6.9c2.3-1.5,5.4-0.9,6.9,1.4c0.3,0.5,21.6,31.2,72.5,39.5c12,1.9,25.7,2.4,25.9,2.4c2.8,0.1,4.9,2.4,4.8,5.2
		C345.1,474.3,342.9,476.4,340.2,476.4z"/>
	<path class="st0" d="M399.7,435c-2.1,0-4.1-1.3-4.8-3.5c-0.9-2.6,0.6-5.4,3.2-6.3l0,0c0.2-0.1,21.3-7.1,42-25.8
		c27.2-24.6,41.2-56.8,41.5-95.8c-0.3-39-14.3-71.3-41.5-95.8c-20.7-18.7-41.8-25.7-42-25.8c-2.6-0.9-4.1-3.7-3.2-6.3
		s3.7-4.1,6.3-3.2c0.9,0.3,23,7.6,45.3,27.6c20.2,18.1,44.2,50.3,45.1,101.7c0,0.2,0,0.4,0,0.5c0,0.4,0,0.9,0,1.3c0,0.4,0,0.9,0,1.3
		c0,0.2,0,0.4,0,0.5c-1,51.4-24.9,83.6-45.1,101.7c-22.3,20-44.4,27.3-45.3,27.6C400.7,434.9,400.2,435,399.7,435z"/>
	<path class="st0" d="M523.3,293.9c-2.8,0-5-2.2-5-5c0-82.4-65.1-126.5-93-141.6c-19.2-10.4-38.3-12.7-38.5-12.8
		c-2.7-0.3-4.7-2.8-4.4-5.5c0.3-2.7,2.8-4.7,5.5-4.4c0.9,0.1,21.2,2.6,42.1,13.9c16.3,8.8,40,24.3,60,47.9
		c25.4,29.8,38.2,64.3,38.2,102.5C528.3,291.7,526.1,293.9,523.3,293.9z"/>
	<path class="st0" d="M446.8,459.3c-1.7,0-3.4-0.9-4.3-2.5c-1.4-2.4-0.6-5.4,1.8-6.8c53-30.9,66-78.8,66.1-79.3
		c0.7-2.7,3.4-4.3,6.1-3.6c2.7,0.7,4.3,3.4,3.6,6.1c-0.6,2.1-14.2,52.4-70.7,85.4C448.5,459.1,447.6,459.3,446.8,459.3z"/>
	<path class="st0" d="M140.2,384.4H130c-2.8,0-5-2.2-5-5s2.2-5,5-5h10.2c14.9,0,22.9-10.3,30.6-20.3c6.7-8.6,13.6-17.6,24.5-17.6
		H354c2.8,0,5,2.2,5,5v15l68.8-52.6L359,251.2v15c0,2.8-2.2,5-5,5h-96.5c-2.8,0-5-2.2-5-5s2.2-5,5-5H349v-20.2
		c0-1.9,1.1-3.6,2.8-4.5c1.7-0.8,3.7-0.6,5.3,0.5l81.9,62.7c0.2,0.2,0.4,0.3,0.6,0.5c0.4,0.4,0.7,0.9,1,1.4c0.3,0.7,0.5,1.4,0.5,2.1
		c0,0,0,0,0,0c0,0.7-0.2,1.5-0.5,2.1c-0.2,0.5-0.6,1-1,1.4c-0.2,0.2-0.4,0.4-0.6,0.5L357,370.6c-1.5,1.2-3.5,1.4-5.3,0.5
		c-1.7-0.8-2.8-2.6-2.8-4.5v-20.2H195.3c-5.8,0-10.1,5.2-16.6,13.7C170.4,370.9,160,384.4,140.2,384.4z"/>
	<path class="st0" d="M279.7,308.9H130c-2.8,0-5-2.2-5-5c0-2.8,2.2-5,5-5h149.7c2.8,0,5,2.2,5,5
		C284.7,306.6,282.4,308.9,279.7,308.9z"/>
	<path class="st0" d="M333.3,308.9h-32.9c-2.8,0-5-2.2-5-5c0-2.8,2.2-5,5-5h32.9c2.8,0,5,2.2,5,5
		C338.3,306.6,336.1,308.9,333.3,308.9z"/>
</g>
</svg>
