<?xml version="1.0" encoding="utf-8"?>
<!-- Generator: Adobe Illustrator 24.1.2, SVG Export Plug-In . SVG Version: 6.00 Build 0)  -->
<svg version="1.1" id="Слой_1" xmlns="http://www.w3.org/2000/svg" xmlns:xlink="http://www.w3.org/1999/xlink" x="0px" y="0px"
	 viewBox="0 0 168.2 181.3" style="enable-background:new 0 0 168.2 181.3;" xml:space="preserve">
<style type="text/css">
	.st0{fill:#0C8290;}
</style>
<g>
	<g>
		<path class="st0" d="M84.1,181.3c-0.1,0-0.1,0-0.2,0c-0.8,0-1.5-0.2-2.2-0.8c-2.5-2-61.9-49.5-61.9-103.1
			c0-25.9,12.8-41.2,23.5-49.5c13.8-10.6,30-14.4,40.6-14.4H84h0.1c10.7,0,26.8,3.9,40.5,14.4c10.7,8.3,23.5,23.6,23.5,49.5
			c0,53.6-59.3,101.1-61.9,103.1C85.7,181,84.9,181.3,84.1,181.3z M84.1,20.5c-18.7,0-57.1,14-57.1,56.9c0,44.7,46.6,86.9,57.1,95.9
			c10.5-9,57.1-51.1,57.1-95.9C141.2,34.5,102.8,20.5,84.1,20.5z"/>
		<path class="st0" d="M84.1,112.6c-19.4,0-35.2-15.8-35.2-35.2s15.8-35.2,35.2-35.2s35.2,15.8,35.2,35.2S103.4,112.6,84.1,112.6z
			 M84.1,49.3c-15.6,0-28.2,12.6-28.2,28.1s12.6,28.2,28.2,28.2c15.5,0,28.2-12.6,28.2-28.2C112.2,61.9,99.6,49.3,84.1,49.3z"/>
	</g>
	<g>
		<path class="st0" d="M164.5,82.8c-0.1,0-0.1,0-0.2,0c-1.9-0.1-3.4-1.8-3.3-3.7c3.4-55.2-43-72.1-43.5-72.3
			c-1.8-0.6-2.8-2.6-2.1-4.5c0.6-1.8,2.6-2.8,4.5-2.1c0.5,0.2,13.2,4.7,25.5,16.8c11.4,11.1,24.5,31,22.6,62.6
			C167.8,81.4,166.3,82.8,164.5,82.8z"/>
		<path class="st0" d="M3.7,82.8c-1.8,0-3.4-1.4-3.5-3.3C-1.8,48,11.4,28.1,22.8,17C35.1,5,47.8,0.4,48.4,0.2
			c1.8-0.6,3.8,0.3,4.5,2.1c0.6,1.8-0.3,3.8-2.1,4.5l0,0c-0.1,0-12,4.3-23.2,15.4C12.6,36.9,5.7,56,7.2,79.1
			c0.1,1.9-1.3,3.6-3.3,3.7C3.8,82.8,3.7,82.8,3.7,82.8z"/>
	</g>
</g>
</svg>
