<?xml version="1.0" encoding="utf-8"?>
<!-- Generator: Adobe Illustrator 22.0.0, SVG Export Plug-In . SVG Version: 6.00 Build 0)  -->
<svg version="1.1" id="Слой_1" xmlns="http://www.w3.org/2000/svg" xmlns:xlink="http://www.w3.org/1999/xlink" x="0px" y="0px"
	 viewBox="0 0 609.9 609.9" style="enable-background:new 0 0 609.9 609.9;" xml:space="preserve">
<style type="text/css">
	.st0{fill:#FFFFFF;}
</style>
<g>
	<g>
		<path class="st0" d="M296.1,480c-20,0-41.8-8.2-58.3-21.8c-13.9-11.5-30.5-32.1-30.5-64.7c0-33.2,16.1-53.7,29.6-65
			c16.4-13.7,38-21.6,59.2-21.6c34.8,0,51.3,16.3,52,17c1.9,2,1.9,5.1,0,7.1c-2,1.9-5.1,1.9-7.1,0l0,0c-0.1-0.1-14.6-14-44.9-14
			c-32.7,0-78.8,23.8-78.8,76.6c0,50,45.8,76.6,78.8,76.6c33.5,0,79.9-26.6,79.9-76.6c0-2.7-0.5-10.4-2.1-17.2c-0.6-2.7,1-5.4,3.7-6
			c2.7-0.6,5.4,1,6,3.7c1.8,7.4,2.4,15.9,2.4,19.5C385.9,449.9,333.7,480,296.1,480z"/>
		<path class="st0" d="M293.6,430.1c-1.4,0-2.7-0.6-3.7-1.6l-35.3-38.8c-1.9-2-1.7-5.2,0.3-7.1c2-1.9,5.2-1.7,7.1,0.3l31.6,34.7
			l99.8-109.9c1.9-2,5-2.2,7.1-0.3c2,1.9,2.2,5,0.3,7.1L297.3,428.5C296.3,429.5,295,430.1,293.6,430.1
			C293.6,430.1,293.6,430.1,293.6,430.1z"/>
	</g>
	<g>
		<path class="st0" d="M345,275.4c-0.8,0-1.7-0.2-2.4-0.6l-38-20.9l-38,20.9c-1.7,1-3.9,0.8-5.4-0.4c-1.6-1.2-2.3-3.2-1.8-5.1
			l9.7-41.5l-32-27c-1.6-1.3-2.2-3.4-1.5-5.4c0.6-1.9,2.4-3.3,4.4-3.4l42.5-3.2l17.6-39.1c0.8-1.8,2.6-2.9,4.6-2.9s3.8,1.2,4.6,2.9
			l17.6,39.1l42.5,3.2c2,0.1,3.8,1.5,4.4,3.4c0.6,1.9,0,4.1-1.5,5.4l-32,27l9.7,41.5c0.5,1.9-0.3,3.9-1.8,5.1
			C347.2,275.1,346.1,275.4,345,275.4z M304.7,243.2c0.8,0,1.7,0.2,2.4,0.6l30.5,16.8l-7.9-33.5c-0.4-1.8,0.2-3.8,1.6-5l25-21.1
			l-33.3-2.5c-1.8-0.1-3.4-1.3-4.2-2.9L304.7,164l-14.2,31.7c-0.8,1.7-2.4,2.8-4.2,2.9L253,201l25,21.1c1.4,1.2,2.1,3.1,1.6,5
			l-7.9,33.5l30.5-16.8C303,243.4,303.8,243.2,304.7,243.2z"/>
		<g>
			<path class="st0" d="M434.9,284.2c-0.8,0-1.7-0.2-2.4-0.6l-30.4-17l-30.1,17c-1.7,1-3.9,0.8-5.5-0.4c-1.6-1.2-2.3-3.2-1.9-5.1
				l7.7-33.2l-8.3-7c-2.1-1.8-2.4-4.9-0.6-7c1.8-2.1,4.9-2.4,7-0.6l10.6,8.9c1.4,1.2,2.1,3.1,1.7,5l-5.8,25.1l22.6-12.8
				c1.5-0.9,3.4-0.9,4.9,0l23.1,12.9l-5.6-24.8c-0.4-1.8,0.2-3.6,1.6-4.9l18.9-16.6l-25.2-2.6c-1.7-0.2-3.2-1.2-4-2.8l-11.1-23.2
				L392,217.5c-1.1,2.5-4.1,3.7-6.6,2.6c-2.5-1.1-3.7-4.1-2.6-6.6l14.5-33c0.8-1.8,2.5-3,4.5-3c1.9-0.1,3.7,1.1,4.6,2.8l14.6,30.5
				l33.8,3.5c2,0.2,3.6,1.6,4.2,3.5c0.6,1.9,0,4-1.5,5.3l-25.2,22.2l7.4,32.8c0.4,1.9-0.3,3.9-1.9,5.1
				C437,283.9,436,284.2,434.9,284.2z"/>
			<path class="st0" d="M457,298.1c-1.1,0-2.1-0.3-3-1c-1.6-1.2-2.3-3.2-1.9-5.1l5.4-23.4l-5.4-4.5c-2.1-1.8-2.4-4.9-0.6-7
				c1.8-2.1,4.9-2.4,7-0.6l7.7,6.5c1.4,1.2,2.1,3.1,1.7,5l-3.6,15.3l13.8-7.8c1.5-0.9,3.4-0.9,4.9,0l14.2,7.9l-3.4-15.1
				c-0.4-1.8,0.2-3.6,1.6-4.9l11.4-10.1l-15.3-1.6c-1.7-0.2-3.2-1.2-4-2.8l-6.8-14.2l-6.2,14.1c-1.1,2.5-4.1,3.7-6.6,2.6
				c-2.5-1.1-3.7-4.1-2.6-6.6l10.6-24.1c0.8-1.8,2.5-3,4.5-3c0,0,0.1,0,0.1,0c1.9,0,3.7,1.1,4.5,2.8l10.3,21.5l23.9,2.5
				c2,0.2,3.6,1.6,4.2,3.5c0.6,1.9,0,4-1.5,5.3l-17.8,15.7l5.2,23.1c0.4,1.9-0.3,3.9-1.9,5.1c-1.6,1.2-3.7,1.3-5.4,0.4l-21.5-12
				l-21.3,12C458.7,297.9,457.9,298.1,457,298.1z"/>
		</g>
		<g>
			<path class="st0" d="M239.8,284.2c-0.8,0-1.7-0.2-2.5-0.6l-30.1-17l-30.4,17c-1.7,1-3.9,0.8-5.4-0.4c-1.6-1.2-2.3-3.2-1.9-5.1
				l7.4-32.8L151.7,223c-1.5-1.3-2.1-3.4-1.5-5.3c0.6-1.9,2.3-3.2,4.2-3.5l33.8-3.5l14.6-30.5c0.8-1.7,2.6-2.8,4.5-2.8
				c0,0,0.1,0,0.1,0c2,0,3.7,1.2,4.5,3l14.5,33c1.1,2.5,0,5.5-2.6,6.6c-2.5,1.1-5.5,0-6.6-2.6l-10.1-23.1l-11.1,23.2
				c-0.8,1.6-2.3,2.6-4,2.8l-25.2,2.6l18.9,16.6c1.4,1.2,2,3.1,1.6,4.9l-5.6,24.8l23.1-12.9c1.5-0.9,3.4-0.8,4.9,0l22.6,12.8
				l-5.8-25.1c-0.4-1.8,0.2-3.7,1.7-5l10.6-8.9c2.1-1.8,5.3-1.5,7,0.6c1.8,2.1,1.5,5.3-0.6,7l-8.3,7l7.7,33.2
				c0.4,1.9-0.3,3.9-1.9,5.1C241.9,283.9,240.8,284.2,239.8,284.2z"/>
			<path class="st0" d="M104.7,298.1c-1.1,0-2.1-0.3-3-1c-1.6-1.2-2.3-3.2-1.9-5.1l5.2-23.1l-17.8-15.7c-1.5-1.3-2.1-3.4-1.5-5.3
				c0.6-1.9,2.3-3.2,4.2-3.5l23.9-2.5l10.3-21.5c0.8-1.8,2.6-2.9,4.6-2.8c2,0,3.7,1.2,4.5,3l10.6,24.1c1.1,2.5,0,5.5-2.6,6.6
				c-2.5,1.1-5.5,0-6.6-2.6l-6.2-14.1l-6.8,14.2c-0.8,1.6-2.3,2.6-4,2.8l-15.3,1.6l11.4,10.1c1.4,1.2,2,3.1,1.6,4.9l-3.4,15.1
				l14.2-7.9c1.5-0.9,3.4-0.8,4.9,0l13.8,7.8l-3.6-15.3c-0.4-1.8,0.2-3.7,1.7-5l7.7-6.5c2.1-1.8,5.3-1.5,7,0.6
				c1.8,2.1,1.5,5.3-0.6,7l-5.4,4.5l5.4,23.4c0.4,1.9-0.3,3.9-1.9,5.1c-1.6,1.2-3.7,1.3-5.5,0.4l-21.3-12l-21.5,12
				C106.4,297.9,105.5,298.1,104.7,298.1z"/>
		</g>
	</g>
</g>
</svg>
