<?xml version="1.0" encoding="utf-8"?>
<!-- Generator: Adobe Illustrator 24.1.2, SVG Export Plug-In . SVG Version: 6.00 Build 0)  -->
<svg version="1.1" id="Capa_1" xmlns="http://www.w3.org/2000/svg" xmlns:xlink="http://www.w3.org/1999/xlink" x="0px" y="0px"
	 viewBox="0 0 407.4 160.5" style="enable-background:new 0 0 407.4 160.5;" xml:space="preserve">
<style type="text/css">
	.st0{fill:#A3A3A3;}
</style>
<g>
	<path class="st0" d="M80.4,160.5c-0.9,0-1.8-0.3-2.5-1L1,82.6c-1.4-1.4-1.4-3.6,0-5L77.6,1c1.4-1.4,3.6-1.4,5,0
		c1.4,1.4,1.4,3.6,0,5L8.4,80.1l74.4,74.4c1.4,1.4,1.4,3.6,0,4.9C82.2,160.2,81.3,160.5,80.4,160.5z"/>
</g>
<path class="st0" d="M403.9,83.7h-351c-1.9,0-3.5-1.6-3.5-3.5c0-1.9,1.6-3.5,3.5-3.5h351c1.9,0,3.5,1.6,3.5,3.5
	C407.4,82.2,405.8,83.7,403.9,83.7z"/>
</svg>
