<?xml version="1.0" encoding="utf-8"?>
<!-- Generator: Adobe Illustrator 22.0.0, SVG Export Plug-In . SVG Version: 6.00 Build 0)  -->
<svg version="1.1" id="Capa_1" xmlns="http://www.w3.org/2000/svg" xmlns:xlink="http://www.w3.org/1999/xlink" x="0px" y="0px"
	 viewBox="0 0 188.2 188.2" style="enable-background:new 0 0 188.2 188.2;" xml:space="preserve">
<style type="text/css">
	.st0{fill:#FFFFFF;}
</style>
<path class="st0" d="M148.3,167.8c-3.2,0-6.1-1.2-8.4-3.5L100.6,125c-9.7,6.7-21.5,10.6-34.1,10.6c-33.3,0-60.4-27.1-60.4-60.4
	s27.1-60.4,60.4-60.4s60.4,27.1,60.4,60.4c0,12.1-3.6,23.4-9.8,32.9l39.5,39.5c4.6,4.6,4.6,12.1,0,16.8
	C154.4,166.6,151.4,167.8,148.3,167.8z M106.2,120.7l38.7,38.7c0.9,0.9,2.1,1.4,3.4,1.4s2.5-0.5,3.4-1.4c1.9-1.9,1.9-5,0-6.9
	l-38.8-38.8C110.9,116.3,108.6,118.6,106.2,120.7z M66.5,21.8c-29.5,0-53.4,24-53.4,53.4s24,53.4,53.4,53.4s53.4-24,53.4-53.4
	S95.9,21.8,66.5,21.8z"/>
</svg>
