<?xml version="1.0" encoding="utf-8"?>
<!-- Generator: Adobe Illustrator 24.1.2, SVG Export Plug-In . SVG Version: 6.00 Build 0)  -->
<svg version="1.1" id="Слой_1" xmlns="http://www.w3.org/2000/svg" xmlns:xlink="http://www.w3.org/1999/xlink" x="0px" y="0px"
	 viewBox="0 0 156.1 156" style="enable-background:new 0 0 156.1 156;" xml:space="preserve">
<style type="text/css">
	.st0{fill:#0C8290;}
</style>
<g>
	<path class="st0" d="M112,156c-25.3,0-46.7-11.1-73.8-38.2l-0.1-0.1C11,90.6,0,69.2,0,44C0,17.9,13.9,9.3,19.9,5.6L20,5.5
		c5.2-3.3,17.5-7.8,23.3-4.1c5.6,3.5,8.3,10.7,9.6,25.7c0.9,10.2,2.2,25.6-9.3,28.3c-7,1.6-8,1.9-8,8c0,12.1,14.8,28.9,21.1,34.9
		c0.1,0.1,0.1,0.1,0.2,0.2s0.2,0.1,0.2,0.2c0.2,0.1,0.3,0.3,0.4,0.5c6.3,6.5,23.1,21.3,35.1,21.3c6.1,0,6.4-1.1,8-8
		c2.7-11.5,18.1-10.2,28.3-9.3c15,1.3,22.3,4,25.8,9.6c3.7,5.9-0.9,18.1-4.1,23.3l-0.1,0.1C146.7,142.1,138,156,112,156z M43.2,113
		c25.6,25.6,45.6,36.1,68.8,36.1c22.2,0,29.2-11.2,32.5-16.6l0.1-0.1c3.6-5.8,5.2-14.2,4.1-15.9c-1.4-2.2-5-5-20.5-6.3
		c-12.1-1-19.8-0.7-20.9,4c-2,8.3-3.9,13.4-14.8,13.4c-17.6,0-39-22.2-40.7-24.1c-3.3-3.2-23.3-23.1-23.3-40
		c0-10.9,5.1-12.8,13.4-14.8c4.7-1.1,5-8.8,4-20.9c-1.3-15.4-4.1-19-6.3-20.5c-1.7-1.1-10.1,0.5-15.9,4.1l-0.1,0.1
		C18.2,14.9,7,21.8,7,44C7,67.3,17.4,87.2,43.2,113C43.1,112.9,43.2,112.9,43.2,113z"/>
	<g>
		<path class="st0" d="M125.8,86.4c-1.8,0-3.3-1.4-3.5-3.2c-1.5-19.6-9.9-33.5-25.2-41.3c-11.4-6-22.5-6-22.6-6
			c-1.9,0-3.5-1.6-3.5-3.5c0-1.9,1.6-3.5,3.5-3.5c0.5,0,12.9,0.1,25.9,6.7c12.1,6.2,26.9,19.3,29,47c0.1,1.9-1.3,3.6-3.2,3.7
			C126,86.4,125.9,86.4,125.8,86.4z"/>
		<path class="st0" d="M142.6,86.4c-1.8,0-3.3-1.4-3.5-3.2c-2-26.5-13.4-45.3-34-55.8c-15.5-7.9-30.5-8-30.6-8
			c-1.9,0-3.5-1.6-3.5-3.5s1.6-3.5,3.5-3.5c0.7,0,16.8,0.1,33.8,8.8c15.8,8.1,35.1,25.3,37.8,61.5c0.1,1.9-1.3,3.6-3.2,3.7
			C142.8,86.4,142.7,86.4,142.6,86.4z"/>
	</g>
</g>
</svg>
