<?xml version="1.0" encoding="utf-8"?>
<!-- Generator: Adobe Illustrator 24.1.2, SVG Export Plug-In . SVG Version: 6.00 Build 0)  -->
<svg version="1.1" id="tw" xmlns="http://www.w3.org/2000/svg" xmlns:xlink="http://www.w3.org/1999/xlink" x="0px" y="0px"
	 viewBox="0 0 32.5 26.5" style="enable-background:new 0 0 32.5 26.5;" xml:space="preserve">
<style type="text/css">
	.st0{fill:#0C8290;}
</style>
<g>
	<path class="st0" d="M22.4,0c0.1,0,0.2,0,0.4,0h0.1c0.3,0,0.7,0.1,1,0.1c0.9,0.2,1.7,0.5,2.5,1c0.4,0.3,0.7,0.5,1,0.9
		c0,0.1,0.1,0.1,0.2,0.1c0.9-0.2,1.8-0.5,2.7-0.8c0.5-0.2,0.9-0.4,1.4-0.7c0,0,0,0,0.1,0c-0.1,0.2-0.1,0.4-0.2,0.6s-0.2,0.4-0.3,0.5
		C31.1,1.8,31,2,30.9,2.1c-0.1,0.2-0.2,0.3-0.4,0.5c-0.1,0.2-0.3,0.3-0.4,0.4c-0.1,0.1-0.3,0.3-0.4,0.4c-0.1,0.1-0.3,0.3-0.5,0.4
		C29,3.9,28.9,4,28.7,4.1c0,0,0,0,0.1,0s0.2,0,0.3,0c0.8-0.1,1.6-0.3,2.4-0.6c0.3-0.1,0.6-0.2,0.9-0.4c0,0,0,0,0.1,0
		c0,0,0,0.1-0.1,0.1c-0.1,0.2-0.2,0.3-0.4,0.5c-0.7,0.9-1.5,1.8-2.5,2.5c-0.1,0.1-0.2,0.2-0.3,0.3c-0.1,0-0.1,0.1-0.1,0.2v0.1
		c0,0.6,0,1.3,0,1.9c0,0.5-0.1,1-0.2,1.4c-0.1,0.7-0.2,1.4-0.4,2.1c-0.4,1.4-0.9,2.8-1.6,4.1c-0.7,1.4-1.6,2.6-2.6,3.8
		c-0.8,0.9-1.6,1.7-2.5,2.4c-0.8,0.6-1.6,1.2-2.5,1.7c-1.1,0.6-2.3,1.1-3.5,1.5c-1.1,0.3-2.1,0.5-3.2,0.7c-0.4,0-0.8,0.1-1.2,0.1
		s-0.8,0-1.2,0s-0.7,0-1.1,0c-0.4,0-0.8-0.1-1.2-0.1c-0.5-0.1-1.1-0.1-1.6-0.3c-1.3-0.3-2.5-0.6-3.7-1.2c-0.9-0.4-1.8-0.8-2.6-1.4
		c0,0-0.1,0-0.1-0.1l0,0H0c0.3,0,0.5,0,0.8,0.1c0.3,0,0.7,0,1,0c0.4,0,0.8,0,1.1-0.1c0.5-0.1,1.1-0.2,1.6-0.3
		c0.9-0.2,1.8-0.5,2.6-0.9c1-0.2,1.9-0.8,2.7-1.4c0,0,0.1,0,0.1-0.1H9.8c-0.3,0-0.6,0-0.8-0.1c-0.7-0.1-1.5-0.4-2.1-0.7
		c-1-0.5-1.8-1.3-2.4-2.2c-0.3-0.5-0.6-1-0.8-1.6c0,0,0,0,0-0.1c0,0,0,0,0.1,0c0.2,0,0.3,0.1,0.5,0.1c0.3,0,0.5,0.1,0.8,0
		c0.2,0,0.5,0,0.7-0.1c0.3,0,0.5-0.1,0.8-0.1c0,0,0,0,0.1,0l0,0H6.6c-0.7-0.1-1.3-0.4-1.9-0.7c-0.7-0.4-1.3-0.9-1.8-1.6
		C2.1,12.9,1.7,12,1.4,11c-0.1-0.5-0.2-1-0.2-1.5c0-0.1,0-0.1,0.1-0.1l0,0c0.3,0.2,0.7,0.3,1,0.4c0.4,0.1,0.9,0.2,1.3,0.3
		c0.2,0,0.3,0,0.5,0c0,0,0,0,0.1,0c0,0-0.1,0-0.1-0.1C3.3,9.5,2.7,8.8,2.2,8c-0.8-1.3-1.1-2.8-1-4.4C1.3,2.7,1.6,1.9,2,1.2
		c0.1-0.1,0.1-0.1,0.1,0C2.7,2,3.4,2.7,4.2,3.3C4.9,4,5.7,4.5,6.6,5.1s1.9,1.1,2.9,1.5c1.1,0.5,2.3,0.8,3.5,1.1
		C13.5,8,14,8,14.5,8.1c0.3,0,0.5,0.1,0.8,0.1c0.2,0,0.4,0,0.7,0c0.1,0,0.1,0,0.1-0.1l0,0C16,7.5,15.9,6.9,16,6.4
		c0-0.3,0.1-0.7,0.1-1c0.4-1.7,1.2-3,2.6-4.1C19.8,0.5,21,0.1,22.4,0C22.3,0,22.3,0,22.4,0z"/>
</g>
</svg>
