<?xml version="1.0" encoding="utf-8"?>
<!-- Generator: Adobe Illustrator 24.1.2, SVG Export Plug-In . SVG Version: 6.00 Build 0)  -->
<svg version="1.1" id="Capa_1" xmlns="http://www.w3.org/2000/svg" xmlns:xlink="http://www.w3.org/1999/xlink" x="0px" y="0px"
	 viewBox="0 0 153.2 154.6" style="enable-background:new 0 0 153.2 154.6;" xml:space="preserve">
<style type="text/css">
	.st0{fill:#A3A3A3;}
</style>
<g>
	<path class="st0" d="M143.8,154.6H9.4c-2.8,0-5.4-1.2-7.2-3.2c-1.6-1.9-2.4-4.3-2.1-6.7c3-23.6,18.5-44.4,42.4-57
		c1.2-0.6,2.6-0.5,3.7,0.2c10.9,7.7,17.4,10.9,29.3,10.9c12.6,0,18.5-2,31.6-10.5c1.1-0.7,2.4-0.8,3.5-0.2
		c24.1,12.7,39.6,33.3,42.6,56.5c0.3,2.5-0.4,4.8-2.1,6.7C149.2,153.4,146.6,154.6,143.8,154.6z M43.9,94.9
		c-20.8,11.6-34.2,30-36.8,50.7c-0.1,0.4,0.1,0.8,0.4,1.2c0.5,0.5,1.2,0.8,2,0.8h134.4c0.8,0,1.5-0.3,2-0.8c0.3-0.4,0.4-0.8,0.4-1.2
		c-3.5-27.4-24-43-37.1-50.2c-13.1,8.3-20.3,10.5-33.7,10.5C61.4,105.8,53.5,101.5,43.9,94.9z"/>
	<path class="st0" d="M76.6,91.9c-11.3,0-22.1-4.2-30.6-11.7c-1-0.9-1.9-1.7-2.7-2.6l0,0c-1-1.1-1.8-1.9-2.5-2.8
		C34.2,66.6,30.6,56.4,30.6,46c0-25.4,20.6-46,46-46s46,20.6,46,46c0,10.4-3.6,20.7-10.2,28.8c-0.7,0.9-1.5,1.8-2.5,2.8
		c-0.8,0.9-1.7,1.7-2.7,2.6C98.7,87.8,87.9,91.9,76.6,91.9z M48.4,72.8c0.7,0.7,1.4,1.5,2.3,2.2c7.2,6.4,16.4,10,25.9,10
		s18.7-3.5,25.9-10c0.8-0.8,1.6-1.5,2.3-2.2c0.8-0.9,1.5-1.7,2.1-2.4c5.7-7,8.7-15.5,8.7-24.4c0-21.5-17.5-39-39-39s-39,17.5-39,39
		c0,9,3,17.4,8.7,24.4C46.9,71.1,47.5,71.9,48.4,72.8L48.4,72.8z"/>
</g>
</svg>
