<?xml version="1.0" encoding="utf-8"?>
<!-- Generator: Adobe Illustrator 24.1.2, SVG Export Plug-In . SVG Version: 6.00 Build 0)  -->
<svg version="1.1" id="vk" xmlns="http://www.w3.org/2000/svg" xmlns:xlink="http://www.w3.org/1999/xlink" x="0px" y="0px"
	 viewBox="0 0 42.5 24" style="enable-background:new 0 0 42.5 24;" xml:space="preserve">
<style type="text/css">
	.st0{fill:#0C8290;}
</style>
<path class="st0" d="M15.9,0c2.5,0,4.9,0,7.4,0h0.1c0.8,0.1,1.2,0.6,1.3,1.4c0,0.2,0.1,0.4,0.1,0.6c0,2.5,0,4.9,0,7.4
	c0,0.6,0.1,1.2,0.5,1.7s0.9,0.6,1.4,0.2c0.1-0.1,0.3-0.2,0.4-0.3c0.7-0.8,1.4-1.6,1.9-2.4c1.4-2.1,2.5-4.3,3.4-6.7
	c0.3-0.8,0.8-1.1,1.7-1.1c2.1,0,4.1,0,6.2,0c0.3,0,0.7,0,1,0c0.6,0.1,1.1,0.2,1.3,0.9c0,0.1,0,0.2,0,0.2c0,0.2-0.1,0.3-0.1,0.5
	c-0.3,1.1-0.9,2.2-1.6,3.1C39.6,7.3,38.3,9,37,10.8c-0.4,0.5-0.8,1.1-1.1,1.6c-0.4,0.7-0.3,1.3,0.2,2c0.3,0.3,0.6,0.6,0.9,0.9
	c0.9,0.9,1.9,1.8,2.8,2.8c1,1,1.9,2,2.5,3.2c0.1,0.2,0.2,0.5,0.3,0.8c0.2,1-0.4,1.7-1.4,1.7c-1.9,0-3.8,0-5.8,0c-0.4,0-0.8,0-1.2,0
	c-1.1-0.2-2.1-0.8-2.9-1.6c-0.9-0.9-1.7-1.9-2.6-2.8c-0.4-0.4-0.8-0.7-1.2-1c-0.7-0.4-1.3-0.2-1.7,0.4c-0.2,0.4-0.4,0.8-0.5,1.2
	c-0.1,0.7-0.2,1.5-0.3,2.2c-0.1,1-0.5,1.4-1.4,1.5c-1.1,0.1-2.2,0.1-3.4,0c-2.7-0.2-5.1-1.1-7.3-2.6C11,20,9.5,18.4,8.1,16.6
	C4.8,12.1,2.2,7.1,0,1.9c0-0.1,0-0.3,0-0.4c0.1-0.4,0.5-0.6,0.9-0.7c0.1,0,0.3,0,0.4,0c2,0,4,0,6,0c0.2,0,0.4,0,0.6,0.1
	c0.6,0.2,0.9,0.7,1.2,1.2c1.1,2.7,2.5,5.3,4.2,7.7c0.3,0.4,0.7,0.9,1.1,1.3c0.2,0.2,0.5,0.4,0.8,0.5c0.4,0.2,0.8,0.1,1-0.3
	c0.1-0.2,0.2-0.4,0.3-0.7c0.2-0.7,0.3-1.3,0.3-2c0.1-1.7,0.1-3.3-0.2-5C16.5,2.7,16,2,15.2,1.7c-0.2-0.1-0.4-0.1-0.7-0.2
	c-0.4-0.1-0.4-0.2-0.2-0.6C14.7,0.5,15.2,0.1,15.9,0z"/>
</svg>
