<?xml version="1.0" encoding="utf-8"?>
<!-- Generator: Adobe Illustrator 24.1.2, SVG Export Plug-In . SVG Version: 6.00 Build 0)  -->
<svg version="1.1" id="Слой_1" xmlns="http://www.w3.org/2000/svg" xmlns:xlink="http://www.w3.org/1999/xlink" x="0px" y="0px"
	 viewBox="0 0 251.9 35.9" style="enable-background:new 0 0 251.9 35.9;" xml:space="preserve">
<style type="text/css">
	.st0{fill:#FFFFFF;}
</style>
<g>
	<g>
		<path class="st0" d="M3.1,0c0.6,0,1.1,0.1,1.5,0.2c0.4,0.1,0.7,0.3,1,0.6C5.8,1.1,5.9,1.5,6,2c0.1,0.5,0.1,1.2,0.1,2.1v6.7
			l7.2-7.2c0.4-0.4,0.9-0.9,1.3-1.3c0.4-0.4,0.8-0.8,1.3-1.1c0.4-0.3,0.9-0.6,1.5-0.8C17.9,0.1,18.5,0,19.2,0h1.7v0.9
			c-0.9,0-1.8,0.2-2.5,0.5c-0.7,0.3-1.5,1-2.5,1.9L9.2,9.9l7.9,8.2c0.9,1,1.9,1.8,3,2.5c1,0.7,2,1.1,2.9,1.2v0.7
			c-0.3,0.1-0.6,0.2-0.9,0.2c-0.4,0.1-0.8,0.1-1.3,0.1c-0.5,0-1-0.1-1.5-0.2s-1.1-0.3-1.7-0.6c-0.6-0.3-1.3-0.7-1.9-1.3
			c-0.7-0.5-1.4-1.2-2.3-2.1l-7.2-7.5v11.3H3.1V4.1c0-1-0.1-1.9-0.4-2.5C2.4,1,1.7,0.7,0.7,0.7H0V0H3.1z"/>
	</g>
	<g>
		<path class="st0" d="M41.7,22.9C41.4,23,41,23,40.6,23c-0.3,0-0.6,0-1-0.1c-0.4-0.1-0.8-0.2-1.2-0.5c-0.4-0.2-0.8-0.6-1.2-1
			c-0.4-0.4-0.7-1-1-1.8L35.6,18h-7.2l-2.1,4.9h-1.2l7.2-17h0.8l5.7,13.8c0.2,0.5,0.4,0.9,0.6,1.2c0.2,0.3,0.4,0.6,0.6,0.8
			c0.2,0.2,0.5,0.4,0.7,0.5c0.3,0.1,0.6,0.2,0.9,0.2V22.9z M28.8,17h6.3L32,9.5L28.8,17z"/>
		<path class="st0" d="M49.6,15.4c0.5,0,1.1,0,1.7-0.1c0.6-0.1,1.2-0.2,1.6-0.4v-9h2.3v17h-2.3v-7c-0.2,0.1-0.5,0.2-0.8,0.2
			c-0.3,0.1-0.6,0.1-0.9,0.2c-0.3,0-0.6,0.1-0.9,0.1c-0.3,0-0.6,0-0.9,0c-0.9,0-1.7-0.1-2.5-0.2c-0.8-0.1-1.4-0.4-2-0.8
			c-0.6-0.4-1-0.9-1.4-1.6c-0.3-0.7-0.5-1.6-0.5-2.8V9c0-0.8-0.1-1.4-0.3-1.9c-0.2-0.5-0.7-0.7-1.5-0.7h-0.3V5.9h2.3
			c0.4,0,0.8,0,1.1,0.1c0.3,0.1,0.5,0.2,0.7,0.5s0.3,0.6,0.4,1c0.1,0.4,0.1,0.9,0.1,1.6v2.3c0,0.8,0.1,1.5,0.2,2.1
			c0.2,0.5,0.4,1,0.7,1.3c0.3,0.3,0.7,0.5,1.2,0.6C48.4,15.4,48.9,15.4,49.6,15.4z"/>
		<path class="st0" d="M68.9,5.9c0.4,0,0.8,0.1,1.1,0.2c0.3,0.1,0.5,0.3,0.7,0.5C70.8,6.7,71,6.9,71,7.2s0.1,0.5,0.1,0.8v1.9h-0.5
			c0-1-0.3-1.8-0.8-2.3c-0.6-0.5-1.4-0.7-2.4-0.7h-4.8v6.7h7v1h-7v7.2h4.5c1.2,0,2.1-0.2,2.8-0.6c0.7-0.4,1.2-1.2,1.6-2.2l0.5,0.1
			l-0.9,2.5c-0.1,0.4-0.4,0.7-0.7,0.9s-0.7,0.3-1.3,0.3h-8.9V9c0-0.8-0.1-1.4-0.3-1.9c-0.2-0.5-0.7-0.7-1.5-0.7h-0.5V5.9H68.9z"/>
		<path class="st0" d="M87.9,11.3c-0.3-1.7-0.9-2.9-1.8-3.7s-2-1.2-3.5-1.2c-0.8,0-1.6,0.1-2.4,0.4c-0.7,0.3-1.4,0.7-2,1.4
			c-0.6,0.6-1,1.5-1.3,2.5c-0.3,1.1-0.5,2.4-0.5,3.9c0,1,0.1,1.9,0.3,2.8s0.6,1.8,1.1,2.5c0.5,0.7,1.1,1.3,1.9,1.8
			c0.8,0.4,1.7,0.7,2.8,0.7c1.3,0,2.4-0.3,3.3-0.9c0.9-0.6,1.8-1.5,2.5-2.7l0.5,0.4c-0.4,0.8-0.9,1.5-1.4,2c-0.5,0.5-1.1,1-1.6,1.3
			c-0.6,0.3-1.2,0.6-1.9,0.7c-0.7,0.1-1.4,0.2-2.2,0.2c-1.2,0-2.3-0.2-3.3-0.7c-1-0.5-1.8-1.1-2.5-1.9c-0.7-0.8-1.2-1.7-1.6-2.8
			s-0.6-2.2-0.6-3.4c0-1.3,0.2-2.5,0.6-3.6s1-2.1,1.7-3c0.7-0.8,1.6-1.5,2.5-2c1-0.5,2-0.7,3.1-0.7c1.4,0,2.7,0.2,3.7,0.6
			c1,0.4,1.8,0.9,2.2,1.5c0.3,0.4,0.5,0.9,0.6,1.7c0.1,0.7,0.1,1.4,0.1,2.2H87.9z"/>
		<path class="st0" d="M104.6,5.9v1h-5.8v16h-2.3v-16h-2.3c-1,0-1.8,0.2-2.4,0.7C91.2,8.1,91,8.8,91,9.9h-0.5V7.9
			c0-0.3,0-0.5,0.1-0.8c0.1-0.3,0.2-0.5,0.3-0.7C91,6.3,91.3,6.2,91.5,6c0.3-0.1,0.6-0.2,1.1-0.2H104.6z"/>
		<path class="st0" d="M112.1,5.9c0.7,0,1.4,0,2.2,0.1c0.8,0.1,1.6,0.3,2.3,0.6c0.7,0.3,1.3,0.8,1.8,1.4s0.7,1.4,0.7,2.4
			c0,0.8-0.3,1.5-0.8,2.2c-0.5,0.7-1.4,1.2-2.6,1.6c0.8,0.1,1.5,0.3,2.1,0.6c0.5,0.3,1,0.6,1.3,0.9c0.3,0.4,0.6,0.8,0.7,1.2
			c0.1,0.4,0.2,0.9,0.2,1.4c0,1-0.2,1.8-0.7,2.4c-0.4,0.6-1,1.1-1.7,1.4c-0.7,0.3-1.4,0.6-2.3,0.7s-1.7,0.2-2.5,0.2h-5.2V9
			c0-0.8-0.1-1.4-0.3-1.9c-0.2-0.5-0.7-0.7-1.5-0.7h-0.5V5.9H112.1z M112.5,13.7c0.5,0,1-0.1,1.5-0.2s0.9-0.4,1.3-0.7
			c0.4-0.3,0.7-0.7,0.9-1.1c0.2-0.4,0.4-0.9,0.4-1.5c0-0.6-0.1-1.1-0.4-1.6c-0.3-0.4-0.7-0.8-1.1-1.1c-0.4-0.3-0.9-0.5-1.5-0.6
			c-0.6-0.1-1.1-0.2-1.6-0.2c-0.3,0-0.7,0-1,0.1C110.6,6.9,110.3,7,110,7v6.7H112.5z M110,14.8v6.9c0.4,0.1,0.8,0.2,1.2,0.3
			s0.8,0.1,1.2,0.1c1.6,0,2.8-0.3,3.6-0.9c0.9-0.6,1.3-1.5,1.3-2.7c0-1.2-0.4-2.1-1.2-2.7c-0.8-0.6-2-0.9-3.7-0.9H110z"/>
		<path class="st0" d="M122.2,14.4c0-1.3,0.2-2.4,0.6-3.5s0.9-2.1,1.6-2.9c0.7-0.8,1.5-1.5,2.5-1.9c1-0.5,2.1-0.7,3.3-0.7
			c1.2,0,2.3,0.2,3.3,0.7c1,0.5,1.8,1.1,2.5,1.9c0.7,0.8,1.2,1.8,1.6,2.9c0.4,1.1,0.6,2.3,0.6,3.5c0,1.3-0.2,2.5-0.6,3.6
			c-0.4,1.1-0.9,2-1.6,2.9s-1.5,1.5-2.5,1.9c-1,0.5-2.1,0.7-3.3,0.7c-1.2,0-2.3-0.2-3.3-0.7c-1-0.5-1.8-1.1-2.5-1.9
			s-1.2-1.8-1.6-2.9C122.4,16.8,122.2,15.7,122.2,14.4z M135.6,14.4c0-1.2-0.1-2.3-0.4-3.3c-0.3-1-0.6-1.8-1.1-2.5s-1-1.2-1.7-1.6
			c-0.7-0.4-1.4-0.6-2.3-0.6c-0.8,0-1.6,0.2-2.3,0.6c-0.7,0.4-1.2,0.9-1.7,1.6s-0.8,1.5-1.1,2.5s-0.4,2.1-0.4,3.3s0.1,2.3,0.4,3.3
			s0.6,1.8,1.1,2.5s1,1.2,1.7,1.6c0.7,0.4,1.4,0.6,2.3,0.6c0.8,0,1.6-0.2,2.3-0.6c0.7-0.4,1.2-0.9,1.7-1.6s0.8-1.5,1.1-2.5
			C135.5,16.7,135.6,15.6,135.6,14.4z"/>
	</g>
	<g>
		<path class="st0" d="M164.8,9.9l-5.3-6.7c-0.8-1-1.5-1.6-2.3-1.9s-1.5-0.5-2.3-0.5V0h1.7c0.6,0,1.1,0.1,1.6,0.3
			c0.5,0.2,1,0.5,1.4,0.8c0.4,0.3,0.9,0.7,1.3,1.1c0.4,0.4,0.8,0.9,1.2,1.4l5.8,7.2V0h3v10.8l5.8-7.2c0.4-0.5,0.7-0.9,1.1-1.4
			c0.4-0.4,0.8-0.8,1.3-1.1c0.4-0.3,0.9-0.6,1.4-0.8c0.5-0.2,1-0.3,1.6-0.3h1.7v0.9c-0.8,0-1.5,0.2-2.3,0.5s-1.5,1-2.3,1.9L174,9.9
			l6.5,8.2c0.4,0.5,0.9,1,1.3,1.4c0.5,0.4,0.9,0.8,1.4,1.2s1,0.6,1.4,0.8c0.5,0.2,0.9,0.3,1.3,0.4v0.7c-0.3,0.1-0.6,0.2-0.9,0.2
			c-0.4,0.1-0.8,0.1-1.3,0.1c-0.4,0-0.8-0.1-1.4-0.2s-1.1-0.3-1.7-0.6s-1.2-0.7-1.9-1.2c-0.7-0.5-1.4-1.3-2-2.1l-5.8-7.5v11.3h-3
			V11.3l-5.8,7.5c-0.7,0.9-1.4,1.6-2,2.1c-0.7,0.5-1.3,0.9-1.9,1.2s-1.2,0.5-1.7,0.6s-1,0.2-1.4,0.2c-0.5,0-1,0-1.3-0.1
			c-0.4-0.1-0.7-0.1-0.9-0.2v-0.7c0.4,0,0.8-0.2,1.3-0.4c0.5-0.2,0.9-0.5,1.4-0.8s1-0.7,1.4-1.2c0.5-0.4,0.9-0.9,1.3-1.4L164.8,9.9z
			"/>
	</g>
	<g>
		<path class="st0" d="M199,8.2l-8.3,14.7h-2.3V9c0-0.8-0.1-1.4-0.3-1.9c-0.2-0.5-0.7-0.7-1.5-0.7h-0.5V5.9h2.3c0.4,0,0.8,0,1.1,0.1
			c0.3,0.1,0.5,0.2,0.7,0.5s0.3,0.6,0.4,1c0.1,0.4,0.1,0.9,0.1,1.6v11.6L199,5.9h2.3v17H199V8.2z"/>
		<path class="st0" d="M207.8,13.7h1.9c0.6,0,1.1-0.1,1.7-0.2c0.5-0.2,1-0.4,1.4-0.7c0.4-0.3,0.7-0.7,1-1.2c0.2-0.5,0.4-1,0.4-1.6
			c0-0.6-0.1-1.2-0.3-1.6s-0.5-0.8-0.9-1.1c-0.4-0.3-0.8-0.5-1.2-0.7s-0.9-0.2-1.4-0.2c-1.2,0-2.3,0.4-3.1,1.1
			c-0.9,0.7-1.4,1.7-1.8,3h-0.5c0-0.8,0-1.4,0.1-2c0.1-0.5,0.2-1,0.6-1.4c0.2-0.3,0.5-0.5,0.9-0.7c0.4-0.2,0.8-0.4,1.2-0.6
			c0.4-0.2,0.9-0.3,1.4-0.4c0.5-0.1,0.9-0.1,1.4-0.1c0.6,0,1.3,0.1,2.1,0.2c0.7,0.1,1.4,0.3,2,0.7s1.1,0.8,1.5,1.4
			c0.4,0.6,0.6,1.5,0.6,2.5c0,0.8-0.3,1.6-0.9,2.3c-0.6,0.7-1.5,1.3-2.7,1.7c0.8,0.2,1.5,0.4,2,0.6c0.5,0.3,1,0.6,1.3,1
			s0.6,0.8,0.7,1.3s0.2,1,0.2,1.5c0,1-0.2,1.8-0.6,2.5c-0.4,0.6-1,1.1-1.6,1.5c-0.7,0.4-1.4,0.6-2.2,0.7s-1.5,0.2-2.2,0.2
			c-1.3,0-2.5-0.2-3.5-0.7s-1.9-1.3-2.7-2.5l0.5-0.4c0.6,0.8,1.3,1.4,2.2,1.9c0.9,0.5,1.9,0.7,3.1,0.7c1.4,0,2.5-0.3,3.3-1
			c0.8-0.7,1.2-1.6,1.2-2.8c0-1.2-0.4-2.2-1.2-2.9c-0.8-0.7-2-1-3.7-1h-1.9V13.7z"/>
		<path class="st0" d="M233.4,19.8c0,0.8,0.1,1.4,0.3,1.9c0.2,0.5,0.7,0.7,1.5,0.7h0.5v0.5h-2.3c-0.4,0-0.8,0-1.1-0.1
			c-0.3-0.1-0.5-0.2-0.7-0.5s-0.3-0.5-0.4-0.9c-0.1-0.4-0.1-0.9-0.1-1.6v-5.2h-7.7v8.3H221V9c0-0.8-0.1-1.4-0.3-1.9
			c-0.2-0.5-0.7-0.7-1.5-0.7h-0.5V5.9h2.3c0.4,0,0.8,0,1.1,0.1c0.3,0.1,0.5,0.2,0.7,0.5s0.3,0.6,0.4,1c0.1,0.4,0.1,0.9,0.1,1.6v4.6
			h7.7V5.9h2.3V19.8z"/>
		<path class="st0" d="M249.5,8.2l-8.3,14.7h-2.3V9c0-0.8-0.1-1.4-0.3-1.9c-0.2-0.5-0.7-0.7-1.5-0.7h-0.5V5.9h2.3
			c0.4,0,0.8,0,1.1,0.1c0.3,0.1,0.5,0.2,0.7,0.5s0.3,0.6,0.4,1c0.1,0.4,0.1,0.9,0.1,1.6v11.6l8.3-14.7h2.3v17h-2.3V8.2z"/>
	</g>
	<g>
		<path class="st0" d="M2.1,34.2v-5.1h0.7v2.4h0l2.4-2.4h1.1l-2.6,2.4l2.8,2.7H5.4l-2.6-2.6h0v2.6H2.1z"/>
		<path class="st0" d="M8.7,34.3c-0.2,0-0.4,0-0.6-0.1l0.1-0.6c0.1,0,0.2,0.1,0.3,0.1c0.4,0,0.7-0.2,0.9-0.6
			c0.2-0.4,0.3-1.1,0.3-2.1v-1.7h3.7v5.1h-0.7v-4.5h-2.2v1.4c0,1-0.1,1.8-0.4,2.4C9.8,34,9.3,34.3,8.7,34.3z"/>
		<path class="st0" d="M16.8,34.2v-5.1h0.7v4.1h0l3-4.1h0.8v5.1h-0.7v-4.1h0l-3,4.1H16.8z"/>
		<path class="st0" d="M24.8,34.2v-5.1h0.7v2.1h2.9v-2.1h0.7v5.1h-0.7v-2.3h-2.9v2.3H24.8z"/>
		<path class="st0" d="M32.6,34.2v-5.1h0.7v4.1h0l3-4.1h0.8v5.1h-0.7v-4.1h0l-3,4.1H32.6z"/>
		<path class="st0" d="M40.6,34.2v-5.1h0.7v2.4h0l2.4-2.4h1.1l-2.6,2.4l2.8,2.7H44l-2.6-2.6h0v2.6H40.6z"/>
		<path class="st0" d="M48.9,34.4c-0.5,0-0.9-0.1-1.2-0.4c-0.4-0.3-0.5-0.6-0.5-1.2c0-0.3,0-0.5,0.1-0.7c0.1-0.2,0.2-0.4,0.4-0.5
			c0.2-0.1,0.4-0.2,0.6-0.3c0.2-0.1,0.5-0.1,0.8-0.2c0.3,0,0.6-0.1,0.8-0.1c0.3,0,0.6,0,0.9,0v-0.2c0-0.9-0.5-1.3-1.4-1.3
			c-0.6,0-1.1,0.2-1.5,0.6l-0.4-0.5c0.5-0.5,1.2-0.7,2-0.7c0.6,0,1.1,0.2,1.4,0.5c0.4,0.3,0.6,0.8,0.6,1.4v2.2c0,0.5,0,0.8,0.1,1.1
			h-0.7c-0.1-0.3-0.1-0.6-0.1-0.8h0C50.3,34,49.7,34.4,48.9,34.4z M49.1,33.7c0.5,0,0.9-0.2,1.2-0.5c0.3-0.3,0.4-0.7,0.4-1.2v-0.4
			h-0.2c-0.3,0-0.7,0-0.9,0c-0.3,0-0.5,0.1-0.8,0.1c-0.3,0.1-0.5,0.2-0.6,0.3c-0.2,0.2-0.2,0.3-0.2,0.6c0,0.3,0.1,0.6,0.3,0.7
			C48.5,33.7,48.8,33.7,49.1,33.7z"/>
		<path class="st0" d="M58.9,34.2v-5.1h2.4c0.5,0,0.9,0.1,1.2,0.3c0.3,0.2,0.5,0.5,0.5,1c0,0.3-0.1,0.5-0.2,0.7s-0.4,0.3-0.6,0.4v0
			c0.3,0,0.6,0.2,0.8,0.4c0.2,0.2,0.3,0.5,0.3,0.9c0,0.4-0.2,0.8-0.5,1c-0.3,0.3-0.8,0.4-1.4,0.4H58.9z M59.7,31.3h1.6
			c0.3,0,0.5-0.1,0.7-0.2c0.2-0.1,0.3-0.3,0.3-0.6c0-0.5-0.4-0.8-1.1-0.8h-1.5V31.3z M59.7,33.6h1.6c0.4,0,0.6-0.1,0.9-0.2
			s0.3-0.4,0.3-0.6c0-0.6-0.4-0.9-1.1-0.9h-1.6V33.6z"/>
		<path class="st0" d="M68.6,34.4c-0.8,0-1.4-0.3-1.9-0.8c-0.5-0.5-0.8-1.1-0.8-1.9c0-0.8,0.3-1.4,0.8-1.9c0.5-0.5,1.2-0.8,1.9-0.8
			c0.8,0,1.4,0.3,2,0.8c0.5,0.5,0.8,1.2,0.8,1.9c0,0.8-0.3,1.4-0.8,1.9C70,34.1,69.4,34.4,68.6,34.4z M68.6,33.7
			c0.6,0,1.1-0.2,1.4-0.6c0.4-0.4,0.5-0.9,0.5-1.5c0-0.6-0.2-1.1-0.5-1.5c-0.4-0.4-0.8-0.6-1.4-0.6c-0.6,0-1,0.2-1.4,0.6
			c-0.4,0.4-0.5,0.9-0.5,1.5c0,0.6,0.2,1.1,0.5,1.5C67.6,33.5,68,33.7,68.6,33.7z"/>
		<path class="st0" d="M76.7,34.4c-0.8,0-1.5-0.3-2-0.8c-0.5-0.5-0.8-1.1-0.8-1.9c0-0.8,0.3-1.4,0.8-1.9c0.5-0.5,1.2-0.8,2-0.8
			c0.4,0,0.7,0.1,1.1,0.2c0.3,0.2,0.6,0.4,0.8,0.7L78,30.3c-0.1-0.2-0.3-0.4-0.5-0.5c-0.2-0.1-0.5-0.2-0.8-0.2
			c-0.6,0-1.1,0.2-1.4,0.6c-0.4,0.4-0.5,0.9-0.5,1.5c0,0.6,0.2,1.1,0.5,1.5c0.4,0.4,0.8,0.6,1.4,0.6c0.6,0,1.1-0.2,1.4-0.7l0.6,0.4
			C78.2,34.1,77.5,34.4,76.7,34.4z"/>
		<path class="st0" d="M83.6,34.4c-0.8,0-1.5-0.3-2-0.8c-0.5-0.5-0.8-1.1-0.8-1.9c0-0.8,0.3-1.4,0.8-1.9c0.5-0.5,1.2-0.8,2-0.8
			c0.4,0,0.7,0.1,1.1,0.2c0.3,0.2,0.6,0.4,0.8,0.7l-0.6,0.4c-0.1-0.2-0.3-0.4-0.5-0.5c-0.2-0.1-0.5-0.2-0.8-0.2
			c-0.6,0-1.1,0.2-1.4,0.6c-0.4,0.4-0.5,0.9-0.5,1.5c0,0.6,0.2,1.1,0.5,1.5c0.4,0.4,0.8,0.6,1.4,0.6c0.6,0,1.1-0.2,1.4-0.7l0.6,0.4
			C85,34.1,84.4,34.4,83.6,34.4z"/>
		<path class="st0" d="M89.4,34.2v-4.5h-1.8v-0.6H92v0.6h-1.8v4.5H89.4z"/>
		<path class="st0" d="M96,34.4c-0.5,0-0.9-0.1-1.2-0.4c-0.4-0.3-0.5-0.6-0.5-1.2c0-0.3,0-0.5,0.1-0.7c0.1-0.2,0.2-0.4,0.4-0.5
			c0.2-0.1,0.4-0.2,0.6-0.3c0.2-0.1,0.5-0.1,0.8-0.2c0.3,0,0.6-0.1,0.8-0.1c0.3,0,0.6,0,0.9,0v-0.2c0-0.9-0.5-1.3-1.4-1.3
			c-0.6,0-1.1,0.2-1.5,0.6l-0.4-0.5c0.5-0.5,1.2-0.7,2-0.7c0.6,0,1.1,0.2,1.4,0.5c0.4,0.3,0.6,0.8,0.6,1.4v2.2c0,0.5,0,0.8,0.1,1.1
			h-0.7c-0.1-0.3-0.1-0.6-0.1-0.8h0C97.4,34,96.8,34.4,96,34.4z M96.2,33.7c0.5,0,0.9-0.2,1.2-0.5c0.3-0.3,0.4-0.7,0.4-1.2v-0.4
			h-0.2c-0.3,0-0.7,0-0.9,0c-0.3,0-0.5,0.1-0.8,0.1c-0.3,0.1-0.5,0.2-0.6,0.3c-0.2,0.2-0.2,0.3-0.2,0.6c0,0.3,0.1,0.6,0.3,0.7
			C95.6,33.7,95.8,33.7,96.2,33.7z"/>
		<path class="st0" d="M101.8,34.2v-5.1h0.7v2.1h2.9v-2.1h0.7v5.1h-0.7v-2.3h-2.9v2.3H101.8z"/>
		<path class="st0" d="M112,34.4c-0.8,0-1.4-0.3-1.9-0.8c-0.5-0.5-0.8-1.1-0.8-1.9c0-0.8,0.3-1.4,0.8-1.9c0.5-0.5,1.2-0.8,1.9-0.8
			c0.8,0,1.4,0.3,2,0.8c0.5,0.5,0.8,1.2,0.8,1.9c0,0.8-0.3,1.4-0.8,1.9C113.4,34.1,112.8,34.4,112,34.4z M112,33.7
			c0.6,0,1.1-0.2,1.4-0.6c0.4-0.4,0.5-0.9,0.5-1.5c0-0.6-0.2-1.1-0.5-1.5c-0.4-0.4-0.8-0.6-1.4-0.6c-0.6,0-1,0.2-1.4,0.6
			c-0.4,0.4-0.5,0.9-0.5,1.5c0,0.6,0.2,1.1,0.5,1.5C111,33.5,111.4,33.7,112,33.7z"/>
		<path class="st0" d="M117.7,34.2v-5.1h2.4c0.5,0,0.9,0.1,1.2,0.3c0.3,0.2,0.5,0.5,0.5,1c0,0.3-0.1,0.5-0.2,0.7s-0.4,0.3-0.6,0.4v0
			c0.3,0,0.6,0.2,0.8,0.4c0.2,0.2,0.3,0.5,0.3,0.9c0,0.4-0.2,0.8-0.5,1c-0.3,0.3-0.8,0.4-1.4,0.4H117.7z M118.5,31.3h1.6
			c0.3,0,0.5-0.1,0.7-0.2c0.2-0.1,0.3-0.3,0.3-0.6c0-0.5-0.4-0.8-1.1-0.8h-1.5V31.3z M118.5,33.6h1.6c0.4,0,0.6-0.1,0.9-0.2
			s0.3-0.4,0.3-0.6c0-0.6-0.4-0.9-1.1-0.9h-1.6V33.6z"/>
		<path class="st0" d="M125,34.2v-5.1h0.7v4.1h0l3-4.1h0.8v5.1h-0.7v-4.1h0l-3,4.1H125z"/>
		<path class="st0" d="M134.1,34.2v-4.5h-1.8v-0.6h4.4v0.6h-1.8v4.5H134.1z"/>
		<path class="st0" d="M141.4,34.4c-0.8,0-1.4-0.3-1.9-0.8c-0.5-0.5-0.8-1.1-0.8-1.9c0-0.8,0.2-1.4,0.7-1.9c0.5-0.5,1.1-0.8,1.8-0.8
			c0.8,0,1.4,0.2,1.8,0.7s0.6,1.1,0.6,1.8c0,0.1,0,0.3,0,0.3h-4.2c0,0.5,0.2,1,0.6,1.3c0.4,0.4,0.8,0.5,1.3,0.5c0.4,0,0.7-0.1,1-0.3
			c0.3-0.2,0.5-0.4,0.7-0.6l0.6,0.4C143.1,34,142.3,34.4,141.4,34.4z M139.6,31.3h3.5c0-0.5-0.2-0.9-0.5-1.2s-0.7-0.5-1.2-0.5
			c-0.5,0-0.9,0.2-1.2,0.5C139.8,30.4,139.6,30.8,139.6,31.3z"/>
		<path class="st0" d="M146.5,34.3c-0.2,0-0.4,0-0.6-0.1l0.1-0.6c0.1,0,0.2,0.1,0.3,0.1c0.4,0,0.7-0.2,0.9-0.6
			c0.2-0.4,0.3-1.1,0.3-2.1v-1.7h3.7v5.1h-0.7v-4.5h-2.2v1.4c0,1-0.1,1.8-0.4,2.4C147.6,34,147.2,34.3,146.5,34.3z"/>
		<path class="st0" d="M154.6,34.2v-5.1h0.7V31h1.2c0.6,0,1.1,0.1,1.5,0.4c0.4,0.3,0.5,0.7,0.5,1.2c0,0.5-0.2,0.9-0.5,1.2
			c-0.3,0.3-0.8,0.4-1.5,0.4H154.6z M155.4,33.6h1.3c0.8,0,1.2-0.3,1.2-0.9c0-0.7-0.4-1-1.2-1h-1.3V33.6z"/>
		<path class="st0" d="M161.5,34.2v-5.1h0.7v2.1h2.9v-2.1h0.7v5.1h-0.7v-2.3h-2.9v2.3H161.5z"/>
		<path class="st0" d="M171.7,34.4c-0.8,0-1.4-0.3-1.9-0.8c-0.5-0.5-0.8-1.1-0.8-1.9c0-0.8,0.3-1.4,0.8-1.9c0.5-0.5,1.2-0.8,1.9-0.8
			c0.8,0,1.4,0.3,2,0.8c0.5,0.5,0.8,1.2,0.8,1.9c0,0.8-0.3,1.4-0.8,1.9C173.1,34.1,172.4,34.4,171.7,34.4z M171.7,33.7
			c0.6,0,1.1-0.2,1.4-0.6c0.4-0.4,0.5-0.9,0.5-1.5c0-0.6-0.2-1.1-0.5-1.5c-0.4-0.4-0.8-0.6-1.4-0.6c-0.6,0-1,0.2-1.4,0.6
			c-0.4,0.4-0.5,0.9-0.5,1.5c0,0.6,0.2,1.1,0.5,1.5C170.6,33.5,171.1,33.7,171.7,33.7z"/>
		<path class="st0" d="M177.4,34.2v-5.1h0.7v4.1h0l3-4.1h0.8v5.1h-0.7v-4.1h0l-3,4.1H177.4z M180.7,27.6c-0.3,0.3-0.7,0.4-1.1,0.4
			s-0.8-0.1-1.1-0.4c-0.3-0.3-0.5-0.6-0.5-1l0.5-0.1c0.1,0.3,0.2,0.5,0.4,0.7c0.2,0.2,0.4,0.2,0.7,0.2c0.3,0,0.5-0.1,0.7-0.2
			c0.2-0.2,0.3-0.4,0.4-0.7l0.5,0.1C181.2,27,181,27.3,180.7,27.6z"/>
		<path class="st0" d="M189.5,34.2v-5.1h1.1l1.9,4h0l1.9-4h1.1v5.1h-0.7V30h0l-2,4.2h-0.4l-2-4.2h0v4.2H189.5z"/>
		<path class="st0" d="M201.1,34.4c-0.8,0-1.4-0.3-1.9-0.8c-0.5-0.5-0.8-1.1-0.8-1.9c0-0.8,0.2-1.4,0.7-1.9c0.5-0.5,1.1-0.8,1.8-0.8
			c0.8,0,1.4,0.2,1.8,0.7s0.6,1.1,0.6,1.8c0,0.1,0,0.3,0,0.3h-4.2c0,0.5,0.2,1,0.6,1.3c0.4,0.4,0.8,0.5,1.3,0.5c0.4,0,0.7-0.1,1-0.3
			c0.3-0.2,0.5-0.4,0.7-0.6l0.6,0.4C202.7,34,202,34.4,201.1,34.4z M199.2,31.3h3.5c0-0.5-0.2-0.9-0.5-1.2s-0.7-0.5-1.2-0.5
			c-0.5,0-0.9,0.2-1.2,0.5C199.5,30.4,199.3,30.8,199.2,31.3z"/>
		<path class="st0" d="M205.8,35.9v-2.3h0.6c0.5-0.7,0.8-1.7,0.8-3.1v-1.4h3.7v4.5h0.8v2.3H211v-1.7h-4.6v1.7H205.8z M207.2,33.6h3
			v-3.8h-2.3v0.9C207.9,31.8,207.7,32.7,207.2,33.6z"/>
		<path class="st0" d="M214.5,34.2v-5.1h0.7v4.1h0l3-4.1h0.8v5.1h-0.7v-4.1h0l-3,4.1H214.5z"/>
		<path class="st0" d="M226.9,35.9v-1.7h-4.5v-5.1h0.7v4.5h2.9v-4.5h0.7v4.5h0.8v2.3H226.9z"/>
		<path class="st0" d="M230.4,34.2v-5.1h0.7v4.1h0l3-4.1h0.8v5.1h-0.7v-4.1h0l-3,4.1H230.4z"/>
		<path class="st0" d="M238.4,34.2v-5.1h0.7v2.1h2.9v-2.1h0.7v5.1h-0.7v-2.3h-2.9v2.3H238.4z"/>
		<path class="st0" d="M246.2,34.2v-5.1h0.7V31h1.2c0.6,0,1.1,0.1,1.5,0.4c0.4,0.3,0.5,0.7,0.5,1.2c0,0.5-0.2,0.9-0.5,1.2
			c-0.3,0.3-0.8,0.4-1.5,0.4H246.2z M246.9,33.6h1.3c0.8,0,1.2-0.3,1.2-0.9c0-0.7-0.4-1-1.2-1h-1.3V33.6z M251.2,34.2v-5.1h0.7v5.1
			H251.2z"/>
	</g>
</g>
</svg>
