<svg xmlns="http://www.w3.org/2000/svg">
    <symbol id="search" viewBox="0 0 188.2 188.2">
        <path class="st0" d="M148.3,167.8c-3.2,0-6.1-1.2-8.4-3.5L100.6,125c-9.7,6.7-21.5,10.6-34.1,10.6c-33.3,0-60.4-27.1-60.4-60.4
	s27.1-60.4,60.4-60.4s60.4,27.1,60.4,60.4c0,12.1-3.6,23.4-9.8,32.9l39.5,39.5c4.6,4.6,4.6,12.1,0,16.8
	C154.4,166.6,151.4,167.8,148.3,167.8z M106.2,120.7l38.7,38.7c0.9,0.9,2.1,1.4,3.4,1.4s2.5-0.5,3.4-1.4c1.9-1.9,1.9-5,0-6.9
	l-38.8-38.8C110.9,116.3,108.6,118.6,106.2,120.7z M66.5,21.8c-29.5,0-53.4,24-53.4,53.4s24,53.4,53.4,53.4s53.4-24,53.4-53.4
	S95.9,21.8,66.5,21.8z"/>
    </symbol>
    <symbol id="eye" viewBox="0 0 188.2 188.2">
        <path class="st0" d="M93.3,150.3c-31.5,0-55-14.8-69.3-27.2C9.1,110,1.2,97.1,0.5,95.9c-0.1-0.1-0.2-0.3-0.2-0.4
		C0.1,95,0,94.5,0,94.1c0-0.5,0.1-1,0.3-1.5c0.1-0.1,0.1-0.3,0.2-0.4C1.2,91,9.1,78.1,24,65.1c14.2-12.4,37.8-27.2,69.3-27.2
		c31.4,0,55.4,14.8,70,27.2c15.7,13.4,24,26.6,24.3,27.2c0.4,0.6,0.5,1.3,0.5,1.9c0,0.5-0.1,0.9-0.3,1.3c-0.1,0.2-0.2,0.3-0.3,0.5
		c-0.8,1.2-9,14.1-24.3,27.1C148.8,135.5,124.8,150.3,93.3,150.3z M7.7,94.1c6,9,35.7,49.2,85.7,49.2c49.9,0,80.8-40,87.2-49.2
		c-6.4-9.1-37.2-49.2-87.2-49.2C43.2,44.9,13.7,85.1,7.7,94.1z"/>
        <path class="st0" d="M94,127.2c-17.9,0-32.4-14.5-32.4-32.4S76.2,62.4,94,62.4s32.4,14.5,32.4,32.4S111.9,127.2,94,127.2z M94,69.4
		c-14,0-25.4,11.4-25.4,25.4S80,120.2,94,120.2s25.4-11.4,25.4-25.4S108,69.4,94,69.4z"/>
    </symbol>
    <symbol id="pin" viewBox="0 0 188.2 188.3">
        <g>
            <path class="st0" d="M94.2,188.3c-0.1,0-0.1,0-0.2,0c-0.8,0-1.5-0.2-2.2-0.8c-2.5-2-61.9-49.5-61.9-103.1
			c0-25.9,12.8-41.2,23.5-49.5c13.8-10.6,30-14.4,40.6-14.4h0.1h0.1c10.7,0,26.8,3.9,40.5,14.4c10.7,8.3,23.5,23.6,23.5,49.5
			c0,53.6-59.3,101.1-61.9,103.1C95.8,188,95,188.3,94.2,188.3z M94.2,27.5c-18.7,0-57.1,14-57.1,56.9c0,44.7,46.6,86.9,57.1,95.9
			c10.5-9,57.1-51.1,57.1-95.9C151.3,41.5,112.9,27.5,94.2,27.5z"/>
            <path class="st0" d="M94.2,119.6c-19.4,0-35.2-15.8-35.2-35.2s15.8-35.2,35.2-35.2s35.2,15.8,35.2,35.2S113.5,119.6,94.2,119.6z
			 M94.2,56.3C78.6,56.3,66,68.9,66,84.4s12.6,28.2,28.2,28.2c15.5,0,28.2-12.6,28.2-28.2C122.3,68.9,109.7,56.3,94.2,56.3z"/>
        </g>
        <g>
            <path class="st0" d="M174.6,89.8c-0.1,0-0.1,0-0.2,0c-1.9-0.1-3.4-1.8-3.3-3.7c3.4-55.2-43-72.1-43.5-72.3
			c-1.8-0.6-2.8-2.6-2.1-4.5c0.6-1.8,2.6-2.8,4.5-2.1c0.5,0.2,13.2,4.7,25.5,16.8c11.4,11.1,24.5,31,22.6,62.6
			C177.9,88.4,176.4,89.8,174.6,89.8z"/>
            <path class="st0" d="M13.8,89.8c-1.8,0-3.4-1.4-3.5-3.3C8.3,55,21.5,35.1,32.9,24c12.3-12,25-16.6,25.6-16.8
			c1.8-0.6,3.8,0.3,4.5,2.1c0.6,1.8-0.3,3.8-2.1,4.5l0,0c-0.1,0-12,4.3-23.2,15.4C22.7,43.9,15.8,63,17.3,86.1
			c0.1,1.9-1.3,3.6-3.3,3.7C13.9,89.8,13.8,89.8,13.8,89.8z"/>
        </g>
    </symbol>
    <symbol id="clock" viewBox="0 0 188.2 188.2">
        <path class="st0" d="M94.1,166.3c-39.8,0-72.2-32.4-72.2-72.2s32.4-72.2,72.2-72.2c1.9,0,3.5,1.6,3.5,3.5s-1.6,3.5-3.5,3.5
		c-36,0-65.2,29.3-65.2,65.2s29.3,65.2,65.2,65.2c36,0,65.2-29.3,65.2-65.2c0-18.6-7.9-36.3-21.8-48.7c-1.4-1.3-1.6-3.5-0.3-4.9
		s3.5-1.6,4.9-0.3c15.3,13.7,24.1,33.3,24.1,53.9C166.3,133.9,133.9,166.3,94.1,166.3z"/>
        <path class="st0" d="M94.1,188.1c-37.7,0-71.6-22.4-86.4-57c-0.8-1.8,0.1-3.8,1.8-4.6c1.8-0.8,3.8,0.1,4.6,1.8
		c13.7,32,45.1,52.8,80,52.8c48,0,87-39,87-87s-39-87-87-87s-87,39-87,87c0,1.9-1.6,3.5-3.5,3.5S0.1,96,0.1,94.1
		c0-51.8,42.2-94,94-94s94,42.2,94,94S145.9,188.1,94.1,188.1z"/>
        <path class="st0" d="M112.1,115.4c-0.9,0-1.8-0.3-2.5-1l-19-18.8v-49c0-1.9,1.6-3.5,3.5-3.5s3.5,1.6,3.5,3.5v46l17,16.8
		c1.4,1.4,1.4,3.6,0,4.9C113.9,115.1,113,115.4,112.1,115.4z"/>
    </symbol>
    <symbol id="phone" viewBox="0 0 188.2 188.2">
        <g>
            <path class="st0" d="M128.1,172.1c-25.3,0-46.7-11.1-73.8-38.2l-0.1-0.1c-27.1-27.1-38.1-48.5-38.1-73.7C16.1,34,30,25.4,36,21.7
		l0.1-0.1c5.2-3.3,17.5-7.8,23.3-4.1C65,21,67.7,28.2,69,43.2c0.9,10.2,2.2,25.6-9.3,28.3c-7,1.6-8,1.9-8,8
		c0,12.1,14.8,28.9,21.1,34.9c0.1,0.1,0.1,0.1,0.2,0.2s0.2,0.1,0.2,0.2c0.2,0.1,0.3,0.3,0.4,0.5c6.3,6.5,23.1,21.3,35.1,21.3
		c6.1,0,6.4-1.1,8-8c2.7-11.5,18.1-10.2,28.3-9.3c15,1.3,22.3,4,25.8,9.6c3.7,5.9-0.9,18.1-4.1,23.3l-0.1,0.1
		C162.8,158.2,154.1,172.1,128.1,172.1z M59.3,129.1c25.6,25.6,45.6,36.1,68.8,36.1c22.2,0,29.2-11.2,32.5-16.6l0.1-0.1
		c3.6-5.8,5.2-14.2,4.1-15.9c-1.4-2.2-5-5-20.5-6.3c-12.1-1-19.8-0.7-20.9,4c-2,8.3-3.9,13.4-14.8,13.4c-17.6,0-39-22.2-40.7-24.1
		c-3.3-3.2-23.3-23.1-23.3-40c0-10.9,5.1-12.8,13.4-14.8c4.7-1.1,5-8.8,4-20.9c-1.3-15.4-4.1-19-6.3-20.5
		c-1.7-1.1-10.1,0.5-15.9,4.1l-0.1,0.1C34.3,31,23.1,37.9,23.1,60.1C23.1,83.4,33.5,103.3,59.3,129.1C59.2,129,59.3,129,59.3,129.1z
		"/>
            <g>
                <path class="st0" d="M141.9,102.5c-1.8,0-3.3-1.4-3.5-3.2c-1.5-19.6-9.9-33.5-25.2-41.3c-11.4-6-22.5-6-22.6-6
			c-1.9,0-3.5-1.6-3.5-3.5s1.6-3.5,3.5-3.5c0.5,0,12.9,0.1,25.9,6.7c12.1,6.2,26.9,19.3,29,47c0.1,1.9-1.3,3.6-3.2,3.7
			C142.1,102.5,142,102.5,141.9,102.5z"/>
                <path class="st0" d="M158.7,102.5c-1.8,0-3.3-1.4-3.5-3.2c-2-26.5-13.4-45.3-34-55.8c-15.5-7.9-30.5-8-30.6-8
			c-1.9,0-3.5-1.6-3.5-3.5s1.6-3.5,3.5-3.5c0.7,0,16.8,0.1,33.8,8.8c15.8,8.1,35.1,25.3,37.8,61.5c0.1,1.9-1.3,3.6-3.2,3.7
			C158.9,102.5,158.8,102.5,158.7,102.5z"/>
            </g>
        </g>
    </symbol>
    <symbol id="twitter" viewBox="0 0 32.5 26.5">
        <g>
            <path class="st0" d="M22.4,0c0.1,0,0.2,0,0.4,0c0,0,0.1,0,0.1,0c0.3,0,0.7,0.1,1,0.1c0.9,0.2,1.7,0.5,2.5,1c0.4,0.3,0.7,0.5,1,0.9
		c0,0.1,0.1,0.1,0.2,0.1c0.9-0.2,1.8-0.5,2.7-0.8c0.5-0.2,0.9-0.4,1.4-0.7c0,0,0,0,0.1,0c-0.1,0.2-0.1,0.4-0.2,0.6
		c-0.1,0.2-0.2,0.4-0.3,0.5C31.1,1.8,31,2,30.9,2.1c-0.1,0.2-0.2,0.3-0.4,0.5c-0.1,0.2-0.3,0.3-0.4,0.4c-0.1,0.1-0.3,0.3-0.4,0.4
		c-0.1,0.1-0.3,0.3-0.5,0.4c-0.2,0.1-0.3,0.2-0.5,0.3c0,0,0,0,0.1,0c0.1,0,0.2,0,0.3,0c0.8-0.1,1.6-0.3,2.4-0.6
		c0.3-0.1,0.6-0.2,0.9-0.4c0,0,0,0,0.1,0c0,0,0,0.1-0.1,0.1c-0.1,0.2-0.2,0.3-0.4,0.5c-0.7,0.9-1.5,1.8-2.5,2.5
		c-0.1,0.1-0.2,0.2-0.3,0.3c-0.1,0-0.1,0.1-0.1,0.2c0,0,0,0.1,0,0.1c0,0.6,0,1.3,0,1.9c0,0.5-0.1,1-0.2,1.4
		c-0.1,0.7-0.2,1.4-0.4,2.1c-0.4,1.4-0.9,2.8-1.6,4.1c-0.7,1.4-1.6,2.6-2.6,3.8c-0.8,0.9-1.6,1.7-2.5,2.4c-0.8,0.6-1.6,1.2-2.5,1.7
		c-1.1,0.6-2.3,1.1-3.5,1.5c-1.1,0.3-2.1,0.5-3.2,0.7c-0.4,0-0.8,0.1-1.2,0.1c-0.4,0-0.8,0-1.2,0c-0.4,0-0.7,0-1.1,0
		c-0.4,0-0.8-0.1-1.2-0.1c-0.5-0.1-1.1-0.1-1.6-0.3c-1.3-0.3-2.5-0.6-3.7-1.2c-0.9-0.4-1.8-0.8-2.6-1.4c0,0-0.1,0-0.1-0.1
		c0,0,0,0,0,0c0,0,0.1,0,0.1,0c0.3,0,0.5,0,0.8,0.1c0.3,0,0.7,0,1,0c0.4,0,0.8,0,1.1-0.1c0.5-0.1,1.1-0.2,1.6-0.3
		c0.9-0.2,1.8-0.5,2.6-0.9C8.1,22,9,21.4,9.8,20.8c0,0,0.1,0,0.1-0.1c0,0-0.1,0-0.1,0c-0.3,0-0.6,0-0.8-0.1
		c-0.7-0.1-1.5-0.4-2.1-0.7c-1-0.5-1.8-1.3-2.4-2.2c-0.3-0.5-0.6-1-0.8-1.6c0,0,0,0,0-0.1c0,0,0,0,0.1,0c0.2,0,0.3,0.1,0.5,0.1
		c0.3,0,0.5,0.1,0.8,0c0.2,0,0.5,0,0.7-0.1c0.3,0,0.5-0.1,0.8-0.1c0,0,0,0,0.1,0c0,0,0,0,0,0c0,0-0.1,0-0.1,0
		c-0.7-0.1-1.3-0.4-1.9-0.7c-0.7-0.4-1.3-0.9-1.8-1.6C2.1,12.9,1.7,12,1.4,11c-0.1-0.5-0.2-1-0.2-1.5c0-0.1,0-0.1,0.1-0.1
		c0,0,0,0,0,0c0.3,0.2,0.7,0.3,1,0.4c0.4,0.1,0.9,0.2,1.3,0.3c0.2,0,0.3,0,0.5,0c0,0,0,0,0.1,0c0,0-0.1,0-0.1-0.1
		c-0.8-0.5-1.4-1.2-1.9-2c-0.8-1.3-1.1-2.8-1-4.4c0.1-0.9,0.4-1.7,0.8-2.4c0.1-0.1,0.1-0.1,0.1,0c0.6,0.8,1.3,1.5,2.1,2.1
		c0.7,0.7,1.5,1.2,2.4,1.8c0.9,0.6,1.9,1.1,2.9,1.5c1.1,0.5,2.3,0.8,3.5,1.1C13.5,8,14,8,14.5,8.1c0.3,0,0.5,0.1,0.8,0.1
		c0.2,0,0.4,0,0.7,0c0.1,0,0.1,0,0.1-0.1c0,0,0,0,0,0c-0.1-0.6-0.2-1.2-0.1-1.7c0-0.3,0.1-0.7,0.1-1c0.4-1.7,1.2-3,2.6-4.1
		c1.1-0.8,2.3-1.2,3.7-1.3C22.3,0,22.3,0,22.4,0z"/>
        </g>
    </symbol>
    <symbol id="facebook" viewBox="0 0 17.8 38.7">
        <g>
            <path d="M4,38.7h7.8V19.1h5.4l0.5-6.5h-5.9c0,0,0-2.4,0-3.8c0-1.5,0.3-2.2,1.8-2.2c1.2,0,4.2,0,4.2,0
	V0c0,0-4.4,0-5.4,0C6.6,0,4,2.6,4,7.4c0,4.3,0,5.3,0,5.3H0v6.6h4V38.7z"/>
        </g>
    </symbol>
    <symbol id="inst" viewBox="0 0 24.5 24.5">
        <g>
            <circle class="st0" cx="12.3" cy="12.3" r="4.9"/>
            <path class="st0" d="M22.8,22.8c0.6-0.6,0.9-1,1.1-1.7c0.1-0.5,0.3-1.3,0.5-2.7c0.1-1.6,0.1-2.1,0.1-6.1s0-4.5-0.1-6.1
		c0-1.5-0.2-2.2-0.5-2.7c-0.3-0.7-0.6-1.1-1.1-1.7c-0.6-0.6-1-0.9-1.7-1.1c-0.5-0.1-1.3-0.3-2.7-0.5C16.7,0,16.3,0,12.3,0
		c-4,0-4.5,0.1-6.1,0.1C4.7,0.1,4,0.3,3.4,0.6C2.7,0.9,2.3,1.1,1.7,1.7c-0.6,0.6-0.9,1-1.1,1.7C0.5,3.9,0.2,4.7,0.1,6.2
		C0,7.8,0,8.2,0,12.3s0,4.5,0.1,6.1c0,1.5,0.2,2.2,0.5,2.7c0.3,0.7,0.6,1.1,1.1,1.7c0.6,0.6,1,0.9,1.7,1.1c0.5,0.1,1.3,0.3,2.7,0.5
		c1.6,0.1,2.1,0.1,6.1,0.1c4,0,4.5,0,6.1-0.1c1.5,0,2.2-0.2,2.7-0.5C21.8,23.6,22.2,23.4,22.8,22.8z M12.3,19.9
		c-4.2,0-7.7-3.4-7.7-7.7S8,4.6,12.3,4.6c4.2,0,7.7,3.4,7.7,7.7S16.5,19.9,12.3,19.9z M18.3,4.4c0-1,0.8-1.8,1.8-1.8S22,3.3,22,4.4
		c0,1-0.8,1.8-1.8,1.8S18.3,5.4,18.3,4.4z"/>
        </g>
    </symbol>
    <symbol id="vk" viewBox="0 0 42.5 24">
        <g>
            <path class="st0" d="M15.9,0c2.5,0,4.9,0,7.4,0c0,0,0.1,0,0.1,0c0.8,0.1,1.2,0.6,1.3,1.4c0,0.2,0.1,0.4,0.1,0.6c0,2.5,0,4.9,0,7.4
	c0,0.6,0.1,1.2,0.5,1.7c0.4,0.5,0.9,0.6,1.4,0.2c0.1-0.1,0.3-0.2,0.4-0.3c0.7-0.8,1.4-1.6,1.9-2.4c1.4-2.1,2.5-4.3,3.4-6.7
	c0.3-0.8,0.8-1.1,1.7-1.1c2.1,0,4.1,0,6.2,0c0.3,0,0.7,0,1,0c0.6,0.1,1.1,0.2,1.3,0.9c0,0.1,0,0.2,0,0.2c0,0.2-0.1,0.3-0.1,0.5
	c-0.3,1.1-0.9,2.2-1.6,3.1c-1.3,1.8-2.6,3.5-3.9,5.3c-0.4,0.5-0.8,1.1-1.1,1.6c-0.4,0.7-0.3,1.3,0.2,2c0.3,0.3,0.6,0.6,0.9,0.9
	c0.9,0.9,1.9,1.8,2.8,2.8c1,1,1.9,2,2.5,3.2c0.1,0.2,0.2,0.5,0.3,0.8c0.2,1-0.4,1.7-1.4,1.7c-1.9,0-3.8,0-5.8,0c-0.4,0-0.8,0-1.2,0
	c-1.1-0.2-2.1-0.8-2.9-1.6c-0.9-0.9-1.7-1.9-2.6-2.8c-0.4-0.4-0.8-0.7-1.2-1c-0.7-0.4-1.3-0.2-1.7,0.4c-0.2,0.4-0.4,0.8-0.5,1.2
	c-0.1,0.7-0.2,1.5-0.3,2.2c-0.1,1-0.5,1.4-1.4,1.5c-1.1,0.1-2.2,0.1-3.4,0c-2.7-0.2-5.1-1.1-7.3-2.6C11,20,9.5,18.4,8.1,16.6
	C4.8,12.1,2.2,7.1,0,1.9c0-0.1,0-0.3,0-0.4c0.1-0.4,0.5-0.6,0.9-0.7c0.1,0,0.3,0,0.4,0c2,0,4,0,6,0c0.2,0,0.4,0,0.6,0.1
	c0.6,0.2,0.9,0.7,1.2,1.2c1.1,2.7,2.5,5.3,4.2,7.7c0.3,0.4,0.7,0.9,1.1,1.3c0.2,0.2,0.5,0.4,0.8,0.5c0.4,0.2,0.8,0.1,1-0.3
	c0.1-0.2,0.2-0.4,0.3-0.7c0.2-0.7,0.3-1.3,0.3-2c0.1-1.7,0.1-3.3-0.2-5c-0.1-0.9-0.6-1.6-1.4-1.9c-0.2-0.1-0.4-0.1-0.7-0.2
	c-0.4-0.1-0.4-0.2-0.2-0.6C14.7,0.5,15.2,0.1,15.9,0z"/>
        </g>
    </symbol>
    <symbol id="hint" viewBox="0 0 496.2 496.2">
        <g>
            <path class="st0" d="M248.1,28c29.7,0,58.5,5.8,85.7,17.3c26.2,11.1,49.7,27,70,47.2c20.2,20.2,36.1,43.8,47.2,70
	c11.5,27.1,17.3,55.9,17.3,85.7c0,29.7-5.8,58.5-17.3,85.7c-11.1,26.2-27,49.7-47.2,70c-20.2,20.2-43.8,36.1-70,47.2
	c-27.1,11.5-55.9,17.3-85.7,17.3c-29.7,0-58.5-5.8-85.7-17.3c-26.2-11.1-49.7-27-70-47.2c-20.2-20.2-36.1-43.8-47.2-70
	C33.8,306.6,28,277.8,28,248.1s5.8-58.5,17.3-85.7c11.1-26.2,27-49.7,47.2-70c20.2-20.2,43.8-36.1,70-47.2
	C189.5,33.8,218.4,28,248.1,28 M248.1,0C111.1,0,0,111.1,0,248.1s111.1,248.1,248.1,248.1s248.1-111.1,248.1-248.1S385.1,0,248.1,0
	L248.1,0z M310,350.9c-1.3-1.9-3.7-2.5-5.8-1.6c-22.7,10.7-48.4,22.1-53.4,23.1c-0.1-0.1-0.3-0.3-0.6-0.7c-0.7-0.9-1-2.1-1-3.7
	c0-12.8,9.7-51.8,28.8-115.9c16.1-53.9,18-65,18-68.7c0-5.7-2.2-10.5-6.3-14c-3.9-3.2-9.4-4.9-16.3-4.9c-11.5,0-24.8,4.4-40.7,13.3
	c-15.4,8.7-32.6,23.4-51.1,43.8c-1.4,1.6-1.6,4-0.4,5.7c1.2,1.8,3.5,2.4,5.5,1.6c6.5-2.6,39.1-16,43.9-19c3.9-2.4,7.3-3.7,10-3.7
	c0.1,0,0.2,0,0.3,0c0,0.2,0.1,0.5,0.1,0.9c0,2.8-0.6,6.1-1.7,9.9C211.5,307,198,362.2,198,385.8c0,8.3,2.3,15,6.9,19.9
	c4.6,5,10.9,7.5,18.6,7.5c8.2,0,18.2-3.4,30.5-10.5c11.9-6.8,30.1-21.8,55.7-45.8C311,355.3,311.3,352.8,310,350.9z M309.1,90
	c-4.5-4.6-10.4-7-17.3-7c-8.6,0-16.1,3.4-22.3,10.1c-6.1,6.6-9.2,14.7-9.2,24.1c0,7.4,2.3,13.5,6.8,18.2c4.5,4.8,10.3,7.2,17,7.2
	c8.3,0,15.7-3.6,22.2-10.7c6.3-7,9.6-15.2,9.6-24.3C315.9,100.5,313.6,94.6,309.1,90z"/>
        </g>
    </symbol>
    <symbol id="devotion" viewBox="0 0 609.9 609.9">
        <g>
            <path class="st0" d="M357.8,526.3H244.4c-2.8,0-5-2.2-5-5v-33.8H181c-22.2,0-28.9-19.8-29.4-30.3c0-0.1,0-0.1,0-0.2V154.2
		c0-11.2,3.4-20.1,10-26.4c10.1-9.6,24.3-9.5,26-9.4h245.6c0.2,0,0.5,0,0.7,0h3.5c2.8,0,5,2.2,5,5v359.1c0,2.8-2.2,5-5,5h-74.6v33.8
		C362.8,524,360.6,526.3,357.8,526.3z M249.4,516.3h103.4v-50.4H249.4V516.3z M362.8,477.5h69.6V184.6H184c0,0-0.1,0-0.1,0
		c-0.2,0-13.1-0.5-22.2-10.5v282.8c0.1,2.5,1.8,20.7,19.4,20.7h58.4v-13.3c-6.6-4.3-12-11.2-16.1-20.5c-3.8-8.8-5.7-18.7-5.7-29.5
		v-29.7h-23.4c-2.8,0-5-2.2-5-5V239.8c0-2.8,2.2-5,5-5h55.3c1.7-8,8.1-16.8,18.9-16.8c5.1,0,9.2,1.5,12.3,3.5
		c2.3-6.6,8.1-14.5,19.7-14.5c11.5,0,17.3,7.3,19.9,14.6c3.1-2.1,7.1-3.6,12.1-3.6c12.5,0,18.4,8.9,20,16.8h47.9c2.8,0,5,2.2,5,5
		v139.7c0,2.8-2.2,5-5,5h-15.7v34.3c0,23.8-15,38.8-21.8,44.3V477.5z M244.9,455.9h111c5-3.9,18.7-16.6,18.7-37.1V310.4
		c0,0,0-0.1,0-0.1c0,0-0.1-4.4-2-4.7c-5.7-0.9-10.4,2.2-12.7,4.2c-4.2,3.6-6.9,8.7-6.9,13v45.5c0,2.8-2.2,5-5,5s-5-2.2-5-5V239.5
		c0-1.9-0.6-11.5-10.5-11.5c-7,0-9.6,4.9-10.4,6.7v91.2c0,2.8-2.2,5-5,5s-5-2.2-5-5v-94.3c0-1.5-0.4-14.6-11.6-14.6
		c-8.9,0-10.7,8.8-10.9,10.4v98.5c0,2.8-2.2,5-5,5s-5-2.2-5-5v-92c-1.2-1.8-4.7-5.9-11.1-5.9c-6.7,0-9.4,7.6-9.4,10.8v38
		c0,0.1,0,0.1,0,0.2v60.8c0,2.8-2.2,5-5,5c-2.8,0-5-2.2-5-5v-59.4c-1.2-1.5-4.3-4.4-10.2-4.4c-9.8,0-11.2,7.3-11.2,11.6v128.7
		c0,9.4,1.7,18,4.9,25.5C235.8,447.3,239.9,452.7,244.9,455.9z M384.6,374.5h10.7V244.8h-42.4v57.7c0.1-0.1,0.3-0.2,0.4-0.4
		c6.1-5.2,13.7-7.6,20.8-6.5c8.5,1.3,10.6,10.2,10.5,14.7V374.5z M199.2,374.5h18.4v-88.9c0-10.7,6.6-21.6,21.2-21.6
		c4.1,0,7.5,0.9,10.2,2.1v-21.3h-49.9V374.5z M184.1,174.6h231.7c-2.2-2.1-4.3-4.7-6.1-7.7H231.5c-2.8,0-5-2.2-5-5s2.2-5,5-5h174.6
		c-0.3-1.9-0.5-3.9-0.5-6c0-1.4,0.1-2.8,0.3-4.1H189.4c-2.8,0-5-2.2-5-5s2.2-5,5-5h219.5c1.7-3.3,4-6.1,6.4-8.4H187.5
		c-0.1,0-0.2,0-0.2,0c-0.1,0-11.4-0.4-18.8,6.7c-2.9,2.8-4.9,6.4-5.9,10.8c0.1,0.5,0.2,1,0.2,1.5
		C162.7,173.4,182.6,174.5,184.1,174.6z M432.4,129.1c-5.3,2.2-16.8,8.6-16.8,21.8c0,13.8,11.5,20.5,16.8,22.9V129.1z"/>
        </g>
    </symbol>
    <symbol id="motivation" viewBox="0 0 609.9 609.9">
        <g>
            <path class="st0" d="M274,238.8h-35.3c-20.5,0-32.4-15.1-42.9-28.5c-9.8-12.5-18.3-23.2-32.1-23.2H130c-2.8,0-5-2.2-5-5s2.2-5,5-5
		h33.7c18.6,0,29.4,13.7,39.9,27c10,12.7,19.4,24.7,35.1,24.7H274c2.8,0,5,2.2,5,5S276.8,238.8,274,238.8z"/>
            <path class="st0" d="M150,443.8h-20c-2.8,0-5-2.2-5-5s2.2-5,5-5h20c13.8,0,25.9-15,38.7-31c14.5-18,29.4-36.6,49.9-36.6H274
		c2.8,0,5,2.2,5,5s-2.2,5-5,5h-35.3c-15.7,0-29.1,16.7-42.1,32.9C182.8,426.2,168.6,443.8,150,443.8z"/>
            <path class="st0" d="M212.4,271.3h-11.9c-10.2,0-17.4-9.5-24.2-18.7c-7.1-9.5-14.5-19.3-24.6-19.3H130c-2.8,0-5-2.2-5-5s2.2-5,5-5
		h21.7c15.1,0,24.4,12.4,32.6,23.3c5.7,7.6,11,14.7,16.2,14.7h11.9c2.8,0,5,2.2,5,5S215.2,271.3,212.4,271.3z"/>
            <path class="st0" d="M256,203.3c-1.3,0-2.5-0.5-3.5-1.4c-2-1.9-2-5.1-0.1-7.1c1.4-1.4,34.1-34.2,95.2-34.2
		c14.4,0,25.9,4.1,26.4,4.3c2.6,0.9,3.9,3.8,3,6.4c-0.9,2.6-3.8,3.9-6.4,3c-0.1,0-10.4-3.7-23-3.7c-56.7,0-87.8,30.9-88.1,31.2
		C258.6,202.8,257.3,203.3,256,203.3z"/>
            <path class="st0" d="M340.2,476.4c-0.1,0-0.1,0-0.2,0c-0.6,0-14.6-0.5-27.1-2.6c-55.6-9-78.3-42.4-79.3-43.8
		c-1.5-2.3-0.9-5.4,1.4-6.9c2.3-1.5,5.4-0.9,6.9,1.4c0.3,0.5,21.6,31.2,72.5,39.5c12,1.9,25.7,2.4,25.9,2.4c2.8,0.1,4.9,2.4,4.8,5.2
		C345.1,474.3,342.9,476.4,340.2,476.4z"/>
            <path class="st0" d="M399.7,435c-2.1,0-4.1-1.3-4.8-3.5c-0.9-2.6,0.6-5.4,3.2-6.3l0,0c0.2-0.1,21.3-7.1,42-25.8
		c27.2-24.6,41.2-56.8,41.5-95.8c-0.3-39-14.3-71.3-41.5-95.8c-20.7-18.7-41.8-25.7-42-25.8c-2.6-0.9-4.1-3.7-3.2-6.3
		s3.7-4.1,6.3-3.2c0.9,0.3,23,7.6,45.3,27.6c20.2,18.1,44.2,50.3,45.1,101.7c0,0.2,0,0.4,0,0.5c0,0.4,0,0.9,0,1.3c0,0.4,0,0.9,0,1.3
		c0,0.2,0,0.4,0,0.5c-1,51.4-24.9,83.6-45.1,101.7c-22.3,20-44.4,27.3-45.3,27.6C400.7,434.9,400.2,435,399.7,435z"/>
            <path class="st0" d="M523.3,293.9c-2.8,0-5-2.2-5-5c0-82.4-65.1-126.5-93-141.6c-19.2-10.4-38.3-12.7-38.5-12.8
		c-2.7-0.3-4.7-2.8-4.4-5.5c0.3-2.7,2.8-4.7,5.5-4.4c0.9,0.1,21.2,2.6,42.1,13.9c16.3,8.8,40,24.3,60,47.9
		c25.4,29.8,38.2,64.3,38.2,102.5C528.3,291.7,526.1,293.9,523.3,293.9z"/>
            <path class="st0" d="M446.8,459.3c-1.7,0-3.4-0.9-4.3-2.5c-1.4-2.4-0.6-5.4,1.8-6.8c53-30.9,66-78.8,66.1-79.3
		c0.7-2.7,3.4-4.3,6.1-3.6c2.7,0.7,4.3,3.4,3.6,6.1c-0.6,2.1-14.2,52.4-70.7,85.4C448.5,459.1,447.6,459.3,446.8,459.3z"/>
            <path class="st0" d="M140.2,384.4H130c-2.8,0-5-2.2-5-5s2.2-5,5-5h10.2c14.9,0,22.9-10.3,30.6-20.3c6.7-8.6,13.6-17.6,24.5-17.6
		H354c2.8,0,5,2.2,5,5v15l68.8-52.6L359,251.2v15c0,2.8-2.2,5-5,5h-96.5c-2.8,0-5-2.2-5-5s2.2-5,5-5H349v-20.2
		c0-1.9,1.1-3.6,2.8-4.5c1.7-0.8,3.7-0.6,5.3,0.5l81.9,62.7c0.2,0.2,0.4,0.3,0.6,0.5c0.4,0.4,0.7,0.9,1,1.4c0.3,0.7,0.5,1.4,0.5,2.1
		c0,0,0,0,0,0c0,0.7-0.2,1.5-0.5,2.1c-0.2,0.5-0.6,1-1,1.4c-0.2,0.2-0.4,0.4-0.6,0.5L357,370.6c-1.5,1.2-3.5,1.4-5.3,0.5
		c-1.7-0.8-2.8-2.6-2.8-4.5v-20.2H195.3c-5.8,0-10.1,5.2-16.6,13.7C170.4,370.9,160,384.4,140.2,384.4z"/>
            <path class="st0" d="M279.7,308.9H130c-2.8,0-5-2.2-5-5c0-2.8,2.2-5,5-5h149.7c2.8,0,5,2.2,5,5
		C284.7,306.6,282.4,308.9,279.7,308.9z"/>
            <path class="st0" d="M333.3,308.9h-32.9c-2.8,0-5-2.2-5-5c0-2.8,2.2-5,5-5h32.9c2.8,0,5,2.2,5,5
		C338.3,306.6,336.1,308.9,333.3,308.9z"/>
        </g>
    </symbol>
    <symbol id="care" viewBox="0 0 609.9 609.9">
        <g>
            <g>
                <path class="st0" d="M259.3,359.2c-1.9,0-3.7-1.1-4.6-3c-1.1-2.5,0-5.5,2.5-6.6c20.4-9.1,43.2-22.9,64.4-38.8c2.2-1.7,5.3-1.2,7,1
			c1.7,2.2,1.2,5.3-1,7c-21.7,16.3-45.2,30.5-66.3,39.9C260.7,359,260,359.2,259.3,359.2z"/>
                <path class="st0" d="M363.8,283c-1.1,0-2.1-0.3-3.1-1c-2.2-1.7-2.6-4.8-0.9-7c10.9-14.1,25.1-37.9,28.9-58.3
			c2.4-12.7,2.9-31.4-7.9-48c-8.1-12.4-21-21.8-35.4-25.8c-15.2-4.2-32.4-2.3-47.3,5.3c-13.2,6.7-24.4,18.4-34.5,36
			c-1.4,2.4-4.4,3.2-6.8,1.9c-2.4-1.4-3.2-4.4-1.9-6.8c11-19.3,23.7-32.4,38.6-39.9c17.1-8.6,36.9-10.8,54.5-6
			c16.7,4.6,31.7,15.5,41.1,29.9c12.6,19.3,12,40.7,9.3,55.3c-4.1,22.2-18.6,46.9-30.8,62.6C366.8,282.3,365.3,283,363.8,283z"/>
                <path class="st0" d="M259.5,359.2c-0.7,0-1.4-0.1-2-0.4c-1.4-0.6-34.9-15.5-69-42.4c-20.1-15.9-36.2-32.6-47.7-49.7
			c-14.6-21.7-22.1-44.2-22.1-66.7c0-41.3,35.9-69.1,69.5-69.1c43,0,63.7,27.6,75.6,48.3c1.4,2.4,0.5,5.5-1.9,6.8
			c-2.4,1.4-5.5,0.5-6.8-1.9c-11.5-20.2-29.6-43.3-66.9-43.3c-28.7,0-59.5,23.7-59.5,59.1c0,90.1,131.5,149.1,132.8,149.7
			c2.5,1.1,3.7,4.1,2.6,6.6C263.3,358,261.4,359.2,259.5,359.2z"/>
            </g>
            <path class="st0" d="M352.6,205.7c-2.2,0-4.2-1.5-4.8-3.7c-6.2-22.6-23.3-23.6-24-23.7c-2.7-0.1-4.9-2.4-4.8-5.2
		c0.1-2.7,2.3-4.9,5.1-4.8c1,0,25.1,1.1,33.3,31c0.7,2.7-0.8,5.4-3.5,6.1C353.5,205.6,353,205.7,352.6,205.7z"/>
            <path class="st0" d="M363.8,466.4c-2.7,0-4.9-2.1-5-4.8c0,0-0.2-3.7-1.7-9.6c-2.3-8.8-11.7-19.6-21.5-31
		c-9.6-11.1-19.5-22.6-26.1-35.3c-7.4-14.4-5.9-29.5-5.9-30.2c0.3-2.7,2.7-4.7,5.5-4.4c2.7,0.3,4.7,2.8,4.4,5.5
		c0,0.2-1.2,12.9,4.8,24.5c6,11.6,15.5,22.7,24.8,33.3c10.6,12.3,20.7,23.9,23.6,35c1.9,7,2,11.6,2,11.8c0.1,2.8-2.1,5.1-4.8,5.2
		C363.9,466.4,363.8,466.4,363.8,466.4z"/>
            <path class="st0" d="M463.7,463c-2.1,0-4.1-1.4-4.8-3.5c-3.7-11.9-5.4-30.9-5.4-43.5c0-4,0.4-7.4,0.9-12.1
		c1.1-10.1,3.1-27,3.1-69.2c0-23.6-10-41.7-29.6-53.7c-14.9-9.2-29.9-11.3-30.1-11.3c-2.7-0.4-4.7-2.9-4.3-5.6
		c0.4-2.7,2.9-4.7,5.6-4.3c0.7,0.1,17.2,2.4,33.9,12.7c15.7,9.6,34.4,28.3,34.4,62.3c0,42.8-2,60-3.1,70.3c-0.5,4.4-0.9,7.6-0.9,11
		c0,12.3,1.7,30.1,4.9,40.5c0.8,2.6-0.6,5.4-3.3,6.3C464.7,463,464.2,463,463.7,463z"/>
            <path class="st0" d="M381.9,421.4c-0.8,0-1.5-0.2-2.3-0.5c-33.3-16.9-41.5-33.9-47-49.8c-3.3-9.6-3.6-17-3.8-24.2
		c-0.1-4.3-0.3-8.4-1.1-12.8c-2.1-11.3-11.2-28.6-11.3-28.8c-0.1-0.1-0.1-0.2-0.2-0.4l-24.1-56.1c-4.7-10.9-0.3-23.4,10.1-29
		c9.9-5.4,22.4-2.6,29.1,6.4c7.2,9.5,18,24.2,29.2,39.7c19,26.4,52.7,53.4,53.1,53.7c2.2,1.7,2.5,4.9,0.8,7s-4.9,2.5-7,0.8
		c-1.4-1.1-35.1-28.1-54.9-55.7c-11.1-15.5-22-30-29.1-39.5c-3.8-5-10.8-6.6-16.3-3.6c-5.9,3.2-8.3,10.2-5.7,16.3l24,55.9
		c1.1,2.1,9.9,19.2,12.2,31.5c0.9,5.1,1.1,9.7,1.3,14.2c0.2,6.8,0.5,13.1,3.3,21.3c4,11.7,9.6,27.7,42.1,44.2
		c2.5,1.3,3.4,4.3,2.2,6.7C385.5,420.4,383.7,421.4,381.9,421.4z"/>
        </g>
    </symbol>
    <symbol id="cure" viewBox="0 0 609.9 609.9">
        <g>
            <path class="st0" d="M318.8,386.5c-2.8,0-5-2.2-5-5v-55.6c0-2.8,2.2-5,5-5s5,2.2,5,5v55.6C323.8,384.3,321.5,386.5,318.8,386.5z"/>
            <path class="st0" d="M305.1,533.2c-10.3,0-18.7-8.4-18.7-18.7v-79.9c0-2.8,2.2-5,5-5s5,2.2,5,5v79.9c0,4.8,3.9,8.7,8.7,8.7
		s8.7-3.9,8.7-8.7v-79.1c0-2.8,2.2-5,5-5s5,2.2,5,5v79.1C323.8,524.8,315.4,533.2,305.1,533.2z"/>
            <path class="st0" d="M291.3,386.9c-2.8,0-5-2.2-5-5v-56.3c0-2.8,2.2-5,5-5s5,2.2,5,5v56.3C296.3,384.7,294.1,386.9,291.3,386.9z"/>
            <path class="st0" d="M291.3,280.7c-2.8,0-5-2.2-5-5V154.5c-8.9-6.6-13.7-17.3-12.5-28.5c1.5-14.5,13.1-26.2,27.6-27.8
		c8.9-1,17.8,1.9,24.5,7.8c6.6,5.9,10.5,14.5,10.5,23.4c0,10-4.7,19.2-12.7,25.2V275c0,2.8-2.2,5-5,5s-5-2.2-5-5V151.8
		c0-1.7,0.9-3.4,2.4-4.3c6.4-3.9,10.3-10.7,10.3-18.2c0-6.1-2.6-11.9-7.1-15.9c-4.6-4.1-10.5-6-16.7-5.3c-9.9,1.1-17.8,9-18.8,18.9
		c-0.9,8.3,3,16.2,10.1,20.6c1.5,0.9,2.4,2.5,2.4,4.3v123.8C296.3,278.4,294.1,280.7,291.3,280.7z"/>
            <path class="st0" d="M378.4,253.1c-1.4,0-2.8-0.6-3.7-1.7c-1.8-2.1-1.6-5.2,0.4-7.1c4.4-3.9,8-9.3,10.6-16c0.5-1.3,1.5-2.3,2.8-2.8
		c1.3-0.5,2.7-0.5,4,0.1c1.5,0.7,14.9,6.5,21.5-5.9c0.7-1.3,1.8-2.2,3.2-2.5c1.4-0.3,2.8-0.1,4,0.7c1.4,0.9,13.7,8.4,22.3-2.3
		c1.2-1.5,3.1-2.1,4.9-1.8c1.2,0.2,27.6,5.4,43.7-11.6c-12.7-3.1-39-12.7-77.7-42.3c-0.2-0.1-0.3-0.3-0.5-0.4
		c-0.1-0.1-13.9-13.4-32.9-16.4c-9.5-1.5-19,2-25.4,9.3c-6.4,7.4-8.6,17.3-5.8,26.6c1.2,4.1,0.6,7.9-1.9,11.2
		c-6.6,8.8-24,9.5-29.1,9.5c-2.8,0-5-2.2-5-5s2.2-5,5-5c11.2,0,19.1-2.8,21.1-5.5c0.4-0.6,0.6-1.2,0.3-2.4
		c-3.8-12.6-0.8-26.1,7.9-36c8.7-9.9,21.5-14.6,34.5-12.6c21,3.3,36,16.8,38.1,18.9c52.1,39.8,80.3,41.6,80.6,41.6
		c1.8,0.1,3.4,1.1,4.2,2.7c0.8,1.6,0.8,3.5-0.2,5c-16,25.8-46.5,24-56.1,22.7c-9.4,9.5-21.4,7.9-29.2,4.5c-7.6,9.8-19.1,10-27,7.8
		c-3,6.2-6.7,11.3-11.3,15.3C380.8,252.7,379.6,253.1,378.4,253.1z"/>
            <path class="st0" d="M234.2,255.2c-1,0-2.1-0.3-3-1c-5.9-4.3-10.6-10.3-14.1-17.6c-7.9,2.2-19.4,2-27-7.8c-7.8,3.4-19.8,5-29.2-4.5
		c-9.6,1.3-40.1,3.1-56.1-22.7c-0.9-1.5-1-3.4-0.2-5c0.8-1.6,2.5-2.6,4.2-2.6c0.2,0,28.4-1.8,80.6-41.6c2.1-2,17.1-15.6,38.1-18.9
		c12.9-2,25.8,2.7,34.5,12.6c8.7,10,11.7,23.5,7.9,36c-0.3,1-0.1,1.6,0.3,2.1c2.4,3.2,11.7,5.7,21.1,5.7c2.8,0,5,2.2,5,5s-2.2,5-5,5
		c-3.7,0-22.2-0.5-29.1-9.7c-2.4-3.2-3-7-1.9-11c2.8-9.3,0.6-19.2-5.8-26.6c-6.4-7.3-15.9-10.8-25.4-9.3c-19,3-32.8,16.2-32.9,16.4
		c-0.1,0.1-0.3,0.3-0.5,0.4c-38.7,29.6-64.9,39.2-77.7,42.3c16.3,17,43.4,11.6,43.7,11.6c1.8-0.4,3.7,0.3,4.9,1.8
		c8.7,10.8,21,3.2,22.3,2.3c1.2-0.8,2.6-1,4-0.7c1.4,0.4,2.5,1.3,3.2,2.5c6.5,12.4,20,6.6,21.5,5.9c1.3-0.6,2.7-0.6,4-0.1
		c1.3,0.5,2.3,1.5,2.8,2.8c3,7.7,7.3,13.7,12.7,17.7c2.2,1.6,2.7,4.8,1,7C237.2,254.5,235.7,255.2,234.2,255.2z"/>
            <path class="st0" d="M162.8,223.8c-1.3,0-2.6-0.5-3.5-1.5c-2-2-2-5.1,0-7.1l24.9-24.9c2-2,5.1-2,7.1,0c2,2,2,5.1,0,7.1l-24.9,24.9
		C165.3,223.3,164,223.8,162.8,223.8z"/>
            <path class="st0" d="M191.7,227.1c-1.3,0-2.6-0.5-3.5-1.5c-2-2-2-5.1,0-7.1l19.8-19.8c2-2,5.1-2,7.1,0c2,2,2,5.1,0,7.1l-19.8,19.8
		C194.3,226.7,193,227.1,191.7,227.1z"/>
            <path class="st0" d="M219.8,235.2c-1.3,0-2.6-0.5-3.5-1.5c-2-2-2-5.1,0-7.1l18.2-18.2c2-2,5.1-2,7.1,0c2,2,2,5.1,0,7.1l-18.2,18.2
		C222.3,234.7,221.1,235.2,219.8,235.2z"/>
            <path class="st0" d="M447.6,223.8c-1.3,0-2.6-0.5-3.5-1.5l-24.9-24.9c-2-2-2-5.1,0-7.1c2-2,5.1-2,7.1,0l24.9,24.9c2,2,2,5.1,0,7.1
		C450.1,223.3,448.8,223.8,447.6,223.8z"/>
            <path class="st0" d="M418.6,227.1c-1.3,0-2.6-0.5-3.5-1.5l-19.8-19.8c-2-2-2-5.1,0-7.1c2-2,5.1-2,7.1,0l19.8,19.8c2,2,2,5.1,0,7.1
		C421.1,226.7,419.9,227.1,418.6,227.1z"/>
            <path class="st0" d="M390.5,235.2c-1.3,0-2.6-0.5-3.5-1.5l-18.2-18.2c-2-2-2-5.1,0-7.1c2-2,5.1-2,7.1,0l18.2,18.2c2,2,2,5.1,0,7.1
		C393.1,234.7,391.8,235.2,390.5,235.2z"/>
            <path class="st0" d="M274.1,484.2c-1.4,0-2.7-0.6-3.7-1.7c-6.6-7.3-10.5-15.1-11.6-23.1c-2.3-15.9,6.3-32.8,23.1-45.3
		c2.2-1.7,5.3-1.2,7,1c1.7,2.2,1.2,5.3-1,7c-10.6,7.9-21.2,21.5-19.2,35.9c0.9,6,4,12,9.2,17.9c1.8,2.1,1.7,5.2-0.4,7.1
		C276.4,483.7,275.2,484.2,274.1,484.2z"/>
            <path class="st0" d="M326.4,403.6c-1.9,0-3.7-1.1-4.5-2.8c-1.2-2.5-0.1-5.5,2.4-6.7c3.2-1.5,5.7-2.9,7.9-4.3
		c7-4.6,23.2-17,23.9-34.2c0.4-10.8-5.7-22.3-16.3-30.8c-3.9-3.1-8.4-6-13.8-8.6c-2.5-1.2-3.5-4.2-2.2-6.7s4.2-3.5,6.7-2.2
		c6,3,11.1,6.2,15.6,9.8c13.1,10.5,20.6,25.1,20,39c-0.8,21-18.1,35.4-28.4,42.1c-2.5,1.6-5.5,3.3-9,5
		C327.9,403.4,327.1,403.6,326.4,403.6z"/>
            <path class="st0" d="M282,297.9c-0.7,0-1.5-0.2-2.2-0.5c-4.9-2.4-9.2-5-13-7.8c-13.6-10-21.9-23.6-22.6-37.5
		c-0.8-15.1,9.7-32.7,26.6-34.9c2.7-0.3,5.2,1.6,5.6,4.3s-1.6,5.2-4.3,5.6c-11.2,1.4-18.4,14-17.9,24.4c0.6,10.8,7.3,21.8,18.5,29.9
		c3.4,2.5,7.2,4.7,11.6,6.9c2.5,1.2,3.5,4.2,2.2,6.7C285.6,296.9,283.8,297.9,282,297.9z"/>
            <path class="st0" d="M336.8,483.3c-1.2,0-2.3-0.4-3.3-1.2c-2.1-1.8-2.3-5-0.5-7.1c4.8-5.6,7.7-11.3,8.5-17.1
		c2.1-14.4-8.5-28-19.2-35.9c-6.3-4.7-16.1-8.7-25.5-12.5c-8.7-3.5-17.6-7.1-24.3-11.5c-10.2-6.7-27.6-21.1-28.4-42.1
		c-0.5-13.9,6.9-28.5,20-39c10.9-8.7,23.5-13.7,37.8-18.9l1.2-0.4c11.9-4.3,24.3-8.8,34.4-16.2c11.2-8.2,17.9-19.1,18.5-29.9
		c0.5-10.4-6.7-23-17.9-24.4c-2.7-0.3-4.7-2.8-4.3-5.6c0.3-2.7,2.8-4.7,5.6-4.3c16.9,2.1,27.4,19.8,26.6,34.9
		c-0.7,13.9-8.9,27.5-22.6,37.5c-11.2,8.2-24.3,12.9-36.9,17.5l-1.2,0.4c-13.4,4.9-25.3,9.6-34.9,17.3c-10.6,8.5-16.7,20-16.3,30.8
		c0.7,17.1,16.9,29.6,23.9,34.2c5.8,3.8,14,7.1,22.6,10.6c10,4,20.4,8.2,27.8,13.7c16.7,12.5,25.4,29.4,23.1,45.3
		c-1.1,7.7-4.7,15.1-10.8,22.2C339.6,482.7,338.2,483.3,336.8,483.3z"/>
            <path class="st0" d="M305.1,142.9c-8.3,0-15-6.7-15-15s6.7-15,15-15s15,6.7,15,15S313.3,142.9,305.1,142.9z M305.1,122.9
		c-2.8,0-5,2.3-5,5s2.3,5,5,5c2.8,0,5-2.3,5-5S307.8,122.9,305.1,122.9z"/>
            <path class="st0" d="M354.2,206.4c-1.8,0-3.6-1-4.4-2.7c-1-2-0.6-4.5,1.1-6c1.1-1,2.1-2,2.8-3.1c3.8-5.1,4.8-11.3,3-17.5
		c-3-10,2.1-17.2,4.4-19.9c1.9-2.2,7.2-7.2,15.6-7.2c1.1,0,2.2,0.1,3.3,0.3c15.9,2.5,27.6,13.1,28.9,14.3c0,0,0.1,0.1,0.1,0.1
		l0.5,0.5l1.5,1.1c1.7,1.3,2.4,3.4,1.8,5.4c-0.6,2-2.4,3.4-4.5,3.5l-12.1,0.7c-4.2,0.2-7.9,0.6-10.2,2.4c-2,1.5-3.3,4.2-4.8,7.3
		c-0.8,1.6-1.6,3.3-2.6,5c-4.7,7.9-13,13.4-23.4,15.6C354.9,206.4,354.5,206.4,354.2,206.4z M376.6,160c-4.3,0-7.1,2.7-8.1,3.8
		c-1.5,1.7-3.8,5.4-2.3,10.4c1.6,5.2,1.7,10.4,0.6,15.3c1.3-1.2,2.3-2.6,3.2-4.1c0.8-1.3,1.4-2.7,2.1-4.2c1.8-3.7,3.8-8,7.8-11
		c4.4-3.3,9.8-4,14.2-4.2c-4.1-2.5-9.6-5-15.7-6C377.7,160.1,377.1,160,376.6,160z"/>
            <path class="st0" d="M255.8,206.4c-0.3,0-0.7,0-1-0.1c-10.3-2.2-18.6-7.8-23.4-15.6c-1-1.7-1.8-3.4-2.6-5c-1.5-3.1-2.7-5.8-4.8-7.3
		c-2.3-1.8-6-2.1-10.2-2.3l-12.1-0.7c-2.1-0.1-3.9-1.5-4.5-3.5c-0.6-2,0.1-4.2,1.8-5.4l1.5-1.1l0.5-0.5c0,0,0.1-0.1,0.1-0.1
		c0.5-0.4,12.7-11.8,28.9-14.3c1.1-0.2,2.2-0.3,3.3-0.3c8.4,0,13.7,5.1,15.6,7.2c2.3,2.7,7.4,9.9,4.4,19.9c-1.9,6.2-0.8,12.4,3,17.5
		c0.8,1,1.7,2,2.8,3.1c1.7,1.5,2.1,4,1.1,6C259.4,205.4,257.6,206.4,255.8,206.4z M215.9,166.2c4.3,0.3,9.7,0.9,14.1,4.2
		c4,3,6,7.2,7.8,11c0.7,1.5,1.4,2.9,2.1,4.2c0.9,1.5,2,2.8,3.2,4.1c-1.1-4.9-0.9-10.1,0.6-15.3c1.5-5-0.8-8.7-2.3-10.4
		c-1-1.1-3.8-3.8-8.1-3.8c-0.6,0-1.2,0-1.8,0.1C225.5,161.1,220.1,163.7,215.9,166.2z"/>
        </g>
    </symbol>
    <symbol id="reputation" viewBox="0 0 609.9 609.9">
        <g>
            <g>
                <path class="st0" d="M296.1,480c-20,0-41.8-8.2-58.3-21.8c-13.9-11.5-30.5-32.1-30.5-64.7c0-33.2,16.1-53.7,29.6-65
			c16.4-13.7,38-21.6,59.2-21.6c34.8,0,51.3,16.3,52,17c1.9,2,1.9,5.1,0,7.1c-2,1.9-5.1,1.9-7.1,0l0,0c-0.1-0.1-14.6-14-44.9-14
			c-32.7,0-78.8,23.8-78.8,76.6c0,50,45.8,76.6,78.8,76.6c33.5,0,79.9-26.6,79.9-76.6c0-2.7-0.5-10.4-2.1-17.2c-0.6-2.7,1-5.4,3.7-6
			c2.7-0.6,5.4,1,6,3.7c1.8,7.4,2.4,15.9,2.4,19.5C385.9,449.9,333.7,480,296.1,480z"/>
                <path class="st0" d="M293.6,430.1c-1.4,0-2.7-0.6-3.7-1.6l-35.3-38.8c-1.9-2-1.7-5.2,0.3-7.1c2-1.9,5.2-1.7,7.1,0.3l31.6,34.7
			l99.8-109.9c1.9-2,5-2.2,7.1-0.3c2,1.9,2.2,5,0.3,7.1L297.3,428.5C296.3,429.5,295,430.1,293.6,430.1
			C293.6,430.1,293.6,430.1,293.6,430.1z"/>
            </g>
            <g>
                <path class="st0" d="M345,275.4c-0.8,0-1.7-0.2-2.4-0.6l-38-20.9l-38,20.9c-1.7,1-3.9,0.8-5.4-0.4c-1.6-1.2-2.3-3.2-1.8-5.1
			l9.7-41.5l-32-27c-1.6-1.3-2.2-3.4-1.5-5.4c0.6-1.9,2.4-3.3,4.4-3.4l42.5-3.2l17.6-39.1c0.8-1.8,2.6-2.9,4.6-2.9s3.8,1.2,4.6,2.9
			l17.6,39.1l42.5,3.2c2,0.1,3.8,1.5,4.4,3.4c0.6,1.9,0,4.1-1.5,5.4l-32,27l9.7,41.5c0.5,1.9-0.3,3.9-1.8,5.1
			C347.2,275.1,346.1,275.4,345,275.4z M304.7,243.2c0.8,0,1.7,0.2,2.4,0.6l30.5,16.8l-7.9-33.5c-0.4-1.8,0.2-3.8,1.6-5l25-21.1
			l-33.3-2.5c-1.8-0.1-3.4-1.3-4.2-2.9L304.7,164l-14.2,31.7c-0.8,1.7-2.4,2.8-4.2,2.9L253,201l25,21.1c1.4,1.2,2.1,3.1,1.6,5
			l-7.9,33.5l30.5-16.8C303,243.4,303.8,243.2,304.7,243.2z"/>
                <g>
                    <path class="st0" d="M434.9,284.2c-0.8,0-1.7-0.2-2.4-0.6l-30.4-17l-30.1,17c-1.7,1-3.9,0.8-5.5-0.4c-1.6-1.2-2.3-3.2-1.9-5.1
				l7.7-33.2l-8.3-7c-2.1-1.8-2.4-4.9-0.6-7c1.8-2.1,4.9-2.4,7-0.6l10.6,8.9c1.4,1.2,2.1,3.1,1.7,5l-5.8,25.1l22.6-12.8
				c1.5-0.9,3.4-0.9,4.9,0l23.1,12.9l-5.6-24.8c-0.4-1.8,0.2-3.6,1.6-4.9l18.9-16.6l-25.2-2.6c-1.7-0.2-3.2-1.2-4-2.8l-11.1-23.2
				L392,217.5c-1.1,2.5-4.1,3.7-6.6,2.6c-2.5-1.1-3.7-4.1-2.6-6.6l14.5-33c0.8-1.8,2.5-3,4.5-3c1.9-0.1,3.7,1.1,4.6,2.8l14.6,30.5
				l33.8,3.5c2,0.2,3.6,1.6,4.2,3.5c0.6,1.9,0,4-1.5,5.3l-25.2,22.2l7.4,32.8c0.4,1.9-0.3,3.9-1.9,5.1
				C437,283.9,436,284.2,434.9,284.2z"/>
                    <path class="st0" d="M457,298.1c-1.1,0-2.1-0.3-3-1c-1.6-1.2-2.3-3.2-1.9-5.1l5.4-23.4l-5.4-4.5c-2.1-1.8-2.4-4.9-0.6-7
				c1.8-2.1,4.9-2.4,7-0.6l7.7,6.5c1.4,1.2,2.1,3.1,1.7,5l-3.6,15.3l13.8-7.8c1.5-0.9,3.4-0.9,4.9,0l14.2,7.9l-3.4-15.1
				c-0.4-1.8,0.2-3.6,1.6-4.9l11.4-10.1l-15.3-1.6c-1.7-0.2-3.2-1.2-4-2.8l-6.8-14.2l-6.2,14.1c-1.1,2.5-4.1,3.7-6.6,2.6
				c-2.5-1.1-3.7-4.1-2.6-6.6l10.6-24.1c0.8-1.8,2.5-3,4.5-3c0,0,0.1,0,0.1,0c1.9,0,3.7,1.1,4.5,2.8l10.3,21.5l23.9,2.5
				c2,0.2,3.6,1.6,4.2,3.5c0.6,1.9,0,4-1.5,5.3l-17.8,15.7l5.2,23.1c0.4,1.9-0.3,3.9-1.9,5.1c-1.6,1.2-3.7,1.3-5.4,0.4l-21.5-12
				l-21.3,12C458.7,297.9,457.9,298.1,457,298.1z"/>
                </g>
                <g>
                    <path class="st0" d="M239.8,284.2c-0.8,0-1.7-0.2-2.5-0.6l-30.1-17l-30.4,17c-1.7,1-3.9,0.8-5.4-0.4c-1.6-1.2-2.3-3.2-1.9-5.1
				l7.4-32.8L151.7,223c-1.5-1.3-2.1-3.4-1.5-5.3c0.6-1.9,2.3-3.2,4.2-3.5l33.8-3.5l14.6-30.5c0.8-1.7,2.6-2.8,4.5-2.8
				c0,0,0.1,0,0.1,0c2,0,3.7,1.2,4.5,3l14.5,33c1.1,2.5,0,5.5-2.6,6.6c-2.5,1.1-5.5,0-6.6-2.6l-10.1-23.1l-11.1,23.2
				c-0.8,1.6-2.3,2.6-4,2.8l-25.2,2.6l18.9,16.6c1.4,1.2,2,3.1,1.6,4.9l-5.6,24.8l23.1-12.9c1.5-0.9,3.4-0.8,4.9,0l22.6,12.8
				l-5.8-25.1c-0.4-1.8,0.2-3.7,1.7-5l10.6-8.9c2.1-1.8,5.3-1.5,7,0.6c1.8,2.1,1.5,5.3-0.6,7l-8.3,7l7.7,33.2
				c0.4,1.9-0.3,3.9-1.9,5.1C241.9,283.9,240.8,284.2,239.8,284.2z"/>
                    <path class="st0" d="M104.7,298.1c-1.1,0-2.1-0.3-3-1c-1.6-1.2-2.3-3.2-1.9-5.1l5.2-23.1l-17.8-15.7c-1.5-1.3-2.1-3.4-1.5-5.3
				c0.6-1.9,2.3-3.2,4.2-3.5l23.9-2.5l10.3-21.5c0.8-1.8,2.6-2.9,4.6-2.8c2,0,3.7,1.2,4.5,3l10.6,24.1c1.1,2.5,0,5.5-2.6,6.6
				c-2.5,1.1-5.5,0-6.6-2.6l-6.2-14.1l-6.8,14.2c-0.8,1.6-2.3,2.6-4,2.8l-15.3,1.6l11.4,10.1c1.4,1.2,2,3.1,1.6,4.9l-3.4,15.1
				l14.2-7.9c1.5-0.9,3.4-0.8,4.9,0l13.8,7.8l-3.6-15.3c-0.4-1.8,0.2-3.7,1.7-5l7.7-6.5c2.1-1.8,5.3-1.5,7,0.6
				c1.8,2.1,1.5,5.3-0.6,7l-5.4,4.5l5.4,23.4c0.4,1.9-0.3,3.9-1.9,5.1c-1.6,1.2-3.7,1.3-5.5,0.4l-21.3-12l-21.5,12
				C106.4,297.9,105.5,298.1,104.7,298.1z"/>
                </g>
            </g>
        </g>
    </symbol>
    <symbol id="location" viewBox="0 0 609.9 609.9">
        <g>
            <g>
                <path class="st0" d="M304.1,408.3c0,0-0.1,0-0.1,0c-0.6,0-1.3-0.2-1.9-0.4c-0.6-0.3-1.1-0.6-1.6-1.1c-0.1-0.1-0.2-0.3-0.4-0.4
			c-1.4-1.8-24.7-31-47.6-70.4c-31.8-54.7-47.9-101.9-47.9-140.3c0-45.3,23.3-69.6,42.8-82.1c22.2-14.2,46.8-17.9,56.7-17.9
			c15.7,0,39.6,4.7,59.5,18c26.2,17.4,40,45.8,40,82c0,38.4-16.1,85.6-47.9,140.3c-22.9,39.3-46.1,68.5-47.6,70.4
			c-0.1,0.2-0.3,0.3-0.4,0.5c-0.4,0.4-0.9,0.7-1.4,1C305.6,408.2,304.8,408.3,304.1,408.3z M304.1,105.7c-7.2,0-30.3,2.9-51.3,16.3
			c-25.3,16.1-38.2,40.9-38.2,73.7c0,77.3,71.8,176.3,89.5,199.5c17.7-23.2,89.5-122.3,89.5-199.5
			C393.6,106.7,307.7,105.7,304.1,105.7z"/>
                <path class="st0" d="M287.9,253c0,0-0.1,0-0.1,0c-1.5,0-3-0.8-3.9-2l-35.3-47.3c-1.7-2.2-1.2-5.3,1-7c2.2-1.7,5.3-1.2,7,1
			l31.5,42.3l63.9-76.5c1.8-2.1,4.9-2.4,7-0.6c2.1,1.8,2.4,4.9,0.6,7l-68,81.3C290.8,252.3,289.4,253,287.9,253z"/>
            </g>
            <path class="st0" d="M304.1,459.6C304.1,459.6,304.1,459.6,304.1,459.6c-0.1,0-0.1,0-0.1,0c-1.6,0-49.5-1.2-96.9-8
		c-67.7-9.7-100.6-25.5-100.6-48.4c0-14.2,18.6-26.7,55.2-37.1c27.4-7.8,58.4-12.5,72.5-12.5c2.8,0,5,2.2,5,5s-2.2,5-5,5
		c-13.1,0-43.5,4.6-69.7,12.1c-35.3,10.1-47.9,20.8-47.9,27.5c0,16,33.5,30.1,92,38.5c46.2,6.6,93.1,7.8,95.6,7.9
		c2.5-0.1,49.4-1.2,95.7-7.9c58.4-8.4,91.9-22.4,91.9-38.4c0-6.7-12.6-17.4-47.9-27.5c-26.2-7.5-56.6-12.1-69.7-12.1
		c-2.8,0-5-2.2-5-5s2.2-5,5-5c14.1,0,45.1,4.7,72.5,12.5c36.6,10.5,55.2,23,55.2,37.1c0,22.8-32.9,38.6-100.6,48.4
		c-47.3,6.8-95.3,7.9-96.9,8C304.2,459.6,304.1,459.6,304.1,459.6z"/>
        </g>
    </symbol>
    <symbol id="arrow-left" viewBox="0 0 132.6 240.8">
        <g>
            <path id="Chevron_Right_1_" class="st0" d="M3.5,129l108.3,108.3c4.7,4.7,12.4,4.7,17.2,0c4.8-4.8,4.8-12.5,0-17.2l-99.7-99.6
		L129,20.8c4.8-4.8,4.8-12.5,0-17.2c-4.7-4.8-12.4-4.8-17.2,0L3.5,111.8C-1.2,116.5-1.2,124.3,3.5,129z"/>
        </g>
    </symbol>
    <symbol id="arrow-right" viewBox="0 0 132.6 240.8">
        <g>
            <path id="Chevron_Right_1_" class="st0" d="M129.1,111.8L20.8,3.6C16-1.2,8.3-1.2,3.6,3.6c-4.8,4.7-4.8,12.4,0,17.2l99.7,99.7
		L3.6,220.1c-4.8,4.7-4.8,12.4,0,17.2c4.8,4.7,12.5,4.7,17.2,0L129.1,129C133.8,124.3,133.8,116.5,129.1,111.8z"/>
        </g>
    </symbol>
    <symbol id="email" viewBox="0 0 188.2 188.2">
        <g>
            <path class="st0" d="M152,28.2H36.1c-1.9,0-3.5-1.6-3.5-3.5s1.6-3.5,3.5-3.5H152c1.9,0,3.5,1.6,3.5,3.5S153.9,28.2,152,28.2z"/>
            <path class="st0" d="M152.2,155.2H35.9c-14.4,0-26.1-11.7-26.1-26.1V64.8c0-14.4,11.7-26.1,26.1-26.1h116.3
		c14.4,0,26.1,11.7,26.1,26.1V129C178.4,143.4,166.6,155.2,152.2,155.2z M35.9,45.6c-10.6,0-19.1,8.6-19.1,19.1V129
		c0,10.6,8.6,19.1,19.1,19.1h116.3c10.6,0,19.1-8.6,19.1-19.1V64.8c0-10.6-8.6-19.1-19.1-19.1H35.9V45.6z"/>
            <path class="st0" d="M94,106.4c-2.8,0-5.7-0.9-8-2.8l-67.4-53c-1.5-1.2-1.8-3.4-0.6-4.9c1.2-1.5,3.4-1.8,4.9-0.6l67.4,53
		c2.2,1.7,5.2,1.7,7.4,0l67.4-53c1.5-1.2,3.7-0.9,4.9,0.6s0.9,3.7-0.6,4.9l-67.4,53C99.7,105.5,96.9,106.4,94,106.4z"/>
            <g>
                <path class="st0" d="M19.5,147.9c-1,0-2.1-0.5-2.7-1.3c-1.2-1.5-1-3.7,0.6-4.9l61.6-49c1.5-1.2,3.7-1,4.9,0.6s1,3.7-0.6,4.9
			l-61.6,49C21,147.6,20.2,147.9,19.5,147.9z"/>
                <path class="st0" d="M168.6,147.9c-0.8,0-1.5-0.3-2.2-0.8L104.9,98c-1.5-1.2-1.8-3.4-0.6-4.9c1.2-1.5,3.4-1.8,4.9-0.6l61.5,49.1
			c1.5,1.2,1.8,3.4,0.6,4.9C170.7,147.4,169.7,147.9,168.6,147.9z"/>
            </g>
        </g>
    </symbol>
    <symbol id="user" viewBox="0 0 268.2 268.2">
        <g>
            <path class="st0" d="M201.3,211.4H66.9c-2.8,0-5.4-1.2-7.2-3.2c-1.6-1.9-2.4-4.3-2.1-6.7c3-23.6,18.5-44.4,42.4-57
		c1.2-0.6,2.6-0.5,3.7,0.2c10.9,7.7,17.4,10.9,29.3,10.9c12.6,0,18.5-2,31.6-10.5c1.1-0.7,2.4-0.8,3.5-0.2
		c24.1,12.7,39.6,33.3,42.6,56.5c0.3,2.5-0.4,4.8-2.1,6.7C206.7,210.2,204.1,211.4,201.3,211.4z M101.4,151.7
		c-20.8,11.6-34.2,30-36.8,50.7c-0.1,0.4,0.1,0.8,0.4,1.2c0.5,0.5,1.2,0.8,2,0.8h134.4c0.8,0,1.5-0.3,2-0.8c0.3-0.4,0.4-0.8,0.4-1.2
		c-3.5-27.4-24-43-37.1-50.2c-13.1,8.3-20.3,10.5-33.7,10.5C118.9,162.6,111,158.3,101.4,151.7z"/>
            <path class="st0" d="M134.1,148.7c-11.3,0-22.1-4.2-30.6-11.7c-1-0.9-1.9-1.7-2.7-2.6c0,0,0,0,0,0c-1-1.1-1.8-1.9-2.5-2.8
		c-6.6-8.2-10.2-18.4-10.2-28.8c0-25.4,20.6-46,46-46c25.4,0,46,20.6,46,46c0,10.4-3.6,20.7-10.2,28.8c-0.7,0.9-1.5,1.8-2.5,2.8
		c-0.8,0.9-1.7,1.7-2.7,2.6C156.2,144.6,145.4,148.7,134.1,148.7z M105.9,129.6c0.7,0.7,1.4,1.5,2.3,2.2c7.2,6.4,16.4,10,25.9,10
		c9.5,0,18.7-3.5,25.9-10c0.8-0.8,1.6-1.5,2.3-2.2c0.8-0.9,1.5-1.7,2.1-2.4c5.7-7,8.7-15.5,8.7-24.4c0-21.5-17.5-39-39-39
		s-39,17.5-39,39c0,9,3,17.4,8.7,24.4C104.4,127.9,105,128.7,105.9,129.6L105.9,129.6z"/>
        </g>
    </symbol>
</svg>