<?xml version="1.0" encoding="utf-8"?>
<!-- Generator: Adobe Illustrator 22.0.0, SVG Export Plug-In . SVG Version: 6.00 Build 0)  -->
<svg version="1.1" id="Слой_1" xmlns="http://www.w3.org/2000/svg" xmlns:xlink="http://www.w3.org/1999/xlink" x="0px" y="0px"
	 viewBox="0 0 188.2 188.2" style="enable-background:new 0 0 188.2 188.2;" xml:space="preserve">
<style type="text/css">
	.st0{fill:#A3A3A3;}
</style>
<g>
	<path class="st0" d="M148.9,160.1H39.5c-14.7,0-26.6-11.9-26.6-26.6V55.2c0-14.7,11.9-26.6,26.6-26.6h109.4
		c14.7,0,26.6,11.9,26.6,26.6v78.3C175.5,148.1,163.5,160.1,148.9,160.1z M39.5,35.6c-10.8,0-19.6,8.8-19.6,19.6v78.3
		c0,10.8,8.8,19.6,19.6,19.6h109.4c10.8,0,19.6-8.8,19.6-19.6V55.2c0-10.8-8.8-19.6-19.6-19.6H39.5z"/>
	<g>
		<path class="st0" d="M55.9,48.7c-1.9,0-3.5-1.6-3.5-3.5V19c0-1.9,1.6-3.5,3.5-3.5s3.5,1.6,3.5,3.5v26.2
			C59.4,47.2,57.8,48.7,55.9,48.7z"/>
		<path class="st0" d="M132.5,48.7c-1.9,0-3.5-1.6-3.5-3.5V19c0-1.9,1.6-3.5,3.5-3.5s3.5,1.6,3.5,3.5v26.2
			C136,47.2,134.4,48.7,132.5,48.7z"/>
	</g>
	<path class="st0" d="M157.8,64.4H30.6c-1.9,0-3.5-1.6-3.5-3.5s1.6-3.5,3.5-3.5h127.3c1.9,0,3.5,1.6,3.5,3.5S159.8,64.4,157.8,64.4z
		"/>
</g>
</svg>
