<?xml version="1.0" encoding="utf-8"?>
<!-- Generator: Adobe Illustrator 22.0.0, SVG Export Plug-In . SVG Version: 6.00 Build 0)  -->
<svg version="1.1" id="Слой_1" xmlns="http://www.w3.org/2000/svg" xmlns:xlink="http://www.w3.org/1999/xlink" x="0px" y="0px"
	 viewBox="0 0 188.2 188.2" style="enable-background:new 0 0 188.2 188.2;" xml:space="preserve">
<style type="text/css">
	.st0{fill:#FFFFFF;}
</style>
<g>
	<path class="st0" d="M94.1,166.3c-39.8,0-72.2-32.4-72.2-72.2s32.4-72.2,72.2-72.2c1.9,0,3.5,1.6,3.5,3.5s-1.6,3.5-3.5,3.5
		c-36,0-65.2,29.3-65.2,65.2s29.3,65.2,65.2,65.2c36,0,65.2-29.3,65.2-65.2c0-18.6-7.9-36.3-21.8-48.7c-1.4-1.3-1.6-3.5-0.3-4.9
		s3.5-1.6,4.9-0.3c15.3,13.7,24.1,33.3,24.1,53.9C166.3,133.9,133.9,166.3,94.1,166.3z"/>
	<path class="st0" d="M94.1,188.1c-37.7,0-71.6-22.4-86.4-57c-0.8-1.8,0.1-3.8,1.8-4.6c1.8-0.8,3.8,0.1,4.6,1.8
		c13.7,32,45.1,52.8,80,52.8c48,0,87-39,87-87s-39-87-87-87s-87,39-87,87c0,1.9-1.6,3.5-3.5,3.5S0.1,96,0.1,94.1
		c0-51.8,42.2-94,94-94s94,42.2,94,94S145.9,188.1,94.1,188.1z"/>
	<path class="st0" d="M112.1,115.4c-0.9,0-1.8-0.3-2.5-1l-19-18.8v-49c0-1.9,1.6-3.5,3.5-3.5s3.5,1.6,3.5,3.5v46l17,16.8
		c1.4,1.4,1.4,3.6,0,4.9C113.9,115.1,113,115.4,112.1,115.4z"/>
</g>
</svg>
