<?xml version="1.0" encoding="utf-8"?>
<!-- Generator: Adobe Illustrator 22.0.0, SVG Export Plug-In . SVG Version: 6.00 Build 0)  -->
<svg version="1.1" id="Capa_1" xmlns="http://www.w3.org/2000/svg" xmlns:xlink="http://www.w3.org/1999/xlink" x="0px" y="0px"
	 viewBox="0 0 268.2 268.2" style="enable-background:new 0 0 268.2 268.2;" xml:space="preserve">
<style type="text/css">
	.st0{fill:#16B4B7;}
</style>
<path class="st0" d="M189.4,184.4l-50.3-50.3l50.2-50.3c1.4-1.4,1.4-3.6,0-5c-1.3-1.4-3.5-1.4-4.9,0l-50.3,50.3L83.8,78.8
	c-1.4-1.4-3.6-1.4-5,0c-1.4,1.4-1.4,3.6,0,5l50.3,50.3l-50.3,50.4c-1.4,1.3-1.4,3.5,0,4.9c0.7,0.7,1.6,1,2.5,1c0.9,0,1.8-0.3,2.5-1
	l50.3-50.3l50.3,50.3c0.7,0.7,1.6,1,2.5,1c0.9,0,1.8-0.3,2.5-1.1C190.8,188,190.8,185.8,189.4,184.4z"/>
</svg>
