<?xml version="1.0" encoding="utf-8"?>
<!-- Generator: Adobe Illustrator 22.0.0, SVG Export Plug-In . SVG Version: 6.00 Build 0)  -->
<svg version="1.1" id="Слой_1" xmlns="http://www.w3.org/2000/svg" xmlns:xlink="http://www.w3.org/1999/xlink" x="0px" y="0px"
	 viewBox="0 0 609.9 609.9" style="enable-background:new 0 0 609.9 609.9;" xml:space="preserve">
<style type="text/css">
	.st0{fill:#FFFFFF;}
</style>
<g>
	<path class="st0" d="M357.8,526.3H244.4c-2.8,0-5-2.2-5-5v-33.8H181c-22.2,0-28.9-19.8-29.4-30.3c0-0.1,0-0.1,0-0.2V154.2
		c0-11.2,3.4-20.1,10-26.4c10.1-9.6,24.3-9.5,26-9.4h245.6c0.2,0,0.5,0,0.7,0h3.5c2.8,0,5,2.2,5,5v359.1c0,2.8-2.2,5-5,5h-74.6v33.8
		C362.8,524,360.6,526.3,357.8,526.3z M249.4,516.3h103.4v-50.4H249.4V516.3z M362.8,477.5h69.6V184.6H184c0,0-0.1,0-0.1,0
		c-0.2,0-13.1-0.5-22.2-10.5v282.8c0.1,2.5,1.8,20.7,19.4,20.7h58.4v-13.3c-6.6-4.3-12-11.2-16.1-20.5c-3.8-8.8-5.7-18.7-5.7-29.5
		v-29.7h-23.4c-2.8,0-5-2.2-5-5V239.8c0-2.8,2.2-5,5-5h55.3c1.7-8,8.1-16.8,18.9-16.8c5.1,0,9.2,1.5,12.3,3.5
		c2.3-6.6,8.1-14.5,19.7-14.5c11.5,0,17.3,7.3,19.9,14.6c3.1-2.1,7.1-3.6,12.1-3.6c12.5,0,18.4,8.9,20,16.8h47.9c2.8,0,5,2.2,5,5
		v139.7c0,2.8-2.2,5-5,5h-15.7v34.3c0,23.8-15,38.8-21.8,44.3V477.5z M244.9,455.9h111c5-3.9,18.7-16.6,18.7-37.1V310.4
		c0,0,0-0.1,0-0.1c0,0-0.1-4.4-2-4.7c-5.7-0.9-10.4,2.2-12.7,4.2c-4.2,3.6-6.9,8.7-6.9,13v45.5c0,2.8-2.2,5-5,5s-5-2.2-5-5V239.5
		c0-1.9-0.6-11.5-10.5-11.5c-7,0-9.6,4.9-10.4,6.7v91.2c0,2.8-2.2,5-5,5s-5-2.2-5-5v-94.3c0-1.5-0.4-14.6-11.6-14.6
		c-8.9,0-10.7,8.8-10.9,10.4v98.5c0,2.8-2.2,5-5,5s-5-2.2-5-5v-92c-1.2-1.8-4.7-5.9-11.1-5.9c-6.7,0-9.4,7.6-9.4,10.8v38
		c0,0.1,0,0.1,0,0.2v60.8c0,2.8-2.2,5-5,5c-2.8,0-5-2.2-5-5v-59.4c-1.2-1.5-4.3-4.4-10.2-4.4c-9.8,0-11.2,7.3-11.2,11.6v128.7
		c0,9.4,1.7,18,4.9,25.5C235.8,447.3,239.9,452.7,244.9,455.9z M384.6,374.5h10.7V244.8h-42.4v57.7c0.1-0.1,0.3-0.2,0.4-0.4
		c6.1-5.2,13.7-7.6,20.8-6.5c8.5,1.3,10.6,10.2,10.5,14.7V374.5z M199.2,374.5h18.4v-88.9c0-10.7,6.6-21.6,21.2-21.6
		c4.1,0,7.5,0.9,10.2,2.1v-21.3h-49.9V374.5z M184.1,174.6h231.7c-2.2-2.1-4.3-4.7-6.1-7.7H231.5c-2.8,0-5-2.2-5-5s2.2-5,5-5h174.6
		c-0.3-1.9-0.5-3.9-0.5-6c0-1.4,0.1-2.8,0.3-4.1H189.4c-2.8,0-5-2.2-5-5s2.2-5,5-5h219.5c1.7-3.3,4-6.1,6.4-8.4H187.5
		c-0.1,0-0.2,0-0.2,0c-0.1,0-11.4-0.4-18.8,6.7c-2.9,2.8-4.9,6.4-5.9,10.8c0.1,0.5,0.2,1,0.2,1.5
		C162.7,173.4,182.6,174.5,184.1,174.6z M432.4,129.1c-5.3,2.2-16.8,8.6-16.8,21.8c0,13.8,11.5,20.5,16.8,22.9V129.1z"/>
</g>
</svg>
