<?xml version="1.0" encoding="utf-8"?>
<!-- Generator: Adobe Illustrator 22.0.0, SVG Export Plug-In . SVG Version: 6.00 Build 0)  -->
<svg version="1.1" id="Слой_1" xmlns="http://www.w3.org/2000/svg" xmlns:xlink="http://www.w3.org/1999/xlink" x="0px" y="0px"
	 viewBox="0 0 188.2 188.2" style="enable-background:new 0 0 188.2 188.2;" xml:space="preserve">
<style type="text/css">
	.st0{fill:#A3A3A3;}
</style>
<g>
	<path class="st0" d="M152,28.2H36.1c-1.9,0-3.5-1.6-3.5-3.5s1.6-3.5,3.5-3.5H152c1.9,0,3.5,1.6,3.5,3.5S153.9,28.2,152,28.2z"/>
	<path class="st0" d="M152.2,155.2H35.9c-14.4,0-26.1-11.7-26.1-26.1V64.8c0-14.4,11.7-26.1,26.1-26.1h116.3
		c14.4,0,26.1,11.7,26.1,26.1V129C178.4,143.4,166.6,155.2,152.2,155.2z M35.9,45.6c-10.6,0-19.1,8.6-19.1,19.1V129
		c0,10.6,8.6,19.1,19.1,19.1h116.3c10.6,0,19.1-8.6,19.1-19.1V64.8c0-10.6-8.6-19.1-19.1-19.1H35.9V45.6z"/>
	<path class="st0" d="M94,106.4c-2.8,0-5.7-0.9-8-2.8l-67.4-53c-1.5-1.2-1.8-3.4-0.6-4.9c1.2-1.5,3.4-1.8,4.9-0.6l67.4,53
		c2.2,1.7,5.2,1.7,7.4,0l67.4-53c1.5-1.2,3.7-0.9,4.9,0.6s0.9,3.7-0.6,4.9l-67.4,53C99.7,105.5,96.9,106.4,94,106.4z"/>
	<g>
		<path class="st0" d="M19.5,147.9c-1,0-2.1-0.5-2.7-1.3c-1.2-1.5-1-3.7,0.6-4.9l61.6-49c1.5-1.2,3.7-1,4.9,0.6s1,3.7-0.6,4.9
			l-61.6,49C21,147.6,20.2,147.9,19.5,147.9z"/>
		<path class="st0" d="M168.6,147.9c-0.8,0-1.5-0.3-2.2-0.8L104.9,98c-1.5-1.2-1.8-3.4-0.6-4.9c1.2-1.5,3.4-1.8,4.9-0.6l61.5,49.1
			c1.5,1.2,1.8,3.4,0.6,4.9C170.7,147.4,169.7,147.9,168.6,147.9z"/>
	</g>
</g>
</svg>
