<?xml version="1.0" encoding="utf-8"?>
<!-- Generator: Adobe Illustrator 22.0.0, SVG Export Plug-In . SVG Version: 6.00 Build 0)  -->
<svg version="1.1" id="Слой_1" xmlns="http://www.w3.org/2000/svg" xmlns:xlink="http://www.w3.org/1999/xlink" x="0px" y="0px"
	 viewBox="0 0 609.9 609.9" style="enable-background:new 0 0 609.9 609.9;" xml:space="preserve">
<style type="text/css">
	.st0{fill:#FFFFFF;}
</style>
<g>
	<g>
		<path class="st0" d="M304.1,408.3c0,0-0.1,0-0.1,0c-0.6,0-1.3-0.2-1.9-0.4c-0.6-0.3-1.1-0.6-1.6-1.1c-0.1-0.1-0.2-0.3-0.4-0.4
			c-1.4-1.8-24.7-31-47.6-70.4c-31.8-54.7-47.9-101.9-47.9-140.3c0-45.3,23.3-69.6,42.8-82.1c22.2-14.2,46.8-17.9,56.7-17.9
			c15.7,0,39.6,4.7,59.5,18c26.2,17.4,40,45.8,40,82c0,38.4-16.1,85.6-47.9,140.3c-22.9,39.3-46.1,68.5-47.6,70.4
			c-0.1,0.2-0.3,0.3-0.4,0.5c-0.4,0.4-0.9,0.7-1.4,1C305.6,408.2,304.8,408.3,304.1,408.3z M304.1,105.7c-7.2,0-30.3,2.9-51.3,16.3
			c-25.3,16.1-38.2,40.9-38.2,73.7c0,77.3,71.8,176.3,89.5,199.5c17.7-23.2,89.5-122.3,89.5-199.5
			C393.6,106.7,307.7,105.7,304.1,105.7z"/>
		<path class="st0" d="M287.9,253c0,0-0.1,0-0.1,0c-1.5,0-3-0.8-3.9-2l-35.3-47.3c-1.7-2.2-1.2-5.3,1-7c2.2-1.7,5.3-1.2,7,1
			l31.5,42.3l63.9-76.5c1.8-2.1,4.9-2.4,7-0.6c2.1,1.8,2.4,4.9,0.6,7l-68,81.3C290.8,252.3,289.4,253,287.9,253z"/>
	</g>
	<path class="st0" d="M304.1,459.6C304.1,459.6,304.1,459.6,304.1,459.6c-0.1,0-0.1,0-0.1,0c-1.6,0-49.5-1.2-96.9-8
		c-67.7-9.7-100.6-25.5-100.6-48.4c0-14.2,18.6-26.7,55.2-37.1c27.4-7.8,58.4-12.5,72.5-12.5c2.8,0,5,2.2,5,5s-2.2,5-5,5
		c-13.1,0-43.5,4.6-69.7,12.1c-35.3,10.1-47.9,20.8-47.9,27.5c0,16,33.5,30.1,92,38.5c46.2,6.6,93.1,7.8,95.6,7.9
		c2.5-0.1,49.4-1.2,95.7-7.9c58.4-8.4,91.9-22.4,91.9-38.4c0-6.7-12.6-17.4-47.9-27.5c-26.2-7.5-56.6-12.1-69.7-12.1
		c-2.8,0-5-2.2-5-5s2.2-5,5-5c14.1,0,45.1,4.7,72.5,12.5c36.6,10.5,55.2,23,55.2,37.1c0,22.8-32.9,38.6-100.6,48.4
		c-47.3,6.8-95.3,7.9-96.9,8C304.2,459.6,304.1,459.6,304.1,459.6z"/>
</g>
</svg>
