<?xml version="1.0" encoding="utf-8"?>
<!-- Generator: Adobe Illustrator 22.0.0, SVG Export Plug-In . SVG Version: 6.00 Build 0)  -->
<svg version="1.1" id="Layer_1" xmlns="http://www.w3.org/2000/svg" xmlns:xlink="http://www.w3.org/1999/xlink" x="0px" y="0px"
	 viewBox="0 0 646.2 130" style="enable-background:new 0 0 646.2 130;" xml:space="preserve">
<style type="text/css">
	.st0{fill:#4B4B4B;}
	.st1{fill:#797979;}
</style>
<path class="st0" d="M139.2,50.3c1.1,0,2.2,0.2,3.3,0.3c1.2,0.1,2.5,0.3,3.7,0.3c1.2,0,2.5-0.1,3.7-0.3c1.1-0.1,2.2-0.3,3.3-0.3
	l2.2,0l0,2.5l-1.4,0c-3.7,0-3.5,4.9-3.5,9l0,22.8c0,2.7,0.2,8.2,3.6,8.2l1.3,0l0,2.5l-2.4,0c-1.1,0-2.1-0.3-3.2-0.5
	c-1.2-0.2-2.5-0.3-3.7-0.3c-1.2,0-2.5,0.1-3.7,0.3c-1.1,0.2-2.1,0.5-3.2,0.5l-2.4,0l0-2.5l1.3,0c3.5,0,3.7-5.5,3.7-8.2l0-22.8
	c0-4.1,0.2-9-3.4-9l-1.4,0l0-2.5L139.2,50.3z M164,50.4l1.4,0c0.7,0,1.4,0.1,2.1,0.1c1.6,0.2,3.1,0.5,4.7,0.5c1.4,0,2.9-0.2,4.3-0.4
	c0.7-0.1,1.3-0.2,2-0.2l1.5,0l0,2.5l-0.9,0c-3.9,0-4.2,0.9-14.5,10c-5.7,5-3.7,3.2-5.8,5.3c-0.8,0.8-1.3,1.2-2.2,2
	c5,1.8,7,4.9,9,7.8c2.3,3.2,4.7,6.5,6.8,9.8c1.4,2.1,3,5.1,5,5.1c0.5,0,1.5,0,3.8-1l0,2.6c-3.3,0.9-3.8,1.4-6.4,1.4
	c-5.4,0-7.6-3.3-12.1-9.5c-1.9-2.5-6.3-8.7-11.1-14.2c4-4.1,6.5-7,9.2-9.4c2.3-2.1,5.5-4.6,6.2-7.6c0.3-1.3-0.5-2.2-1.5-2.2l-1.5,0
	L164,50.4z"/>
<path class="st0" d="M185.5,77.2c-0.2-0.6-0.3-1.3-0.3-1.9c0-4.8,4.2-6.8,9.8-8.6c2.5-0.8,5-1.4,7.6-1.4c2.5,0,7.2,0.6,7.2,8.3
	c0,1.7-0.2,3.3-0.3,5c-0.7,6.6-1.1,8.3-1.1,10c0,2.3,1.1,3.7,2,3.7c1.4,0,4.5-2.8,5.4-3.8l0,3.3c-4.3,3.5-6.8,4.9-8.9,4.9
	c-3.4,0-5-2.7-5.4-4.9c-3.3,3.2-6.4,4.9-10.8,4.9c-5,0-7-3.6-7-6.3c0-4.4,5.9-9,18.4-9.9c0.1-1.3,0.1-2.5,0.1-3.8
	c0-2.2,0.1-8.2-4.4-8.2c-2.5,0-3.7,1.9-3.7,3.4c0,0.6,0.1,1.2,0.3,1.9L185.5,77.2z M192.1,88.7c0,1.7,0.7,3.7,3.4,3.7
	c3.5,0,6.6-4.7,6.4-10C195.2,82.8,192.1,85.7,192.1,88.7z"/>
<path class="st0" d="M220,66.3c1,0,1.9,0.2,2.9,0.3c0.9,0.1,1.7,0.2,2.6,0.2c0.9,0,1.7-0.1,2.6-0.2c0.9-0.1,1.9-0.3,2.9-0.3l2.1,0
	l0,2l-1.3,0c-1.6,0-2.5,1.3-2.5,4.5l0,3.3c0,0.9,0.1,5,4.8,5c1.6,0,4.3-0.7,6.2-1.5l0-7.5c0-0.9,0-3.9-2.3-3.9l-0.9,0l0-2l2,0
	c0.6,0,1.1,0.1,1.7,0.3c1.2,0.2,2.5,0.3,3.7,0.3c1.5,0,3.1-0.1,4.6-0.3c0.5-0.1,1.1-0.2,1.6-0.2l2.1,0l0,2l-1.9,0
	c-3,0-3.3,3.8-3.3,7.4l0,10.7c0,3.6,0.1,7.2,3.6,7.2l1.6,0l0,2l-3.2,0c-0.9,0-1.7-0.3-2.6-0.4c-1.1-0.2-2.1-0.2-3.1-0.2
	c-1.1,0-2.1,0-3.2,0.2c-0.9,0.1-1.7,0.4-2.6,0.4l-3.1,0l0-2l1.6,0c3.7,0,3.7-4.2,3.7-8.4l0-3.3c-2.3,0.7-6,1.6-9.7,1.6
	c-5,0-8.6-2.2-8.6-6.5l0-4.5c0-2.7-0.7-4.3-3.6-4.3l-1.5,0l0-2L220,66.3z"/>
<path class="st0" d="M286.8,90.7c-6.3,2.7-9.5,6.1-15.3,6.1c-7.7,0-15-6.4-15-15.8c0-8,6.1-15.5,16.7-15.5c11,0,13.4,8,13.6,12.3
	c-3.6,0.5-6.8,0.6-10.6,0.6c-4.4,0-8.4-0.3-11.4-0.6c-0.5,7.9,4,14,11.9,14c3.8,0,7.3-2,10-4.6L286.8,90.7z M273.8,76
	c1.1,0,2.2-0.2,3.3-0.3c0.3-4.1-1.6-8-5.5-8c-4.2,0-5.8,3.4-6.5,8C267.5,75.8,271.7,76,273.8,76z"/>
<path class="st0" d="M319,90.6c-5.8,2.8-10.2,6.2-15.3,6.2c-6.8,0-13.7-5.7-13.7-14.6c0-8.6,5.9-16.7,16.8-16.7
	c3.8,0,7.8,0.9,11.3,5.5c-2.7,1.3-5,2.7-7.1,4.2c-0.8-5.3-3.2-7.2-6.5-7.2c-3.3,0-7,3.3-7.1,11.4c0,8.8,5.2,12.6,10.5,12.6
	c3.6,0,8.2-2.5,11.1-5L319,90.6z"/>
<path class="st0" d="M332,68.8c-5.2-0.1-9.8,1-9.8,6.3l0,1.2l-2.1,0l0-10.5c5.4,0.3,10.4,0.6,16.2,0.6c10.2,0,13.9-0.2,16.5-0.6
	c-0.3,2.3-0.7,5.2-2.1,10.5l-2.3,0c0.5-1.5,0.4-2.7,0.4-2.9c0-3.1-2.5-3.7-4-4.1c-2.3-0.5-4.4-0.5-5.4-0.5l0,16.3
	c0,3.5,0,8.6,3.8,8.6l1.6,0l0,2l-3.3,0c-0.9,0-1.7-0.3-2.6-0.4c-1.1-0.2-2.1-0.2-3.2-0.2c-1.1,0-2.1,0-3.2,0.2
	c-0.9,0.1-1.7,0.4-2.6,0.4l-3.3,0l0-2l1.6,0c3.9,0,3.9-5.1,3.9-8.6L332,68.8z"/>
<path class="st0" d="M354.9,66.5l2.8,0c1.5,0,3.4,0.5,6.4,0.5c1.8,0,3.7-0.3,5.4-0.5c1.3-0.2,2.6-0.3,3.9-0.3c3.8,0,9.6,1.5,9.6,7.3
	c0,5-4.9,5.9-7,6.1l0,0.5c5.1,0.6,9.2,2.5,9.2,8.1c0,7.2-7.8,7.9-10,7.9c-2.9,0-4.4-0.1-6-0.4c-1.9-0.3-3.5-0.5-5.7-0.5
	c-2.3,0-4.2,0.6-5.9,0.6l-2.7,0l0-2l1.3,0c3.7,0,3.9-4.3,3.9-6.6l0-11.7c0-3.3,0.1-7-3.4-7l-1.7,0L354.9,66.5z M369,80
	c0.5,0.1,1.7,0.1,2.5,0.1c2.9,0,4.9-2.4,4.9-5.6c0-2.2-1.1-5.2-5.8-5.3c-0.9,0-1.8,0.1-2.7,0.3c-0.3,5.4-0.4,6.8-0.4,8.2l0,10.6
	c0,3.3,0.7,5.9,4.3,5.9c3,0,5.6-2,5.6-5.9c0-3.4-1.5-6-5.3-6.4c-1.2-0.1-2.3-0.1-2.9,0L369,80z"/>
<path class="st0" d="M422.4,80.8c0,9.8-8,16.1-17.8,16.1c-8,0-16.3-5.5-16.2-15c0-8.1,5.3-16.3,16.4-16.3
	C415.7,65.7,422.4,71.9,422.4,80.8z M397.2,79.5c0,11.4,5.3,14.7,9.1,14.7c1.8,0,3.6-0.9,4.8-2.1c1.2-1.3,2.4-3.6,2.4-8.2
	c0-9.6-3.8-15.5-8.6-15.5C401.6,68.4,397.3,70.8,397.2,79.5z"/>
<path class="st1" d="M441.8,53.3l-1.5,0c-1.9,0-2.3,2.1-1.1,3.5l4.7,5.2l10.2,10.6c-1.6,1.8-5.1,6.2-6.8,8.3
	c-3.5,4.4-5.5,7.6-8,10.6c-2.1,2.5-4.3,4.8-8.6,4.8c-2.1,0-3.7-0.5-6.4-1.4l0-2.7c0.5,0.3,2.3,1.1,3.5,1.1c2.9,0,5.1-4.9,8.5-9.7
	c3.2-4.6,5.5-8,8.4-10.4c1.6-1.3,3-2,4.3-2.5l-3.3-3.1c-10.5-9.9-12.7-11.7-14.2-12.7c-1.9-1.3-3.1-1.5-4.9-1.5l-0.9,0l0-2.5l1.5,0
	c0.7,0,1.3,0.1,2,0.2c1.4,0.2,2.9,0.4,4.2,0.4c1.6,0,3.1-0.3,4.7-0.5c0.7-0.1,1.5-0.1,2.2-0.1l1.3,0L441.8,53.3z M453,50.8
	c1.1,0,2.2,0.3,3.3,0.4c1,0.1,1.9,0.2,2.9,0.2c1,0,1.9-0.1,2.9-0.2c1.1-0.1,2.2-0.4,3.3-0.4l2.2,0l0,2.5l-1.4,0
	c-3.6,0-3.6,4.8-3.6,9.6l0,18.7c0,4.5-0.2,11.7,3.8,11.7l1.3,0l0,2.5l-2.4,0c-1.1,0-2.1-0.4-3.2-0.6c-0.9-0.2-1.9-0.2-2.9-0.2
	c-1,0-2,0-2.9,0.2c-1.1,0.2-2.1,0.6-3.2,0.6l-2.4,0l0-2.5l1.3,0c3.9,0,3.8-7.2,3.8-11.7l0-18.7c0-4.8,0-9.6-3.6-9.6l-1.4,0l0-2.5
	L453,50.8z M477.9,50.8c0.7,0,1.5,0.1,2.2,0.1c1.6,0.2,3.1,0.5,4.7,0.5c1.4,0,2.9-0.2,4.3-0.4c0.7-0.1,1.3-0.2,2-0.2l1.5,0l0,2.5
	l-0.9,0c-1.9,0-3,0.3-4.9,1.5c-1.5,1-3.7,2.8-14.2,12.7l-3.3,3.1c1.3,0.5,2.7,1.1,4.3,2.5c2.9,2.4,5.2,5.9,8.4,10.4
	c3.4,4.9,5.6,9.8,8.5,9.8c1.3,0,3.1-0.8,3.5-1.1l0,2.7c-2.7,0.9-4.3,1.4-6.4,1.4c-4.3,0-6.5-2.4-8.6-4.9c-2.5-3-4.4-6.2-8-10.6
	c-1.7-2.1-5.2-6.5-6.8-8.3L474.4,62l4.7-5.2c1.3-1.4,0.8-3.5-1.1-3.5l-1.5,0l0-2.5L477.9,50.8z"/>
<path class="st1" d="M495.9,66.7l3,0c1,0,2,0.2,3,0.3c1.1,0.1,2.2,0.2,3.3,0.2c0.7,0,1.3,0,1.9-0.1c1.1-0.1,2.1-0.5,3.3-0.5l3.3,0
	l0,2l-1.2,0c-4.4,0-4,3-4,5.2l0,14l0.5,0c1.7-2.8,2.7-3.6,6.3-8c5-6,7.9-10.1,10.6-14.5l4.2,1.3c-0.5,2.6-0.9,5.7-0.9,7.9l0,12.1
	c0,2.6-0.2,7.3,3.8,7.3l1.6,0l0,2l-3.2,0c-0.9,0-1.7-0.3-2.6-0.4c-1.1-0.2-2.1-0.2-3.1-0.2c-1.1,0-2.1,0-3.2,0.2
	c-0.9,0.1-1.7,0.4-2.6,0.4l-3.1,0l0-2l1.6,0c3.4,0,3.5-3.6,3.5-7.2l0-5.8c0-1.1,0.1-2.8,0.5-5.7l-0.6,0c-5.6,7.4-6,7.7-9.8,12.4
	c-3.4,4.1-5.5,7-7.3,9.4l-3.7-1.1c0.2-2.3,0.2-3.9,0.2-11.4l0-10.8c0-4.8-2-5.1-3.9-5.1l-1.3,0L495.9,66.7z"/>
<path class="st1" d="M545.5,79.1c0.6,0.1,1.1,0.1,1.7,0.1c0.4,0,0.9,0,1.3-0.1c3-0.3,5.2-2.3,5.3-5.8c0-2.9-1.9-5.4-5.2-5.4
	c-4.1,0-5,3.6-4.9,5.6c-1.9-1.1-3.9-1.9-5.8-2.6c0.9-1.7,3.3-5.1,11-5.1c9.8,0,12,4.3,12,7.1c0,2.7-2.2,5.4-6.8,6.1l0,1
	c6.6,0.1,8.4,4.5,8.4,7.2c0,4.1-3.1,9.9-14.1,9.9c-5.8,0-9.7-1.4-11.9-6.6c2.3-0.8,4.6-1.7,6.8-2.6c0.5,3.7,1.7,6.5,5.4,6.5
	c3.4,0,5.2-3.2,5.2-6.4c0-4.5-2-6.8-5.7-6.8c-0.1,0-1.1,0-2.5,0.3L545.5,79.1z"/>
<path class="st1" d="M568.9,66.8c1,0,1.9,0.2,2.9,0.3c0.9,0.1,1.7,0.2,2.5,0.2c0.9,0,1.7-0.1,2.6-0.2c1-0.1,1.9-0.3,2.9-0.3l2.5,0
	l0,2l-1.1,0c-3,0-3.2,3.2-3.2,5.9l0,4.3c2.5,0.3,4.4,0.3,7,0.3s4.5-0.1,7-0.3l0-4.3c0-2.7-0.2-5.9-3.2-5.9l-1.1,0l0-2l2.5,0
	c1,0,1.9,0.2,2.9,0.3c0.9,0.1,1.7,0.2,2.6,0.2c0.9,0,1.7-0.1,2.5-0.2c1-0.1,1.9-0.3,2.9-0.3l3.4,0l0,2l-1.6,0c-2.5,0-3.7,1.1-3.7,6
	l0,12.2c0,3.4,0.1,7.1,3.6,7.1l1.6,0l0,2l-3.1,0c-0.9,0-1.7-0.3-2.6-0.4c-1.1-0.2-2.1-0.2-3.1-0.2c-1.1,0-2.1,0-3.2,0.2
	c-0.9,0.1-1.7,0.4-2.6,0.4l-2.2,0l0-2l1.1,0c2.9,0,3.2-3.7,3.2-7.3l0-5c-1.9,0.2-4.1,0.3-7,0.3c-2.9,0-5-0.1-7-0.3l0,5
	c0,3.6,0.3,7.3,3.2,7.3l1.1,0l0,2l-2.2,0c-0.9,0-1.7-0.3-2.6-0.4c-1.1-0.2-2.1-0.2-3.2-0.2c-1.1,0-2.1,0-3.1,0.2
	c-0.9,0.1-1.7,0.4-2.6,0.4l-3.1,0l0-2l1.6,0c3.6,0,3.7-3.7,3.7-7.1l0-12.2c0-4.9-1.1-6-3.6-6l-1.6,0l0-2L568.9,66.8z"/>
<path class="st1" d="M607.7,66.8l3,0c1,0,2,0.2,3,0.3c1.1,0.1,2.2,0.2,3.3,0.2c0.7,0,1.3,0,1.9-0.1c1.1-0.1,2.1-0.5,3.3-0.5l3.3,0
	l0,2l-1.2,0c-4.4,0-4,3-4,5.2l0,14l0.5,0c1.7-2.8,2.7-3.6,6.3-8c5-6,7.9-10.1,10.6-14.5l4.2,1.3c-0.5,2.6-0.9,5.7-0.9,7.9l0,12.1
	c0,2.6-0.2,7.3,3.8,7.3l1.6,0l0,2l-3.2,0c-0.9,0-1.7-0.3-2.6-0.4c-1.1-0.2-2.1-0.2-3.1-0.2c-1.1,0-2.1,0-3.2,0.2
	c-0.9,0.1-1.7,0.4-2.6,0.4l-3.1,0l0-2l1.6,0c3.4,0,3.5-3.6,3.5-7.2l0-5.8c0-1.1,0.1-2.8,0.5-5.7l-0.6,0c-5.6,7.4-6,7.7-9.8,12.4
	c-3.4,4.1-5.5,7-7.3,9.4l-3.7-1.1c0.2-2.3,0.2-3.9,0.2-11.4l0-10.8c0-4.8-2-5.1-3.9-5.1l-1.3,0L607.7,66.8z"/>
<path class="st1" d="M56.5,0C25.3,0,0,25.3,0,56.5c0,18.1,8.6,34.3,21.9,44.6c0.2-0.5,0.4-0.9,0.6-1.4C11.9,90.6,5.2,77.1,5.2,62
	c0-27.6,22.4-50,50-50c27.6,0,50,22.4,50,50c0,27.6-22.4,50-50,50c-0.5,0-0.9,0-1.4,0c-0.1,0.3-0.2,0.6-0.3,1c1,0.1,2,0.1,3,0.1
	c31.2,0,56.5-25.3,56.5-56.5C113,25.3,87.7,0,56.5,0z"/>
<g>
	<g>
		<path class="st0" d="M52.2,45.2c-1-0.5-1.3-1.8-0.8-2.7c0.5-1,1.8-1.3,2.7-0.8c0.2,0.1,6.2,2.8,9.8,6.7c3.5,3.9,6.2,1.6,8.4-0.2
			c8.6-6.6,18-7,18.4-7.1c1.1-0.1,2.1,0.7,2.2,1.8c0.1,1.1-0.7,2.1-1.8,2.2c-0.1,0-8.8,0.9-16.7,9.2c-5.4,5.7-7.2,30.1-7.5,39
			c0,1.1-0.9,1.9-2,2c0,0-0.1,0-0.1,0c-1.1,0-2-0.9-2-2.1c0.3-12.3,0.3-33.1-0.7-36.2C59.8,49.5,52.3,45.2,52.2,45.2z"/>
	</g>
	<g>
		<path class="st0" d="M68.9,45.4c-2.1-0.3-3.4-3.1-2.9-6.2c0.5-3.1,2.5-5.3,4.6-5c2.1,0.3,3.4,3.1,2.9,6.2
			C73.1,43.5,71,45.7,68.9,45.4z"/>
	</g>
</g>
<g>
	<g>
		<path class="st0" d="M16.9,73.1c0.1-1,1-1.7,2-1.7c0.1,0,2.2,0.3,4,1.5c1,0.7,2.4-0.1,3.3-0.7c3.4-2.3,6.1-2.2,6.3-2.3
			c1-0.1,1.9,0.6,2,1.6c0.1,1-0.6,1.9-1.6,2c0,0-3.2,0.4-4.9,2.4c-1.1,1.3-1.3,7.5-0.8,12.9c0,0.4,0.1,0.9,0.1,1.2
			c0.1,1-0.6,1.9-1.6,2c0,0-0.1,0-0.1,0c-0.9,0-1.8-0.7-1.9-1.6c0,0,0-0.3-0.1-0.7c-0.6-5.4-1.4-11.5-1.8-12.5c-1-2-3.1-2.3-3.2-2.3
			C17.6,75,16.8,74.1,16.9,73.1z"/>
	</g>
	<g>
		<path class="st0" d="M26.7,67.8c0,1.8-1.1,3.3-2.3,3.3c-1.2,0-2.2-1.5-2.2-3.4c0-1.8,1.1-3.3,2.3-3.3C25.8,64.5,26.7,66,26.7,67.8
			z"/>
	</g>
</g>
<g>
	<g>
		<path class="st0" d="M56.4,55.5c-0.3,0-5.9,0.5-10.3,5.6c-0.6,0.7-1.9,1.9-2.8,2.6c-1.6,1.2-3.6,0.3-4.6-0.6
			c-3.5-3.2-7.3-4.7-7.5-4.8c-0.9-0.4-2,0.1-2.4,1.1c-0.4,0.9,0.1,2,1.1,2.4c0.1,0,5.5,2.2,7.7,7.4c0.9,2.2,2,17.3,2.5,26.4
			c0.1,1,0.9,1.8,1.9,1.7c0.1,0,0.2,0,0.3,0c0.9-0.2,1.5-0.9,1.5-1.8c-0.1-6.5,0.1-24.4,3.1-29.4c3.4-5.7,10-6.7,10.1-6.8
			c1-0.1,1.7-1.1,1.5-2.1C58.3,56.1,57.4,55.4,56.4,55.5z"/>
	</g>
	<g>
		<path class="st0" d="M42.2,60c1.5,0.1,2.9-1.6,3.1-3.9c0.2-2.3-0.9-4.2-2.5-4.4c-1.5-0.1-2.9,1.6-3.1,3.9
			C39.5,58,40.6,59.9,42.2,60z"/>
	</g>
</g>
<path class="st0" d="M141.6,115.6h1.6v5.2l5.8-5.2h2.2l-6.3,5.7l6.8,6.7h-2.3l-5.7-5.8l-0.5,0.4v5.3h-1.6V115.6z"/>
<path class="st0" d="M163.9,128.1h-1.7L158,119l-4.1,9.1h-1.7l5.7-12.4h0.3L163.9,128.1z"/>
<path class="st0" d="M168,115.6v9.2l9.1-9.2h0.1v12.4h-1.6v-9.1l-9.1,9.1h-0.2v-12.4H168z"/>
<path class="st0" d="M189.6,122.1h-7.2v6h-1.6v-12.4h1.6v4.9h7.2v-4.9h1.6v12.4h-1.6V122.1z"/>
<path class="st0" d="M196.4,115.6v9.2l9.1-9.2h0.1v12.4H204v-9.1l-9.1,9.1h-0.2v-12.4H196.4z"/>
<path class="st0" d="M209.2,115.6h1.6v5.2l5.8-5.2h2.2l-6.3,5.7l6.8,6.7H217l-5.7-5.8l-0.5,0.4v5.3h-1.6V115.6z"/>
<path class="st0" d="M233.3,115.6v12.4h-1.6v-2.1c-0.7,0.8-1.4,1.4-2.3,1.8c-0.8,0.4-1.7,0.6-2.7,0.6c-1.8,0-3.3-0.6-4.5-1.9
	c-1.2-1.3-1.9-2.8-1.9-4.7c0-1.8,0.6-3.3,1.9-4.6c1.3-1.3,2.8-1.9,4.5-1.9c1,0,1.9,0.2,2.8,0.7c0.8,0.4,1.6,1.1,2.2,2v-2.3H233.3z
	 M226.9,116.8c-0.9,0-1.7,0.2-2.5,0.7c-0.8,0.4-1.4,1.1-1.8,1.8c-0.4,0.8-0.7,1.6-0.7,2.5c0,0.9,0.2,1.7,0.7,2.5
	c0.4,0.8,1.1,1.4,1.8,1.9c0.8,0.4,1.6,0.7,2.4,0.7c0.9,0,1.7-0.2,2.5-0.7c0.8-0.4,1.4-1,1.8-1.8c0.4-0.8,0.6-1.6,0.6-2.5
	c0-1.4-0.5-2.6-1.4-3.6C229.5,117.3,228.3,116.8,226.9,116.8z"/>
<path class="st0" d="M247,128.1h-3.6v-12.4h3.6c1.4,0,2.3,0.3,2.9,0.9c0.6,0.6,0.9,1.4,0.9,2.2c0,1.3-0.6,2.1-1.7,2.6
	c1.6,0.6,2.4,1.7,2.4,3.3C251.6,126.9,250.1,128.1,247,128.1z M245,117v3.9h1c0.9,0,1.6,0,1.9-0.1c0.3-0.1,0.6-0.3,0.8-0.6
	c0.3-0.3,0.4-0.7,0.4-1.2c0-0.5-0.1-0.9-0.4-1.3c-0.3-0.3-0.5-0.6-0.8-0.6c-0.3-0.1-0.9-0.1-1.8-0.1H245z M245,122.4v4.4h1.7
	c0.8,0,1.4-0.1,1.7-0.2c0.3-0.1,0.6-0.3,0.9-0.7c0.2-0.3,0.4-0.8,0.4-1.3c0-0.7-0.2-1.2-0.6-1.6c-0.4-0.4-1-0.6-1.7-0.6H245z"/>
<path class="st0" d="M260.3,115.3c1.9,0,3.5,0.7,4.8,2.1c1.1,1.3,1.7,2.8,1.7,4.5c0,1.7-0.6,3.3-1.8,4.6c-1.2,1.3-2.8,1.9-4.7,1.9
	c-1.9,0-3.5-0.7-4.7-1.9c-1.2-1.3-1.8-2.8-1.8-4.6c0-1.7,0.6-3.2,1.7-4.5C256.7,116,258.3,115.3,260.3,115.3z M260.3,116.9
	c-1.3,0-2.5,0.5-3.4,1.5c-1,1-1.4,2.2-1.4,3.6c0,0.9,0.2,1.7,0.7,2.5c0.4,0.8,1,1.4,1.8,1.8c0.7,0.4,1.6,0.6,2.4,0.6
	c0.9,0,1.7-0.2,2.4-0.6c0.7-0.4,1.3-1,1.8-1.8c0.4-0.8,0.7-1.6,0.7-2.5c0-1.4-0.5-2.6-1.4-3.6C262.7,117.4,261.6,116.9,260.3,116.9z
	"/>
<path class="st0" d="M281.8,118.2l-1.3,0.8c-1.1-1.5-2.6-2.2-4.5-2.2c-1.5,0-2.8,0.5-3.8,1.5c-1,1-1.5,2.2-1.5,3.6
	c0,0.9,0.2,1.8,0.7,2.6c0.5,0.8,1.1,1.4,1.9,1.9c0.8,0.4,1.7,0.7,2.7,0.7c1.8,0,3.3-0.7,4.5-2.2l1.3,0.8c-0.6,0.9-1.4,1.6-2.4,2.1
	c-1,0.5-2.1,0.7-3.4,0.7c-2,0-3.6-0.6-4.9-1.9c-1.3-1.3-1.9-2.8-1.9-4.6c0-1.2,0.3-2.3,0.9-3.4c0.6-1,1.4-1.8,2.5-2.4
	c1.1-0.6,2.2-0.9,3.6-0.9c0.8,0,1.6,0.1,2.4,0.4c0.8,0.3,1.4,0.6,1.9,1C280.9,117.1,281.4,117.6,281.8,118.2z"/>
<path class="st0" d="M296.9,118.2l-1.3,0.8c-1.1-1.5-2.6-2.2-4.5-2.2c-1.5,0-2.8,0.5-3.8,1.5c-1,1-1.5,2.2-1.5,3.6
	c0,0.9,0.2,1.8,0.7,2.6c0.5,0.8,1.1,1.4,1.9,1.9c0.8,0.4,1.7,0.7,2.7,0.7c1.8,0,3.3-0.7,4.5-2.2l1.3,0.8c-0.6,0.9-1.4,1.6-2.4,2.1
	c-1,0.5-2.1,0.7-3.4,0.7c-2,0-3.6-0.6-4.9-1.9c-1.3-1.3-1.9-2.8-1.9-4.6c0-1.2,0.3-2.3,0.9-3.4c0.6-1,1.4-1.8,2.5-2.4
	c1.1-0.6,2.2-0.9,3.6-0.9c0.8,0,1.6,0.1,2.4,0.4c0.8,0.3,1.4,0.6,1.9,1C296.1,117.1,296.5,117.6,296.9,118.2z"/>
<path class="st0" d="M298.6,115.6h8.2v1.4h-3.3v11.1h-1.6V117h-3.3V115.6z"/>
<path class="st0" d="M321.3,115.6v12.4h-1.6v-2.1c-0.7,0.8-1.4,1.4-2.3,1.8c-0.8,0.4-1.7,0.6-2.7,0.6c-1.8,0-3.3-0.6-4.5-1.9
	c-1.2-1.3-1.9-2.8-1.9-4.7c0-1.8,0.6-3.3,1.9-4.6c1.3-1.3,2.8-1.9,4.5-1.9c1,0,1.9,0.2,2.8,0.7c0.8,0.4,1.6,1.1,2.2,2v-2.3H321.3z
	 M314.9,116.8c-0.9,0-1.7,0.2-2.5,0.7c-0.8,0.4-1.4,1.1-1.8,1.8c-0.4,0.8-0.7,1.6-0.7,2.5c0,0.9,0.2,1.7,0.7,2.5
	c0.4,0.8,1.1,1.4,1.8,1.9c0.8,0.4,1.6,0.7,2.4,0.7c0.9,0,1.7-0.2,2.5-0.7s1.4-1,1.8-1.8c0.4-0.8,0.6-1.6,0.6-2.5
	c0-1.4-0.5-2.6-1.4-3.6C317.5,117.3,316.3,116.8,314.9,116.8z"/>
<path class="st0" d="M333.8,122.1h-7.2v6h-1.6v-12.4h1.6v4.9h7.2v-4.9h1.6v12.4h-1.6V122.1z"/>
<path class="st0" d="M344.8,115.3c1.9,0,3.5,0.7,4.8,2.1c1.1,1.3,1.7,2.8,1.7,4.5c0,1.7-0.6,3.3-1.8,4.6c-1.2,1.3-2.8,1.9-4.7,1.9
	c-1.9,0-3.5-0.7-4.7-1.9c-1.2-1.3-1.8-2.8-1.8-4.6c0-1.7,0.6-3.2,1.7-4.5C341.3,116,342.9,115.3,344.8,115.3z M344.8,116.9
	c-1.3,0-2.5,0.5-3.4,1.5c-1,1-1.4,2.2-1.4,3.6c0,0.9,0.2,1.7,0.7,2.5c0.4,0.8,1,1.4,1.8,1.8c0.7,0.4,1.6,0.6,2.4,0.6
	c0.9,0,1.7-0.2,2.4-0.6c0.7-0.4,1.3-1,1.8-1.8c0.4-0.8,0.7-1.6,0.7-2.5c0-1.4-0.5-2.6-1.4-3.6C347.3,117.4,346.1,116.9,344.8,116.9z
	"/>
<path class="st0" d="M357.9,128.1h-3.6v-12.4h3.6c1.4,0,2.3,0.3,2.9,0.9c0.6,0.6,0.9,1.4,0.9,2.2c0,1.3-0.6,2.1-1.7,2.6
	c1.6,0.6,2.4,1.7,2.4,3.3C362.4,126.9,360.9,128.1,357.9,128.1z M355.9,117v3.9h1c0.9,0,1.6,0,1.9-0.1c0.3-0.1,0.6-0.3,0.8-0.6
	c0.3-0.3,0.4-0.7,0.4-1.2c0-0.5-0.1-0.9-0.4-1.3c-0.3-0.3-0.5-0.6-0.8-0.6c-0.3-0.1-0.9-0.1-1.8-0.1H355.9z M355.9,122.4v4.4h1.7
	c0.8,0,1.4-0.1,1.7-0.2c0.3-0.1,0.6-0.3,0.9-0.7c0.2-0.3,0.4-0.8,0.4-1.3c0-0.7-0.2-1.2-0.6-1.6c-0.4-0.4-1-0.6-1.7-0.6H355.9z"/>
<path class="st0" d="M366.8,115.6v9.2l9.1-9.2h0.1v12.4h-1.6v-9.1l-9.1,9.1h-0.2v-12.4H366.8z"/>
<path class="st0" d="M378.2,115.6h8.2v1.4h-3.3v11.1h-1.6V117h-3.3V115.6z"/>
<path class="st0" d="M399.1,123.9l1.3,0.7c-0.4,0.9-1,1.6-1.5,2.1c-0.6,0.5-1.2,0.9-2,1.2c-0.7,0.3-1.5,0.4-2.5,0.4
	c-2,0-3.6-0.7-4.8-2c-1.1-1.3-1.7-2.8-1.7-4.5c0-1.6,0.5-3,1.5-4.2c1.2-1.6,2.9-2.4,4.9-2.4c2.1,0,3.8,0.8,5.1,2.4
	c0.9,1.1,1.4,2.6,1.4,4.3h-11.2c0,1.4,0.5,2.6,1.4,3.6c0.9,0.9,2,1.4,3.3,1.4c0.6,0,1.2-0.1,1.8-0.3c0.6-0.2,1.1-0.5,1.5-0.9
	C398.1,125.3,398.6,124.7,399.1,123.9z M399.1,120.6c-0.2-0.9-0.5-1.5-0.9-2c-0.4-0.5-0.9-0.9-1.6-1.2c-0.7-0.3-1.4-0.5-2.1-0.5
	c-1.2,0-2.3,0.4-3.1,1.2c-0.6,0.6-1.1,1.4-1.5,2.6H399.1z"/>
<path class="st0" d="M414.3,128.1h-1.7l-4.2-9.1l-4.1,9.1h-1.7l5.7-12.4h0.3L414.3,128.1z"/>
<path class="st0" d="M418.4,120.6h1.5c1.2,0,2.2,0.1,2.8,0.3c0.7,0.2,1.3,0.6,1.8,1.3c0.5,0.7,0.7,1.4,0.7,2.2c0,1-0.4,1.9-1.1,2.6
	c-0.7,0.7-1.8,1.1-3.3,1.1h-4.1v-12.4h1.6V120.6z M418.4,122v4.7h1.8c2.2,0,3.2-0.8,3.2-2.3c0-0.4-0.1-0.9-0.3-1.3
	c-0.2-0.4-0.6-0.7-1-0.9c-0.4-0.2-1.2-0.3-2.4-0.3H418.4z"/>
<path class="st0" d="M436.6,122.1h-7.2v6h-1.6v-12.4h1.6v4.9h7.2v-4.9h1.6v12.4h-1.6V122.1z"/>
<path class="st0" d="M447.7,115.3c1.9,0,3.5,0.7,4.8,2.1c1.1,1.3,1.7,2.8,1.7,4.5c0,1.7-0.6,3.3-1.8,4.6c-1.2,1.3-2.8,1.9-4.7,1.9
	c-1.9,0-3.5-0.7-4.7-1.9c-1.2-1.3-1.8-2.8-1.8-4.6c0-1.7,0.6-3.2,1.7-4.5C444.2,116,445.8,115.3,447.7,115.3z M447.7,116.9
	c-1.3,0-2.5,0.5-3.4,1.5c-1,1-1.4,2.2-1.4,3.6c0,0.9,0.2,1.7,0.7,2.5c0.4,0.8,1,1.4,1.8,1.8c0.7,0.4,1.6,0.6,2.4,0.6
	c0.9,0,1.7-0.2,2.4-0.6c0.7-0.4,1.3-1,1.8-1.8c0.4-0.8,0.7-1.6,0.7-2.5c0-1.4-0.5-2.6-1.4-3.6C450.2,117.4,449,116.9,447.7,116.9z"
	/>
<path class="st0" d="M458.7,115.6v9.2l9.1-9.2h0.1v12.4h-1.6v-9.1l-9.1,9.1h-0.2v-12.4H458.7z M458.5,110.6h1.5
	c0.3,0.4,0.6,0.7,1,0.9c0.4,0.2,1,0.3,1.6,0.3c0.6,0,1.1-0.1,1.5-0.3c0.4-0.2,0.7-0.5,1.1-0.9h1.5c-0.2,0.7-0.6,1.3-1.3,1.7
	c-0.7,0.5-1.6,0.7-2.7,0.7c-1.1,0-2-0.2-2.7-0.7C459.1,111.9,458.7,111.3,458.5,110.6z"/>
<path class="st0" d="M491.5,115.6h0.5l4.2,12.4h-1.7l-3.1-9.1l-4.8,9.1h-0.3l-4.8-9.2l-3.1,9.2h-1.7l4.3-12.4h0.4l5,9.7L491.5,115.6
	z"/>
<path class="st0" d="M509.1,123.9l1.3,0.7c-0.4,0.9-1,1.6-1.5,2.1c-0.6,0.5-1.2,0.9-2,1.2c-0.7,0.3-1.5,0.4-2.5,0.4
	c-2,0-3.6-0.7-4.8-2c-1.1-1.3-1.7-2.8-1.7-4.5c0-1.6,0.5-3,1.5-4.2c1.2-1.6,2.9-2.4,4.9-2.4c2.1,0,3.8,0.8,5.1,2.4
	c0.9,1.1,1.4,2.6,1.4,4.3h-11.2c0,1.4,0.5,2.6,1.4,3.6c0.9,0.9,2,1.4,3.3,1.4c0.6,0,1.2-0.1,1.8-0.3c0.6-0.2,1.1-0.5,1.5-0.9
	C508.1,125.3,508.6,124.7,509.1,123.9z M509.1,120.6c-0.2-0.9-0.5-1.5-0.9-2c-0.4-0.5-0.9-0.9-1.6-1.2c-0.7-0.3-1.4-0.5-2.1-0.5
	c-1.2,0-2.3,0.4-3.1,1.2c-0.6,0.6-1.1,1.4-1.5,2.6H509.1z"/>
<path class="st0" d="M513.9,126.7l4.8-11.1h0.8l4.8,11.1h1.5v2.9h-1.5v-1.6H514v1.7h-1.6v-3H513.9z M519.1,118.1l-3.6,8.6h7.1
	L519.1,118.1z"/>
<path class="st0" d="M529.6,115.6v9.2l9.1-9.2h0.1v12.4h-1.6v-9.1l-9.1,9.1H528v-12.4H529.6z"/>
<path class="st0" d="M554,128.1h-11.6v-12.4h1.6v10.9h7.2v-10.9h1.6v10.9h2.7v3.5H554V128.1z"/>
<path class="st0" d="M559.3,115.6v9.2l9.1-9.2h0.1v12.4h-1.6v-9.1l-9.1,9.1h-0.2v-12.4H559.3z"/>
<path class="st0" d="M580.9,122.1h-7.2v6h-1.6v-12.4h1.6v4.9h7.2v-4.9h1.6v12.4h-1.6V122.1z"/>
<path class="st0" d="M587.7,120.6h1.5c1.2,0,2.2,0.1,2.9,0.3c0.7,0.2,1.3,0.6,1.8,1.3c0.5,0.7,0.7,1.4,0.7,2.2c0,1-0.4,1.9-1.1,2.6
	c-0.7,0.7-1.8,1.1-3.3,1.1h-4.1v-12.4h1.6V120.6z M587.8,122v4.7h1.8c2.2,0,3.3-0.8,3.3-2.3c0-0.4-0.1-0.9-0.3-1.3
	c-0.2-0.4-0.6-0.7-1-0.9c-0.4-0.2-1.2-0.3-2.4-0.3H587.8z M596.8,115.6h1.6v12.4h-1.6V115.6z"/>
</svg>
