<?xml version="1.0" encoding="utf-8"?>
<!-- Generator: Adobe Illustrator 22.0.0, SVG Export Plug-In . SVG Version: 6.00 Build 0)  -->
<svg version="1.1" id="Слой_1" xmlns="http://www.w3.org/2000/svg" xmlns:xlink="http://www.w3.org/1999/xlink" x="0px" y="0px"
	 viewBox="0 0 188.2 188.3" style="enable-background:new 0 0 188.2 188.3;" xml:space="preserve">
<style type="text/css">
	.st0{fill:#16B4B7;}
</style>
<g>
	<g>
		<path class="st0" d="M94.2,188.3c-0.1,0-0.1,0-0.2,0c-0.8,0-1.5-0.2-2.2-0.8c-2.5-2-61.9-49.5-61.9-103.1
			c0-25.9,12.8-41.2,23.5-49.5c13.8-10.6,30-14.4,40.6-14.4h0.1h0.1c10.7,0,26.8,3.9,40.5,14.4c10.7,8.3,23.5,23.6,23.5,49.5
			c0,53.6-59.3,101.1-61.9,103.1C95.8,188,95,188.3,94.2,188.3z M94.2,27.5c-18.7,0-57.1,14-57.1,56.9c0,44.7,46.6,86.9,57.1,95.9
			c10.5-9,57.1-51.1,57.1-95.9C151.3,41.5,112.9,27.5,94.2,27.5z"/>
		<path class="st0" d="M94.2,119.6c-19.4,0-35.2-15.8-35.2-35.2s15.8-35.2,35.2-35.2s35.2,15.8,35.2,35.2S113.5,119.6,94.2,119.6z
			 M94.2,56.3C78.6,56.3,66,68.9,66,84.4s12.6,28.2,28.2,28.2c15.5,0,28.2-12.6,28.2-28.2C122.3,68.9,109.7,56.3,94.2,56.3z"/>
	</g>
	<g>
		<path class="st0" d="M174.6,89.8c-0.1,0-0.1,0-0.2,0c-1.9-0.1-3.4-1.8-3.3-3.7c3.4-55.2-43-72.1-43.5-72.3
			c-1.8-0.6-2.8-2.6-2.1-4.5c0.6-1.8,2.6-2.8,4.5-2.1c0.5,0.2,13.2,4.7,25.5,16.8c11.4,11.1,24.5,31,22.6,62.6
			C177.9,88.4,176.4,89.8,174.6,89.8z"/>
		<path class="st0" d="M13.8,89.8c-1.8,0-3.4-1.4-3.5-3.3C8.3,55,21.5,35.1,32.9,24c12.3-12,25-16.6,25.6-16.8
			c1.8-0.6,3.8,0.3,4.5,2.1c0.6,1.8-0.3,3.8-2.1,4.5l0,0c-0.1,0-12,4.3-23.2,15.4C22.7,43.9,15.8,63,17.3,86.1
			c0.1,1.9-1.3,3.6-3.3,3.7C13.9,89.8,13.8,89.8,13.8,89.8z"/>
	</g>
</g>
</svg>
