<?xml version="1.0" encoding="utf-8"?>
<!-- Generator: Adobe Illustrator 22.0.0, SVG Export Plug-In . SVG Version: 6.00 Build 0)  -->
<svg version="1.1" id="Layer_1" xmlns="http://www.w3.org/2000/svg" xmlns:xlink="http://www.w3.org/1999/xlink" x="0px" y="0px"
	 viewBox="0 0 113 113" style="enable-background:new 0 0 113 113;" xml:space="preserve">
<style type="text/css">
	.st0{fill:#A3A3A3;}
</style>
<g>
	<g>
		<path class="st0" d="M56.5,0C25.3,0,0,25.3,0,56.5c0,18.1,8.6,34.3,21.9,44.6c0.2-0.5,0.4-0.9,0.6-1.4C11.9,90.6,5.2,77.1,5.2,62
			c0-27.6,22.4-50,50-50s50,22.4,50,50s-22.4,50-50,50c-0.5,0-0.9,0-1.4,0c-0.1,0.3-0.2,0.6-0.3,1c1,0.1,2,0.1,3,0.1
			c31.2,0,56.5-25.3,56.5-56.5C113,25.3,87.7,0,56.5,0z"/>
		<g>
			<g>
				<path class="st0" d="M52.2,45.2c-1-0.5-1.3-1.8-0.8-2.7c0.5-1,1.8-1.3,2.7-0.8c0.2,0.1,6.2,2.8,9.8,6.7c3.5,3.9,6.2,1.6,8.4-0.2
					c8.6-6.6,18-7,18.4-7.1c1.1-0.1,2.1,0.7,2.2,1.8s-0.7,2.1-1.8,2.2c-0.1,0-8.8,0.9-16.7,9.2c-5.4,5.7-7.2,30.1-7.5,39
					c0,1.1-0.9,1.9-2,2h-0.1c-1.1,0-2-0.9-2-2.1c0.3-12.3,0.3-33.1-0.7-36.2C59.8,49.5,52.3,45.2,52.2,45.2z"/>
			</g>
			<g>
				<path class="st0" d="M68.9,45.4c-2.1-0.3-3.4-3.1-2.9-6.2c0.5-3.1,2.5-5.3,4.6-5s3.4,3.1,2.9,6.2C73.1,43.5,71,45.7,68.9,45.4z"
					/>
			</g>
		</g>
		<g>
			<g>
				<path class="st0" d="M16.9,73.1c0.1-1,1-1.7,2-1.7c0.1,0,2.2,0.3,4,1.5c1,0.7,2.4-0.1,3.3-0.7c3.4-2.3,6.1-2.2,6.3-2.3
					c1-0.1,1.9,0.6,2,1.6s-0.6,1.9-1.6,2c0,0-3.2,0.4-4.9,2.4c-1.1,1.3-1.3,7.5-0.8,12.9c0,0.4,0.1,0.9,0.1,1.2c0.1,1-0.6,1.9-1.6,2
					h-0.1c-0.9,0-1.8-0.7-1.9-1.6c0,0,0-0.3-0.1-0.7c-0.6-5.4-1.4-11.5-1.8-12.5c-1-2-3.1-2.3-3.2-2.3C17.6,75,16.8,74.1,16.9,73.1z
					"/>
			</g>
			<g>
				<path class="st0" d="M26.7,67.8c0,1.8-1.1,3.3-2.3,3.3c-1.2,0-2.2-1.5-2.2-3.4c0-1.8,1.1-3.3,2.3-3.3
					C25.8,64.5,26.7,66,26.7,67.8z"/>
			</g>
		</g>
		<g>
			<g>
				<path class="st0" d="M56.4,55.5c-0.3,0-5.9,0.5-10.3,5.6c-0.6,0.7-1.9,1.9-2.8,2.6c-1.6,1.2-3.6,0.3-4.6-0.6
					c-3.5-3.2-7.3-4.7-7.5-4.8c-0.9-0.4-2,0.1-2.4,1.1c-0.4,0.9,0.1,2,1.1,2.4c0.1,0,5.5,2.2,7.7,7.4c0.9,2.2,2,17.3,2.5,26.4
					c0.1,1,0.9,1.8,1.9,1.7c0.1,0,0.2,0,0.3,0c0.9-0.2,1.5-0.9,1.5-1.8c-0.1-6.5,0.1-24.4,3.1-29.4c3.4-5.7,10-6.7,10.1-6.8
					c1-0.1,1.7-1.1,1.5-2.1C58.3,56.1,57.4,55.4,56.4,55.5z"/>
			</g>
			<g>
				<path class="st0" d="M42.2,60c1.5,0.1,2.9-1.6,3.1-3.9c0.2-2.3-0.9-4.2-2.5-4.4c-1.5-0.1-2.9,1.6-3.1,3.9
					C39.5,58,40.6,59.9,42.2,60z"/>
			</g>
		</g>
	</g>
</g>
</svg>
